{"asset":{"generator":"Khronos glTF Blender I/O v4.5.51","version":"2.0"},"scene":0,"scenes":[{"name":"Scene","nodes":[0]}],"nodes":[{"mesh":0,"name":"Barn"}],"materials":[{"doubleSided":true,"name":"StoneDark","normalTexture":{"index":0,"scale":0.800000011920929},"pbrMetallicRoughness":{"baseColorTexture":{"index":1},"metallicFactor":0,"roughnessFactor":0.8600000143051147}},{"doubleSided":true,"name":"TimberDark","normalTexture":{"index":2,"scale":0.800000011920929},"pbrMetallicRoughness":{"baseColorTexture":{"index":3},"metallicFactor":0,"roughnessFactor":0.699999988079071}},{"doubleSided":true,"name":"Timber","normalTexture":{"index":4,"scale":0.800000011920929},"pbrMetallicRoughness":{"baseColorTexture":{"index":5},"metallicFactor":0,"roughnessFactor":0.7200000286102295}},{"doubleSided":true,"name":"Shake","normalTexture":{"index":6,"scale":0.800000011920929},"pbrMetallicRoughness":{"baseColorTexture":{"index":7},"metallicFactor":0,"roughnessFactor":0.8600000143051147}},{"doubleSided":true,"name":"ShakeLight","normalTexture":{"index":8,"scale":0.800000011920929},"pbrMetallicRoughness":{"baseColorTexture":{"index":9},"metallicFactor":0,"roughnessFactor":0.8399999737739563}},{"doubleSided":true,"name":"Metal","pbrMetallicRoughness":{"baseColorFactor":[0.06847816705703735,0.07036009430885315,0.0802198201417923,1],"metallicFactor":0,"roughnessFactor":0.41999998688697815}}],"meshes":[{"name":"Cube","primitives":[{"attributes":{"POSITION":0,"NORMAL":1,"TEXCOORD_0":2},"indices":3,"material":0},{"attributes":{"POSITION":4,"NORMAL":5,"TEXCOORD_0":6},"indices":7,"material":1},{"attributes":{"POSITION":8,"NORMAL":9,"TEXCOORD_0":10},"indices":11,"material":2},{"attributes":{"POSITION":12,"NORMAL":13,"TEXCOORD_0":14},"indices":15,"material":3},{"attributes":{"POSITION":16,"NORMAL":17,"TEXCOORD_0":18},"indices":19,"material":4},{"attributes":{"POSITION":20,"NORMAL":21,"TEXCOORD_0":22},"indices":23,"material":5}]}],"textures":[{"sampler":0,"source":0},{"sampler":0,"source":1},{"sampler":0,"source":2},{"sampler":0,"source":3},{"sampler":0,"source":2},{"sampler":0,"source":3},{"sampler":0,"source":4},{"sampler":0,"source":5},{"sampler":0,"source":4},{"sampler":0,"source":5}],"images":[{"mimeType":"image/png","name":"mat_masonry_n","uri":"../textures/mat_masonry_n.png"},{"mimeType":"image/png","name":"mat_masonry","uri":"../textures/mat_masonry.png"},{"mimeType":"image/png","name":"mat_timber_n","uri":"../textures/mat_timber_n.png"},{"mimeType":"image/png","name":"mat_timber","uri":"../textures/mat_timber.png"},{"mimeType":"image/png","name":"mat_shake_n","uri":"../textures/mat_shake_n.png"},{"mimeType":"image/png","name":"mat_shake","uri":"../textures/mat_shake.png"}],"accessors":[{"bufferView":0,"componentType":5126,"count":96,"max":[1.191084384918213,0.20000000298023224,1.3600001335144043],"min":[-1.3489155769348145,0,-1.059999942779541],"type":"VEC3"},{"bufferView":1,"componentType":5126,"count":96,"type":"VEC3"},{"bufferView":2,"componentType":5126,"count":96,"type":"VEC2"},{"bufferView":3,"componentType":5123,"count":132,"type":"SCALAR"},{"bufferView":4,"componentType":5126,"count":156,"max":[1.3510844707489014,1.6700000762939453,1.3000001907348633],"min":[-1.5310845375061035,0,-1.2399998903274536],"type":"VEC3"},{"bufferView":5,"componentType":5126,"count":156,"type":"VEC3"},{"bufferView":6,"componentType":5126,"count":156,"type":"VEC2"},{"bufferView":7,"componentType":5123,"count":252,"type":"SCALAR"},{"bufferView":8,"componentType":5126,"count":1476,"max":[1.5310845375061035,1.8949999809265137,1.3350001573562622],"min":[-1.4710845947265625,0,-1.4600000381469727],"type":"VEC3"},{"bufferView":9,"componentType":5126,"count":1476,"type":"VEC3"},{"bufferView":10,"componentType":5126,"count":1476,"type":"VEC2"},{"bufferView":11,"componentType":5123,"count":2232,"type":"SCALAR"},{"bufferView":12,"componentType":5126,"count":216,"max":[1.3521959781646729,2.569999933242798,1.4600000381469727],"min":[-1.5100269317626953,1.5191750526428223,-1.1599998474121094],"type":"VEC3"},{"bufferView":13,"componentType":5126,"count":216,"type":"VEC3"},{"bufferView":14,"componentType":5126,"count":216,"type":"VEC2"},{"bufferView":15,"componentType":5123,"count":324,"type":"SCALAR"},{"bufferView":16,"componentType":5126,"count":192,"max":[1.1809461116790771,2.5855581760406494,1.4600000381469727],"min":[-1.3387770652770996,1.6416749954223633,-1.1599998474121094],"type":"VEC3"},{"bufferView":17,"componentType":5126,"count":192,"type":"VEC3"},{"bufferView":18,"componentType":5126,"count":192,"type":"VEC2"},{"bufferView":19,"componentType":5123,"count":288,"type":"SCALAR"},{"bufferView":20,"componentType":5126,"count":96,"max":[0.4510844945907593,1.0899999141693115,-0.9199999570846558],"min":[-0.6089155673980713,0.4100000262260437,-0.9800000190734863],"type":"VEC3"},{"bufferView":21,"componentType":5126,"count":96,"type":"VEC3"},{"bufferView":22,"componentType":5126,"count":96,"type":"VEC2"},{"bufferView":23,"componentType":5123,"count":144,"type":"SCALAR"}],"bufferViews":[{"buffer":0,"byteLength":1152,"byteOffset":0,"target":34962},{"buffer":0,"byteLength":1152,"byteOffset":1152,"target":34962},{"buffer":0,"byteLength":768,"byteOffset":2304,"target":34962},{"buffer":0,"byteLength":264,"byteOffset":3072,"target":34963},{"buffer":0,"byteLength":1872,"byteOffset":3336,"target":34962},{"buffer":0,"byteLength":1872,"byteOffset":5208,"target":34962},{"buffer":0,"byteLength":1248,"byteOffset":7080,"target":34962},{"buffer":0,"byteLength":504,"byteOffset":8328,"target":34963},{"buffer":0,"byteLength":17712,"byteOffset":8832,"target":34962},{"buffer":0,"byteLength":17712,"byteOffset":26544,"target":34962},{"buffer":0,"byteLength":11808,"byteOffset":44256,"target":34962},{"buffer":0,"byteLength":4464,"byteOffset":56064,"target":34963},{"buffer":0,"byteLength":2592,"byteOffset":60528,"target":34962},{"buffer":0,"byteLength":2592,"byteOffset":63120,"target":34962},{"buffer":0,"byteLength":1728,"byteOffset":65712,"target":34962},{"buffer":0,"byteLength":648,"byteOffset":67440,"target":34963},{"buffer":0,"byteLength":2304,"byteOffset":68088,"target":34962},{"buffer":0,"byteLength":2304,"byteOffset":70392,"target":34962},{"buffer":0,"byteLength":1536,"byteOffset":72696,"target":34962},{"buffer":0,"byteLength":576,"byteOffset":74232,"target":34963},{"buffer":0,"byteLength":1152,"byteOffset":74808,"target":34962},{"buffer":0,"byteLength":1152,"byteOffset":75960,"target":34962},{"buffer":0,"byteLength":768,"byteOffset":77112,"target":34962},{"buffer":0,"byteLength":288,"byteOffset":77880,"target":34963}],"samplers":[{"magFilter":9729,"minFilter":9987}],"buffers":[{"byteLength":78168,"uri":"barn.bin"}]}