{"asset":{"generator":"Khronos glTF Blender I/O v4.5.51","version":"2.0"},"scene":0,"scenes":[{"name":"Scene","nodes":[0]}],"nodes":[{"mesh":0,"name":"Birch"}],"materials":[{"doubleSided":true,"name":"BirchBark","normalTexture":{"index":0,"scale":0.800000011920929},"pbrMetallicRoughness":{"baseColorTexture":{"index":1},"metallicFactor":0,"roughnessFactor":0.8600000143051147,"baseColorFactor":[0.6938717612919899,0.6724431569576875,0.5972017883637634,1.0]}},{"doubleSided":true,"name":"TimberDark","normalTexture":{"index":2,"scale":0.800000011920929},"pbrMetallicRoughness":{"baseColorTexture":{"index":3},"metallicFactor":0,"roughnessFactor":0.699999988079071,"baseColorFactor":[0.1119324278369056,0.04970656598412723,0.0202885630566524,1.0]}},{"doubleSided":true,"name":"BirchLeaf","normalTexture":{"index":4,"scale":0.800000011920929},"pbrMetallicRoughness":{"baseColorTexture":{"index":5},"metallicFactor":0,"roughnessFactor":0.800000011920929,"baseColorFactor":[0.1946178304415758,0.32314320911295075,0.06847816984440017,1.0]}},{"doubleSided":true,"name":"BirchLeafLight","normalTexture":{"index":6,"scale":0.800000011920929},"pbrMetallicRoughness":{"baseColorTexture":{"index":7},"metallicFactor":0,"roughnessFactor":0.7799999713897705,"baseColorFactor":[0.29177064981753587,0.44520119451622786,0.10702310297826761,1.0]}}],"meshes":[{"name":"Cone","primitives":[{"attributes":{"POSITION":0,"NORMAL":1,"TEXCOORD_0":2},"indices":3,"material":0},{"attributes":{"POSITION":4,"NORMAL":5,"TEXCOORD_0":6},"indices":7,"material":1},{"attributes":{"POSITION":8,"NORMAL":9,"TEXCOORD_0":10},"indices":11,"material":2},{"attributes":{"POSITION":12,"NORMAL":13,"TEXCOORD_0":14},"indices":15,"material":3}]}],"textures":[{"sampler":0,"source":0},{"sampler":0,"source":1},{"sampler":0,"source":2},{"sampler":0,"source":3},{"sampler":0,"source":4},{"sampler":0,"source":5},{"sampler":0,"source":4},{"sampler":0,"source":5}],"images":[{"mimeType":"image/png","name":"mat_bark_n","uri":"../textures/mat_bark_n.png"},{"mimeType":"image/png","name":"mat_bark","uri":"../textures/mat_bark.png"},{"mimeType":"image/png","name":"mat_timber_n","uri":"../textures/mat_timber_n.png"},{"mimeType":"image/png","name":"mat_timber","uri":"../textures/mat_timber.png"},{"mimeType":"image/png","name":"mat_foliage_n","uri":"../textures/mat_foliage_n.png"},{"mimeType":"image/png","name":"mat_foliage","uri":"../textures/mat_foliage.png"}],"accessors":[{"bufferView":0,"componentType":5126,"count":84,"max":[0.22014030814170837,1.8964380025863647,0.12316109240055084],"min":[-0.25333231687545776,0,-0.11522071808576584],"type":"VEC3"},{"bufferView":1,"componentType":5126,"count":84,"type":"VEC3"},{"bufferView":2,"componentType":5126,"count":84,"type":"VEC2"},{"bufferView":3,"componentType":5123,"count":132,"type":"SCALAR"},{"bufferView":4,"componentType":5126,"count":72,"max":[0.025000005960464478,1.7704999446868896,0.04500000178813934],"min":[-0.10499998927116394,0.6030999422073364,-0.08499999344348907],"type":"VEC3"},{"bufferView":5,"componentType":5126,"count":72,"type":"VEC3"},{"bufferView":6,"componentType":5126,"count":72,"type":"VEC2"},{"bufferView":7,"componentType":5123,"count":108,"type":"SCALAR"},{"bufferView":8,"componentType":5126,"count":224,"max":[0.36000001430511475,2.5820000171661377,0.42000001668930054],"min":[-0.4999999701976776,1.8107998371124268,-0.42000001668930054],"type":"VEC3"},{"bufferView":9,"componentType":5126,"count":224,"type":"VEC3"},{"bufferView":10,"componentType":5126,"count":224,"type":"VEC2"},{"bufferView":11,"componentType":5123,"count":288,"type":"SCALAR"},{"bufferView":12,"componentType":5126,"count":112,"max":[0.4999999701976776,2.2076001167297363,0.1600000113248825],"min":[-0.06000000238418579,1.748400092124939,-0.3999999761581421],"type":"VEC3"},{"bufferView":13,"componentType":5126,"count":112,"type":"VEC3"},{"bufferView":14,"componentType":5126,"count":112,"type":"VEC2"},{"bufferView":15,"componentType":5123,"count":144,"type":"SCALAR"}],"bufferViews":[{"buffer":0,"byteLength":1008,"byteOffset":0,"target":34962},{"buffer":0,"byteLength":1008,"byteOffset":1008,"target":34962},{"buffer":0,"byteLength":672,"byteOffset":2016,"target":34962},{"buffer":0,"byteLength":264,"byteOffset":2688,"target":34963},{"buffer":0,"byteLength":864,"byteOffset":2952,"target":34962},{"buffer":0,"byteLength":864,"byteOffset":3816,"target":34962},{"buffer":0,"byteLength":576,"byteOffset":4680,"target":34962},{"buffer":0,"byteLength":216,"byteOffset":5256,"target":34963},{"buffer":0,"byteLength":2688,"byteOffset":5472,"target":34962},{"buffer":0,"byteLength":2688,"byteOffset":8160,"target":34962},{"buffer":0,"byteLength":1792,"byteOffset":10848,"target":34962},{"buffer":0,"byteLength":576,"byteOffset":12640,"target":34963},{"buffer":0,"byteLength":1344,"byteOffset":13216,"target":34962},{"buffer":0,"byteLength":1344,"byteOffset":14560,"target":34962},{"buffer":0,"byteLength":896,"byteOffset":15904,"target":34962},{"buffer":0,"byteLength":288,"byteOffset":16800,"target":34963}],"samplers":[{"magFilter":9729,"minFilter":9987}],"buffers":[{"byteLength":17088,"uri":"birch.bin"}]}