{"asset":{"generator":"Khronos glTF Blender I/O v4.5.51","version":"2.0"},"scene":0,"scenes":[{"name":"Scene","nodes":[0]}],"nodes":[{"mesh":0,"name":"Blacksmith"}],"materials":[{"doubleSided":true,"name":"StoneDark","normalTexture":{"index":0,"scale":0.800000011920929},"pbrMetallicRoughness":{"baseColorTexture":{"index":1},"metallicFactor":0,"roughnessFactor":0.8600000143051147}},{"doubleSided":true,"name":"Stone","normalTexture":{"index":2,"scale":0.800000011920929},"pbrMetallicRoughness":{"baseColorTexture":{"index":3},"metallicFactor":0,"roughnessFactor":0.8799999952316284}},{"doubleSided":true,"name":"Plaster","normalTexture":{"index":4,"scale":0.800000011920929},"pbrMetallicRoughness":{"baseColorTexture":{"index":5},"metallicFactor":0,"roughnessFactor":0.949999988079071}},{"doubleSided":true,"name":"Timber","normalTexture":{"index":6,"scale":0.800000011920929},"pbrMetallicRoughness":{"baseColorTexture":{"index":7},"metallicFactor":0,"roughnessFactor":0.7200000286102295}},{"doubleSided":true,"name":"Shake","normalTexture":{"index":8,"scale":0.800000011920929},"pbrMetallicRoughness":{"baseColorTexture":{"index":9},"metallicFactor":0,"roughnessFactor":0.8600000143051147}},{"doubleSided":true,"name":"ShakeLight","normalTexture":{"index":10,"scale":0.800000011920929},"pbrMetallicRoughness":{"baseColorTexture":{"index":11},"metallicFactor":0,"roughnessFactor":0.8399999737739563}},{"doubleSided":true,"name":"TimberDark","normalTexture":{"index":12,"scale":0.800000011920929},"pbrMetallicRoughness":{"baseColorTexture":{"index":13},"metallicFactor":0,"roughnessFactor":0.699999988079071}},{"doubleSided":true,"name":"Window","pbrMetallicRoughness":{"baseColorFactor":[0.023153366521000862,0.024157632142305374,0.03310476616024971,1],"metallicFactor":0,"roughnessFactor":0.3499999940395355}},{"doubleSided":true,"name":"Slate","normalTexture":{"index":14,"scale":0.800000011920929},"pbrMetallicRoughness":{"baseColorTexture":{"index":15},"metallicFactor":0,"roughnessFactor":0.5199999809265137}},{"doubleSided":true,"name":"SlateLight","normalTexture":{"index":16,"scale":0.800000011920929},"pbrMetallicRoughness":{"baseColorTexture":{"index":17},"metallicFactor":0,"roughnessFactor":0.47999998927116394}},{"doubleSided":true,"name":"Bark","normalTexture":{"index":18,"scale":0.800000011920929},"pbrMetallicRoughness":{"baseColorTexture":{"index":19},"metallicFactor":0,"roughnessFactor":0.8999999761581421}},{"doubleSided":true,"name":"Metal","pbrMetallicRoughness":{"baseColorFactor":[0.06847816705703735,0.07036009430885315,0.0802198201417923,1],"metallicFactor":0,"roughnessFactor":0.41999998688697815}}],"meshes":[{"name":"Cube","primitives":[{"attributes":{"POSITION":0,"NORMAL":1,"TEXCOORD_0":2},"indices":3,"material":0},{"attributes":{"POSITION":4,"NORMAL":5,"TEXCOORD_0":6},"indices":7,"material":1},{"attributes":{"POSITION":8,"NORMAL":9,"TEXCOORD_0":10},"indices":11,"material":2},{"attributes":{"POSITION":12,"NORMAL":13,"TEXCOORD_0":14},"indices":15,"material":3},{"attributes":{"POSITION":16,"NORMAL":17,"TEXCOORD_0":18},"indices":19,"material":4},{"attributes":{"POSITION":20,"NORMAL":21,"TEXCOORD_0":22},"indices":23,"material":5},{"attributes":{"POSITION":24,"NORMAL":25,"TEXCOORD_0":26},"indices":27,"material":6},{"attributes":{"POSITION":28,"NORMAL":29,"TEXCOORD_0":30},"indices":31,"material":7},{"attributes":{"POSITION":32,"NORMAL":33,"TEXCOORD_0":34},"indices":35,"material":8},{"attributes":{"POSITION":36,"NORMAL":37,"TEXCOORD_0":38},"indices":39,"material":9},{"attributes":{"POSITION":40,"NORMAL":41,"TEXCOORD_0":42},"indices":43,"material":10},{"attributes":{"POSITION":44,"NORMAL":45,"TEXCOORD_0":46},"indices":47,"material":11}]}],"textures":[{"sampler":0,"source":0},{"sampler":0,"source":1},{"sampler":0,"source":0},{"sampler":0,"source":1},{"sampler":0,"source":2},{"sampler":0,"source":3},{"sampler":0,"source":4},{"sampler":0,"source":5},{"sampler":0,"source":6},{"sampler":0,"source":7},{"sampler":0,"source":6},{"sampler":0,"source":7},{"sampler":0,"source":4},{"sampler":0,"source":5},{"sampler":0,"source":8},{"sampler":0,"source":9},{"sampler":0,"source":8},{"sampler":0,"source":9},{"sampler":0,"source":10},{"sampler":0,"source":11}],"images":[{"mimeType":"image/png","name":"mat_masonry_n","uri":"../textures/mat_masonry_n.png"},{"mimeType":"image/png","name":"mat_masonry","uri":"../textures/mat_masonry.png"},{"mimeType":"image/png","name":"mat_plaster_n","uri":"../textures/mat_plaster_n.png"},{"mimeType":"image/png","name":"mat_plaster","uri":"../textures/mat_plaster.png"},{"mimeType":"image/png","name":"mat_timber_n","uri":"../textures/mat_timber_n.png"},{"mimeType":"image/png","name":"mat_timber","uri":"../textures/mat_timber.png"},{"mimeType":"image/png","name":"mat_shake_n","uri":"../textures/mat_shake_n.png"},{"mimeType":"image/png","name":"mat_shake","uri":"../textures/mat_shake.png"},{"mimeType":"image/png","name":"mat_shingle_n","uri":"../textures/mat_shingle_n.png"},{"mimeType":"image/png","name":"mat_shingle","uri":"../textures/mat_shingle.png"},{"mimeType":"image/png","name":"mat_bark_n","uri":"../textures/mat_bark_n.png"},{"mimeType":"image/png","name":"mat_bark","uri":"../textures/mat_bark.png"}],"accessors":[{"bufferView":0,"componentType":5126,"count":564,"max":[1.3978071212768555,2.630999803543091,1.4557440280914307],"min":[-1.4221928119659424,0,-1.1057440042495728],"type":"VEC3"},{"bufferView":1,"componentType":5126,"count":564,"type":"VEC3"},{"bufferView":2,"componentType":5126,"count":564,"type":"VEC2"},{"bufferView":3,"componentType":5123,"count":624,"type":"SCALAR"},{"bufferView":4,"componentType":5126,"count":120,"max":[1.242807388305664,2.675999879837036,0.9742560386657715],"min":[-1.3421926498413086,0.210999995470047,-1.0257439613342285],"type":"VEC3"},{"bufferView":5,"componentType":5126,"count":120,"type":"VEC3"},{"bufferView":6,"componentType":5126,"count":120,"type":"VEC2"},{"bufferView":7,"componentType":5123,"count":204,"type":"SCALAR"},{"bufferView":8,"componentType":5126,"count":24,"max":[-0.11219280958175659,1.3309998512268066,0.9042560458183289],"min":[-1.2721927165985107,0.6710000038146973,-0.9557439684867859],"type":"VEC3"},{"bufferView":9,"componentType":5126,"count":24,"type":"VEC3"},{"bufferView":10,"componentType":5126,"count":24,"type":"VEC2"},{"bufferView":11,"componentType":5123,"count":36,"type":"SCALAR"},{"bufferView":12,"componentType":5126,"count":360,"max":[1.3778071403503418,1.6709997653961182,0.9842560291290283],"min":[-1.3421926498413086,0.010999999940395355,-1.4557440280914307],"type":"VEC3"},{"bufferView":13,"componentType":5126,"count":360,"type":"VEC3"},{"bufferView":14,"componentType":5126,"count":360,"type":"VEC2"},{"bufferView":15,"componentType":5123,"count":540,"type":"SCALAR"},{"bufferView":16,"componentType":5126,"count":168,"max":[0.1734217405319214,2.380999803543091,1.1242561340332031],"min":[-1.557807207107544,1.302666425704956,-1.1757440567016602],"type":"VEC3"},{"bufferView":17,"componentType":5126,"count":168,"type":"VEC3"},{"bufferView":18,"componentType":5126,"count":168,"type":"VEC2"},{"bufferView":19,"componentType":5123,"count":252,"type":"SCALAR"},{"bufferView":20,"componentType":5126,"count":144,"max":[0.04008841514587402,2.393691301345825,1.1242561340332031],"min":[-1.424473762512207,1.4693331718444824,-1.1757440567016602],"type":"VEC3"},{"bufferView":21,"componentType":5126,"count":144,"type":"VEC3"},{"bufferView":22,"componentType":5126,"count":144,"type":"VEC2"},{"bufferView":23,"componentType":5123,"count":216,"type":"SCALAR"},{"bufferView":24,"componentType":5126,"count":156,"max":[0.8278072476387024,0.8709999322891235,0.7942560315132141],"min":[-0.8821927309036255,0.010999999940395355,-1.4057440757751465],"type":"VEC3"},{"bufferView":25,"componentType":5126,"count":156,"type":"VEC3"},{"bufferView":26,"componentType":5126,"count":156,"type":"VEC2"},{"bufferView":27,"componentType":5123,"count":252,"type":"SCALAR"},{"bufferView":28,"componentType":5126,"count":468,"max":[1.508089542388916,1.0509998798370361,0.9742559790611267],"min":[-0.8321927189826965,0,-1.2743535041809082],"type":"VEC3"},{"bufferView":29,"componentType":5126,"count":468,"type":"VEC3"},{"bufferView":30,"componentType":5126,"count":468,"type":"VEC2"},{"bufferView":31,"componentType":5123,"count":492,"type":"SCALAR"},{"bufferView":32,"componentType":5126,"count":120,"max":[1.4478070735931396,1.7815885543823242,0.9914389848709106],"min":[0.047807276248931885,1.3604111671447754,-1.0429269075393677],"type":"VEC3"},{"bufferView":33,"componentType":5126,"count":120,"type":"VEC3"},{"bufferView":34,"componentType":5126,"count":120,"type":"VEC2"},{"bufferView":35,"componentType":5123,"count":180,"type":"SCALAR"},{"bufferView":36,"componentType":5126,"count":96,"max":[1.4478070735931396,1.7415883541107178,0.773661196231842],"min":[0.047807276248931885,1.4004113674163818,-0.8251491189002991],"type":"VEC3"},{"bufferView":37,"componentType":5126,"count":96,"type":"VEC3"},{"bufferView":38,"componentType":5126,"count":96,"type":"VEC2"},{"bufferView":39,"componentType":5123,"count":144,"type":"SCALAR"},{"bufferView":40,"componentType":5126,"count":294,"max":[1.5578069686889648,0.5109999179840088,1.4230059385299683],"min":[0.4997822642326355,0.010999985039234161,-0.4957439601421356],"type":"VEC3"},{"bufferView":41,"componentType":5126,"count":294,"type":"VEC3"},{"bufferView":42,"componentType":5126,"count":294,"type":"VEC2"},{"bufferView":43,"componentType":5123,"count":516,"type":"SCALAR"},{"bufferView":44,"componentType":5126,"count":144,"max":[1.3478071689605713,0.8885693550109863,-0.02123636193573475],"min":[0.5628072619438171,0.21343058347702026,-0.6257439851760864],"type":"VEC3"},{"bufferView":45,"componentType":5126,"count":144,"type":"VEC3"},{"bufferView":46,"componentType":5126,"count":144,"type":"VEC2"},{"bufferView":47,"componentType":5123,"count":216,"type":"SCALAR"}],"bufferViews":[{"buffer":0,"byteLength":6768,"byteOffset":0,"target":34962},{"buffer":0,"byteLength":6768,"byteOffset":6768,"target":34962},{"buffer":0,"byteLength":4512,"byteOffset":13536,"target":34962},{"buffer":0,"byteLength":1248,"byteOffset":18048,"target":34963},{"buffer":0,"byteLength":1440,"byteOffset":19296,"target":34962},{"buffer":0,"byteLength":1440,"byteOffset":20736,"target":34962},{"buffer":0,"byteLength":960,"byteOffset":22176,"target":34962},{"buffer":0,"byteLength":408,"byteOffset":23136,"target":34963},{"buffer":0,"byteLength":288,"byteOffset":23544,"target":34962},{"buffer":0,"byteLength":288,"byteOffset":23832,"target":34962},{"buffer":0,"byteLength":192,"byteOffset":24120,"target":34962},{"buffer":0,"byteLength":72,"byteOffset":24312,"target":34963},{"buffer":0,"byteLength":4320,"byteOffset":24384,"target":34962},{"buffer":0,"byteLength":4320,"byteOffset":28704,"target":34962},{"buffer":0,"byteLength":2880,"byteOffset":33024,"target":34962},{"buffer":0,"byteLength":1080,"byteOffset":35904,"target":34963},{"buffer":0,"byteLength":2016,"byteOffset":36984,"target":34962},{"buffer":0,"byteLength":2016,"byteOffset":39000,"target":34962},{"buffer":0,"byteLength":1344,"byteOffset":41016,"target":34962},{"buffer":0,"byteLength":504,"byteOffset":42360,"target":34963},{"buffer":0,"byteLength":1728,"byteOffset":42864,"target":34962},{"buffer":0,"byteLength":1728,"byteOffset":44592,"target":34962},{"buffer":0,"byteLength":1152,"byteOffset":46320,"target":34962},{"buffer":0,"byteLength":432,"byteOffset":47472,"target":34963},{"buffer":0,"byteLength":1872,"byteOffset":47904,"target":34962},{"buffer":0,"byteLength":1872,"byteOffset":49776,"target":34962},{"buffer":0,"byteLength":1248,"byteOffset":51648,"target":34962},{"buffer":0,"byteLength":504,"byteOffset":52896,"target":34963},{"buffer":0,"byteLength":5616,"byteOffset":53400,"target":34962},{"buffer":0,"byteLength":5616,"byteOffset":59016,"target":34962},{"buffer":0,"byteLength":3744,"byteOffset":64632,"target":34962},{"buffer":0,"byteLength":984,"byteOffset":68376,"target":34963},{"buffer":0,"byteLength":1440,"byteOffset":69360,"target":34962},{"buffer":0,"byteLength":1440,"byteOffset":70800,"target":34962},{"buffer":0,"byteLength":960,"byteOffset":72240,"target":34962},{"buffer":0,"byteLength":360,"byteOffset":73200,"target":34963},{"buffer":0,"byteLength":1152,"byteOffset":73560,"target":34962},{"buffer":0,"byteLength":1152,"byteOffset":74712,"target":34962},{"buffer":0,"byteLength":768,"byteOffset":75864,"target":34962},{"buffer":0,"byteLength":288,"byteOffset":76632,"target":34963},{"buffer":0,"byteLength":3528,"byteOffset":76920,"target":34962},{"buffer":0,"byteLength":3528,"byteOffset":80448,"target":34962},{"buffer":0,"byteLength":2352,"byteOffset":83976,"target":34962},{"buffer":0,"byteLength":1032,"byteOffset":86328,"target":34963},{"buffer":0,"byteLength":1728,"byteOffset":87360,"target":34962},{"buffer":0,"byteLength":1728,"byteOffset":89088,"target":34962},{"buffer":0,"byteLength":1152,"byteOffset":90816,"target":34962},{"buffer":0,"byteLength":432,"byteOffset":91968,"target":34963}],"samplers":[{"magFilter":9729,"minFilter":9987}],"buffers":[{"byteLength":92400,"uri":"blacksmith.bin"}]}