{"asset":{"generator":"Khronos glTF Blender I/O v4.5.51","version":"2.0"},"scene":0,"scenes":[{"name":"Scene","nodes":[0]}],"nodes":[{"mesh":0,"name":"Boat"}],"materials":[{"doubleSided":true,"name":"TimberDark","normalTexture":{"index":0,"scale":0.800000011920929},"pbrMetallicRoughness":{"baseColorTexture":{"index":1},"metallicFactor":0,"roughnessFactor":0.699999988079071}},{"doubleSided":true,"name":"Timber","normalTexture":{"index":2,"scale":0.800000011920929},"pbrMetallicRoughness":{"baseColorTexture":{"index":3},"metallicFactor":0,"roughnessFactor":0.7200000286102295}},{"doubleSided":true,"name":"Cloth","pbrMetallicRoughness":{"baseColorFactor":[0.6239603757858276,0.5457244515419006,0.4019777774810791,1],"metallicFactor":0,"roughnessFactor":0.8799999952316284}}],"meshes":[{"name":"Cube","primitives":[{"attributes":{"POSITION":0,"NORMAL":1,"TEXCOORD_0":2},"indices":3,"material":0},{"attributes":{"POSITION":4,"NORMAL":5,"TEXCOORD_0":6},"indices":7,"material":1},{"attributes":{"POSITION":8,"NORMAL":9,"TEXCOORD_0":10},"indices":11,"material":2}]}],"textures":[{"sampler":0,"source":0},{"sampler":0,"source":1},{"sampler":0,"source":0},{"sampler":0,"source":1}],"images":[{"mimeType":"image/png","name":"mat_timber_n","uri":"../textures/mat_timber_n.png"},{"mimeType":"image/png","name":"mat_timber","uri":"../textures/mat_timber.png"}],"accessors":[{"bufferView":0,"componentType":5126,"count":1488,"max":[0.5799999833106995,1.870531439781189,1.0499999523162842],"min":[-0.5799999833106995,0.02053142338991165,-1.0499999523162842],"type":"VEC3"},{"bufferView":1,"componentType":5126,"count":1488,"type":"VEC3"},{"bufferView":2,"componentType":5126,"count":1488,"type":"VEC2"},{"bufferView":3,"componentType":5123,"count":2064,"type":"SCALAR"},{"bufferView":4,"componentType":5126,"count":1680,"max":[0.49000000953674316,0.7435314059257507,1.1805315017700195],"min":[-0.45540159940719604,0,-1.1805315017700195],"type":"VEC3"},{"bufferView":5,"componentType":5126,"count":1680,"type":"VEC3"},{"bufferView":6,"componentType":5126,"count":1680,"type":"VEC2"},{"bufferView":7,"componentType":5123,"count":2328,"type":"SCALAR"},{"bufferView":8,"componentType":5126,"count":384,"max":[0.5509626865386963,1.8005313873291016,-0.1600000113248825],"min":[-0.5509626865386963,0.3391791880130768,-0.9734028577804565],"type":"VEC3"},{"bufferView":9,"componentType":5126,"count":384,"type":"VEC3"},{"bufferView":10,"componentType":5126,"count":384,"type":"VEC2"},{"bufferView":11,"componentType":5123,"count":528,"type":"SCALAR"}],"bufferViews":[{"buffer":0,"byteLength":17856,"byteOffset":0,"target":34962},{"buffer":0,"byteLength":17856,"byteOffset":17856,"target":34962},{"buffer":0,"byteLength":11904,"byteOffset":35712,"target":34962},{"buffer":0,"byteLength":4128,"byteOffset":47616,"target":34963},{"buffer":0,"byteLength":20160,"byteOffset":51744,"target":34962},{"buffer":0,"byteLength":20160,"byteOffset":71904,"target":34962},{"buffer":0,"byteLength":13440,"byteOffset":92064,"target":34962},{"buffer":0,"byteLength":4656,"byteOffset":105504,"target":34963},{"buffer":0,"byteLength":4608,"byteOffset":110160,"target":34962},{"buffer":0,"byteLength":4608,"byteOffset":114768,"target":34962},{"buffer":0,"byteLength":3072,"byteOffset":119376,"target":34962},{"buffer":0,"byteLength":1056,"byteOffset":122448,"target":34963}],"samplers":[{"magFilter":9729,"minFilter":9987}],"buffers":[{"byteLength":123504,"uri":"boat.bin"}]}