{"asset":{"generator":"Khronos glTF Blender I/O v4.5.51","version":"2.0"},"scene":0,"scenes":[{"name":"Scene","nodes":[0]}],"nodes":[{"mesh":0,"name":"Cathedral"}],"materials":[{"doubleSided":true,"name":"StoneDark","normalTexture":{"index":0,"scale":0.800000011920929},"pbrMetallicRoughness":{"baseColorTexture":{"index":1},"metallicFactor":0,"roughnessFactor":0.8600000143051147}},{"doubleSided":true,"name":"Stone","normalTexture":{"index":2,"scale":0.800000011920929},"pbrMetallicRoughness":{"baseColorTexture":{"index":3},"metallicFactor":0,"roughnessFactor":0.8799999952316284}},{"doubleSided":true,"name":"Slate","normalTexture":{"index":4,"scale":0.800000011920929},"pbrMetallicRoughness":{"baseColorTexture":{"index":5},"metallicFactor":0,"roughnessFactor":0.5199999809265137}},{"doubleSided":true,"name":"SlateLight","normalTexture":{"index":6,"scale":0.800000011920929},"pbrMetallicRoughness":{"baseColorTexture":{"index":7},"metallicFactor":0,"roughnessFactor":0.47999998927116394}},{"doubleSided":true,"name":"TimberDark","normalTexture":{"index":8,"scale":0.800000011920929},"pbrMetallicRoughness":{"baseColorTexture":{"index":9},"metallicFactor":0,"roughnessFactor":0.699999988079071}},{"doubleSided":true,"name":"Timber","normalTexture":{"index":10,"scale":0.800000011920929},"pbrMetallicRoughness":{"baseColorTexture":{"index":11},"metallicFactor":0,"roughnessFactor":0.7200000286102295}},{"doubleSided":true,"name":"Window","pbrMetallicRoughness":{"baseColorFactor":[0.023153366521000862,0.024157632142305374,0.03310476616024971,1],"metallicFactor":0,"roughnessFactor":0.3499999940395355}}],"meshes":[{"name":"Cube","primitives":[{"attributes":{"POSITION":0,"NORMAL":1,"TEXCOORD_0":2},"indices":3,"material":0},{"attributes":{"POSITION":4,"NORMAL":5,"TEXCOORD_0":6},"indices":7,"material":1},{"attributes":{"POSITION":8,"NORMAL":9,"TEXCOORD_0":10},"indices":11,"material":2},{"attributes":{"POSITION":12,"NORMAL":13,"TEXCOORD_0":14},"indices":15,"material":3},{"attributes":{"POSITION":16,"NORMAL":17,"TEXCOORD_0":18},"indices":19,"material":4},{"attributes":{"POSITION":20,"NORMAL":21,"TEXCOORD_0":22},"indices":23,"material":5},{"attributes":{"POSITION":24,"NORMAL":25,"TEXCOORD_0":26},"indices":27,"material":6}]}],"textures":[{"sampler":0,"source":0},{"sampler":0,"source":1},{"sampler":0,"source":0},{"sampler":0,"source":1},{"sampler":0,"source":2},{"sampler":0,"source":3},{"sampler":0,"source":2},{"sampler":0,"source":3},{"sampler":0,"source":4},{"sampler":0,"source":5},{"sampler":0,"source":4},{"sampler":0,"source":5}],"images":[{"mimeType":"image/png","name":"mat_masonry_n","uri":"../textures/mat_masonry_n.png"},{"mimeType":"image/png","name":"mat_masonry","uri":"../textures/mat_masonry.png"},{"mimeType":"image/png","name":"mat_shingle_n","uri":"../textures/mat_shingle_n.png"},{"mimeType":"image/png","name":"mat_shingle","uri":"../textures/mat_shingle.png"},{"mimeType":"image/png","name":"mat_timber_n","uri":"../textures/mat_timber_n.png"},{"mimeType":"image/png","name":"mat_timber","uri":"../textures/mat_timber.png"}],"accessors":[{"bufferView":0,"componentType":5126,"count":8608,"max":[2.8499996662139893,5.55778169631958,2.950000047683716],"min":[-2.8499996662139893,0,-2.950000047683716],"type":"VEC3"},{"bufferView":1,"componentType":5126,"count":8608,"type":"VEC3"},{"bufferView":2,"componentType":5126,"count":8608,"type":"VEC2"},{"bufferView":3,"componentType":5123,"count":11844,"type":"SCALAR"},{"bufferView":4,"componentType":5126,"count":1824,"max":[2.6999995708465576,4.899999141693115,2.8949997425079346],"min":[-2.6999995708465576,0.2999999523162842,-2.799999713897705],"type":"VEC3"},{"bufferView":5,"componentType":5126,"count":1824,"type":"VEC3"},{"bufferView":6,"componentType":5126,"count":1824,"type":"VEC2"},{"bufferView":7,"componentType":5123,"count":2508,"type":"SCALAR"},{"bufferView":8,"componentType":5126,"count":2368,"max":[2.892533302307129,7.263097286224365,2.93999981880188],"min":[-2.892533302307129,2.5760550498962402,-2.93999981880188],"type":"VEC3"},{"bufferView":9,"componentType":5126,"count":2368,"type":"VEC3"},{"bufferView":10,"componentType":5126,"count":2368,"type":"VEC2"},{"bufferView":11,"componentType":5123,"count":3252,"type":"SCALAR"},{"bufferView":12,"componentType":5126,"count":2112,"max":[2.68967604637146,3.814999580383301,2.93999981880188],"min":[-2.68967604637146,2.6599080562591553,-2.93999981880188],"type":"VEC3"},{"bufferView":13,"componentType":5126,"count":2112,"type":"VEC3"},{"bufferView":14,"componentType":5126,"count":2112,"type":"VEC2"},{"bufferView":15,"componentType":5123,"count":2904,"type":"SCALAR"},{"bufferView":16,"componentType":5126,"count":96,"max":[0.38999995589256287,1.4999998807907104,2.809999942779541],"min":[-0.38999995589256287,0.2999998927116394,2.7099997997283936],"type":"VEC3"},{"bufferView":17,"componentType":5126,"count":96,"type":"VEC3"},{"bufferView":18,"componentType":5126,"count":96,"type":"VEC2"},{"bufferView":19,"componentType":5123,"count":132,"type":"SCALAR"},{"bufferView":20,"componentType":5126,"count":1824,"max":[2.7100000381469727,4.046799659729004,2.8199996948242188],"min":[-2.7100000381469727,0.8495998382568359,-2.363800048828125],"type":"VEC3"},{"bufferView":21,"componentType":5126,"count":1824,"type":"VEC3"},{"bufferView":22,"componentType":5126,"count":1824,"type":"VEC2"},{"bufferView":23,"componentType":5123,"count":2508,"type":"SCALAR"},{"bufferView":24,"componentType":5126,"count":1728,"max":[2.6999995708465576,3.9599997997283936,2.0799999237060547],"min":[-2.6999995708465576,0.9699997901916504,-2.3299999237060547],"type":"VEC3"},{"bufferView":25,"componentType":5126,"count":1728,"type":"VEC3"},{"bufferView":26,"componentType":5126,"count":1728,"type":"VEC2"},{"bufferView":27,"componentType":5123,"count":2376,"type":"SCALAR"}],"bufferViews":[{"buffer":0,"byteLength":103296,"byteOffset":0,"target":34962},{"buffer":0,"byteLength":103296,"byteOffset":103296,"target":34962},{"buffer":0,"byteLength":68864,"byteOffset":206592,"target":34962},{"buffer":0,"byteLength":23688,"byteOffset":275456,"target":34963},{"buffer":0,"byteLength":21888,"byteOffset":299144,"target":34962},{"buffer":0,"byteLength":21888,"byteOffset":321032,"target":34962},{"buffer":0,"byteLength":14592,"byteOffset":342920,"target":34962},{"buffer":0,"byteLength":5016,"byteOffset":357512,"target":34963},{"buffer":0,"byteLength":28416,"byteOffset":362528,"target":34962},{"buffer":0,"byteLength":28416,"byteOffset":390944,"target":34962},{"buffer":0,"byteLength":18944,"byteOffset":419360,"target":34962},{"buffer":0,"byteLength":6504,"byteOffset":438304,"target":34963},{"buffer":0,"byteLength":25344,"byteOffset":444808,"target":34962},{"buffer":0,"byteLength":25344,"byteOffset":470152,"target":34962},{"buffer":0,"byteLength":16896,"byteOffset":495496,"target":34962},{"buffer":0,"byteLength":5808,"byteOffset":512392,"target":34963},{"buffer":0,"byteLength":1152,"byteOffset":518200,"target":34962},{"buffer":0,"byteLength":1152,"byteOffset":519352,"target":34962},{"buffer":0,"byteLength":768,"byteOffset":520504,"target":34962},{"buffer":0,"byteLength":264,"byteOffset":521272,"target":34963},{"buffer":0,"byteLength":21888,"byteOffset":521536,"target":34962},{"buffer":0,"byteLength":21888,"byteOffset":543424,"target":34962},{"buffer":0,"byteLength":14592,"byteOffset":565312,"target":34962},{"buffer":0,"byteLength":5016,"byteOffset":579904,"target":34963},{"buffer":0,"byteLength":20736,"byteOffset":584920,"target":34962},{"buffer":0,"byteLength":20736,"byteOffset":605656,"target":34962},{"buffer":0,"byteLength":13824,"byteOffset":626392,"target":34962},{"buffer":0,"byteLength":4752,"byteOffset":640216,"target":34963}],"samplers":[{"magFilter":9729,"minFilter":9987}],"buffers":[{"byteLength":644968,"uri":"cathedral.bin"}]}