{"asset":{"generator":"Khronos glTF Blender I/O v4.5.51","version":"2.0"},"scene":0,"scenes":[{"name":"Scene","nodes":[0]}],"nodes":[{"mesh":0,"name":"Cemetery"}],"materials":[{"doubleSided":true,"name":"FoliageDark","normalTexture":{"index":0,"scale":0.800000011920929},"pbrMetallicRoughness":{"baseColorTexture":{"index":1},"metallicFactor":0,"roughnessFactor":0.8199999928474426}},{"doubleSided":true,"name":"Stone","normalTexture":{"index":2,"scale":0.800000011920929},"pbrMetallicRoughness":{"baseColorTexture":{"index":3},"metallicFactor":0,"roughnessFactor":0.8799999952316284}},{"doubleSided":true,"name":"Timber","normalTexture":{"index":4,"scale":0.800000011920929},"pbrMetallicRoughness":{"baseColorTexture":{"index":5},"metallicFactor":0,"roughnessFactor":0.7200000286102295}},{"doubleSided":true,"name":"Slate","normalTexture":{"index":6,"scale":0.800000011920929},"pbrMetallicRoughness":{"baseColorTexture":{"index":7},"metallicFactor":0,"roughnessFactor":0.5199999809265137}},{"doubleSided":true,"name":"SlateLight","normalTexture":{"index":8,"scale":0.800000011920929},"pbrMetallicRoughness":{"baseColorTexture":{"index":9},"metallicFactor":0,"roughnessFactor":0.47999998927116394}},{"doubleSided":true,"name":"StoneDark","normalTexture":{"index":10,"scale":0.800000011920929},"pbrMetallicRoughness":{"baseColorTexture":{"index":11},"metallicFactor":0,"roughnessFactor":0.8600000143051147}},{"doubleSided":true,"name":"Bark","normalTexture":{"index":12,"scale":0.800000011920929},"pbrMetallicRoughness":{"baseColorTexture":{"index":13},"metallicFactor":0,"roughnessFactor":0.8999999761581421}},{"doubleSided":true,"name":"Foliage","normalTexture":{"index":14,"scale":0.800000011920929},"pbrMetallicRoughness":{"baseColorTexture":{"index":15},"metallicFactor":0,"roughnessFactor":0.800000011920929}}],"meshes":[{"name":"Cube","primitives":[{"attributes":{"POSITION":0,"NORMAL":1,"TEXCOORD_0":2},"indices":3,"material":0},{"attributes":{"POSITION":4,"NORMAL":5,"TEXCOORD_0":6},"indices":7,"material":1},{"attributes":{"POSITION":8,"NORMAL":9,"TEXCOORD_0":10},"indices":11,"material":2},{"attributes":{"POSITION":12,"NORMAL":13,"TEXCOORD_0":14},"indices":15,"material":3},{"attributes":{"POSITION":16,"NORMAL":17,"TEXCOORD_0":18},"indices":19,"material":4},{"attributes":{"POSITION":20,"NORMAL":21,"TEXCOORD_0":22},"indices":23,"material":5},{"attributes":{"POSITION":24,"NORMAL":25,"TEXCOORD_0":26},"indices":27,"material":6},{"attributes":{"POSITION":28,"NORMAL":29,"TEXCOORD_0":30},"indices":31,"material":7}]}],"textures":[{"sampler":0,"source":0},{"sampler":0,"source":1},{"sampler":0,"source":2},{"sampler":0,"source":3},{"sampler":0,"source":4},{"sampler":0,"source":5},{"sampler":0,"source":6},{"sampler":0,"source":7},{"sampler":0,"source":6},{"sampler":0,"source":7},{"sampler":0,"source":2},{"sampler":0,"source":3},{"sampler":0,"source":8},{"sampler":0,"source":9},{"sampler":0,"source":0},{"sampler":0,"source":1}],"images":[{"mimeType":"image/png","name":"mat_foliage_n","uri":"../textures/mat_foliage_n.png"},{"mimeType":"image/png","name":"mat_foliage","uri":"../textures/mat_foliage.png"},{"mimeType":"image/png","name":"mat_masonry_n","uri":"../textures/mat_masonry_n.png"},{"mimeType":"image/png","name":"mat_masonry","uri":"../textures/mat_masonry.png"},{"mimeType":"image/png","name":"mat_timber_n","uri":"../textures/mat_timber_n.png"},{"mimeType":"image/png","name":"mat_timber","uri":"../textures/mat_timber.png"},{"mimeType":"image/png","name":"mat_shingle_n","uri":"../textures/mat_shingle_n.png"},{"mimeType":"image/png","name":"mat_shingle","uri":"../textures/mat_shingle.png"},{"mimeType":"image/png","name":"mat_bark_n","uri":"../textures/mat_bark_n.png"},{"mimeType":"image/png","name":"mat_bark","uri":"../textures/mat_bark.png"}],"accessors":[{"bufferView":0,"componentType":5126,"count":84,"max":[0.9283275604248047,0.7440000176429749,1],"min":[-0.9100000262260437,0,-0.8200000524520874],"type":"VEC3"},{"bufferView":1,"componentType":5126,"count":84,"type":"VEC3"},{"bufferView":2,"componentType":5126,"count":84,"type":"VEC2"},{"bufferView":3,"componentType":5123,"count":96,"type":"SCALAR"},{"bufferView":4,"componentType":5126,"count":360,"max":[1.0000001192092896,0.6721876263618469,1.0900001525878906],"min":[-1.0000001192092896,0,-0.9100001454353333],"type":"VEC3"},{"bufferView":5,"componentType":5126,"count":360,"type":"VEC3"},{"bufferView":6,"componentType":5126,"count":360,"type":"VEC2"},{"bufferView":7,"componentType":5123,"count":564,"type":"SCALAR"},{"bufferView":8,"componentType":5126,"count":96,"max":[0.3450000584125519,0.8600000143051147,-0.7250000834465027],"min":[-0.3450000584125519,0,-0.955000102519989],"type":"VEC3"},{"bufferView":9,"componentType":5126,"count":96,"type":"VEC3"},{"bufferView":10,"componentType":5126,"count":96,"type":"VEC2"},{"bufferView":11,"componentType":5123,"count":144,"type":"SCALAR"},{"bufferView":12,"componentType":5126,"count":120,"max":[0.5275868773460388,1.2435963153839111,-0.5900000333786011],"min":[-0.5275868773460388,0.841866672039032,-1.0900001525878906],"type":"VEC3"},{"bufferView":13,"componentType":5126,"count":120,"type":"VEC3"},{"bufferView":14,"componentType":5126,"count":120,"type":"VEC2"},{"bufferView":15,"componentType":5123,"count":180,"type":"SCALAR"},{"bufferView":16,"componentType":5126,"count":48,"max":[0.37092018127441406,1.1369296312332153,-0.5900000333786011],"min":[-0.37092018127441406,0.9485334157943726,-1.0900001525878906],"type":"VEC3"},{"bufferView":17,"componentType":5126,"count":48,"type":"VEC3"},{"bufferView":18,"componentType":5126,"count":48,"type":"VEC2"},{"bufferView":19,"componentType":5123,"count":72,"type":"SCALAR"},{"bufferView":20,"componentType":5126,"count":240,"max":[0.7350163459777832,0.6732479929924011,0.6982386708259583],"min":[-0.7300000786781311,0.06600665301084518,-0.3301060199737549],"type":"VEC3"},{"bufferView":21,"componentType":5126,"count":240,"type":"VEC3"},{"bufferView":22,"componentType":5126,"count":240,"type":"VEC2"},{"bufferView":23,"componentType":5123,"count":384,"type":"SCALAR"},{"bufferView":24,"componentType":5126,"count":42,"max":[0.718495786190033,0.4099999666213989,-0.4359419345855713],"min":[0.601504385471344,0.06999998539686203,-0.5500000715255737],"type":"VEC3"},{"bufferView":25,"componentType":5126,"count":42,"type":"VEC3"},{"bufferView":26,"componentType":5126,"count":42,"type":"VEC2"},{"bufferView":27,"componentType":5123,"count":72,"type":"SCALAR"},{"bufferView":28,"componentType":5126,"count":60,"max":[0.8746621012687683,0.9172000885009766,-0.285846471786499],"min":[0.44533810019493103,0.5428000688552856,-0.6941536664962769],"type":"VEC3"},{"bufferView":29,"componentType":5126,"count":60,"type":"VEC3"},{"bufferView":30,"componentType":5126,"count":60,"type":"VEC2"},{"bufferView":31,"componentType":5123,"count":60,"type":"SCALAR"}],"bufferViews":[{"buffer":0,"byteLength":1008,"byteOffset":0,"target":34962},{"buffer":0,"byteLength":1008,"byteOffset":1008,"target":34962},{"buffer":0,"byteLength":672,"byteOffset":2016,"target":34962},{"buffer":0,"byteLength":192,"byteOffset":2688,"target":34963},{"buffer":0,"byteLength":4320,"byteOffset":2880,"target":34962},{"buffer":0,"byteLength":4320,"byteOffset":7200,"target":34962},{"buffer":0,"byteLength":2880,"byteOffset":11520,"target":34962},{"buffer":0,"byteLength":1128,"byteOffset":14400,"target":34963},{"buffer":0,"byteLength":1152,"byteOffset":15528,"target":34962},{"buffer":0,"byteLength":1152,"byteOffset":16680,"target":34962},{"buffer":0,"byteLength":768,"byteOffset":17832,"target":34962},{"buffer":0,"byteLength":288,"byteOffset":18600,"target":34963},{"buffer":0,"byteLength":1440,"byteOffset":18888,"target":34962},{"buffer":0,"byteLength":1440,"byteOffset":20328,"target":34962},{"buffer":0,"byteLength":960,"byteOffset":21768,"target":34962},{"buffer":0,"byteLength":360,"byteOffset":22728,"target":34963},{"buffer":0,"byteLength":576,"byteOffset":23088,"target":34962},{"buffer":0,"byteLength":576,"byteOffset":23664,"target":34962},{"buffer":0,"byteLength":384,"byteOffset":24240,"target":34962},{"buffer":0,"byteLength":144,"byteOffset":24624,"target":34963},{"buffer":0,"byteLength":2880,"byteOffset":24768,"target":34962},{"buffer":0,"byteLength":2880,"byteOffset":27648,"target":34962},{"buffer":0,"byteLength":1920,"byteOffset":30528,"target":34962},{"buffer":0,"byteLength":768,"byteOffset":32448,"target":34963},{"buffer":0,"byteLength":504,"byteOffset":33216,"target":34962},{"buffer":0,"byteLength":504,"byteOffset":33720,"target":34962},{"buffer":0,"byteLength":336,"byteOffset":34224,"target":34962},{"buffer":0,"byteLength":144,"byteOffset":34560,"target":34963},{"buffer":0,"byteLength":720,"byteOffset":34704,"target":34962},{"buffer":0,"byteLength":720,"byteOffset":35424,"target":34962},{"buffer":0,"byteLength":480,"byteOffset":36144,"target":34962},{"buffer":0,"byteLength":120,"byteOffset":36624,"target":34963}],"samplers":[{"magFilter":9729,"minFilter":9987}],"buffers":[{"byteLength":36744,"uri":"cemetery.bin"}]}