{"asset":{"generator":"Khronos glTF Blender I/O v4.5.51","version":"2.0"},"scene":0,"scenes":[{"name":"Scene","nodes":[0]}],"nodes":[{"mesh":0,"name":"Chapel"}],"materials":[{"doubleSided":true,"name":"StoneDark","normalTexture":{"index":0,"scale":0.800000011920929},"pbrMetallicRoughness":{"baseColorTexture":{"index":1},"metallicFactor":0,"roughnessFactor":0.8600000143051147}},{"doubleSided":true,"name":"Stone","normalTexture":{"index":2,"scale":0.800000011920929},"pbrMetallicRoughness":{"baseColorTexture":{"index":3},"metallicFactor":0,"roughnessFactor":0.8799999952316284}},{"doubleSided":true,"name":"Slate","normalTexture":{"index":4,"scale":0.800000011920929},"pbrMetallicRoughness":{"baseColorTexture":{"index":5},"metallicFactor":0,"roughnessFactor":0.5199999809265137}},{"doubleSided":true,"name":"SlateLight","normalTexture":{"index":6,"scale":0.800000011920929},"pbrMetallicRoughness":{"baseColorTexture":{"index":7},"metallicFactor":0,"roughnessFactor":0.47999998927116394}},{"doubleSided":true,"name":"Metal","pbrMetallicRoughness":{"baseColorFactor":[0.06847816705703735,0.07036009430885315,0.0802198201417923,1],"metallicFactor":0,"roughnessFactor":0.41999998688697815}},{"doubleSided":true,"name":"Window","pbrMetallicRoughness":{"baseColorFactor":[0.023153366521000862,0.024157632142305374,0.03310476616024971,1],"metallicFactor":0,"roughnessFactor":0.3499999940395355}},{"doubleSided":true,"name":"TimberDark","normalTexture":{"index":8,"scale":0.800000011920929},"pbrMetallicRoughness":{"baseColorTexture":{"index":9},"metallicFactor":0,"roughnessFactor":0.699999988079071}},{"doubleSided":true,"name":"Timber","normalTexture":{"index":10,"scale":0.800000011920929},"pbrMetallicRoughness":{"baseColorTexture":{"index":11},"metallicFactor":0,"roughnessFactor":0.7200000286102295}}],"meshes":[{"name":"Cube","primitives":[{"attributes":{"POSITION":0,"NORMAL":1,"TEXCOORD_0":2},"indices":3,"material":0},{"attributes":{"POSITION":4,"NORMAL":5,"TEXCOORD_0":6},"indices":7,"material":1},{"attributes":{"POSITION":8,"NORMAL":9,"TEXCOORD_0":10},"indices":11,"material":2},{"attributes":{"POSITION":12,"NORMAL":13,"TEXCOORD_0":14},"indices":15,"material":3},{"attributes":{"POSITION":16,"NORMAL":17,"TEXCOORD_0":18},"indices":19,"material":4},{"attributes":{"POSITION":20,"NORMAL":21,"TEXCOORD_0":22},"indices":23,"material":5},{"attributes":{"POSITION":24,"NORMAL":25,"TEXCOORD_0":26},"indices":19,"material":6},{"attributes":{"POSITION":27,"NORMAL":28,"TEXCOORD_0":29},"indices":19,"material":7}]}],"textures":[{"sampler":0,"source":0},{"sampler":0,"source":1},{"sampler":0,"source":0},{"sampler":0,"source":1},{"sampler":0,"source":2},{"sampler":0,"source":3},{"sampler":0,"source":2},{"sampler":0,"source":3},{"sampler":0,"source":4},{"sampler":0,"source":5},{"sampler":0,"source":4},{"sampler":0,"source":5}],"images":[{"mimeType":"image/png","name":"mat_masonry_n","uri":"../textures/mat_masonry_n.png"},{"mimeType":"image/png","name":"mat_masonry","uri":"../textures/mat_masonry.png"},{"mimeType":"image/png","name":"mat_shingle_n","uri":"../textures/mat_shingle_n.png"},{"mimeType":"image/png","name":"mat_shingle","uri":"../textures/mat_shingle.png"},{"mimeType":"image/png","name":"mat_timber_n","uri":"../textures/mat_timber_n.png"},{"mimeType":"image/png","name":"mat_timber","uri":"../textures/mat_timber.png"}],"accessors":[{"bufferView":0,"componentType":5126,"count":2400,"max":[1.9999998807907104,4.180000305175781,2.6549999713897705],"min":[-1.9999998807907104,0,-2.6750001907348633],"type":"VEC3"},{"bufferView":1,"componentType":5126,"count":2400,"type":"VEC3"},{"bufferView":2,"componentType":5126,"count":2400,"type":"VEC2"},{"bufferView":3,"componentType":5123,"count":3588,"type":"SCALAR"},{"bufferView":4,"componentType":5126,"count":672,"max":[1.96999990940094,4.460000514984131,2.575000047683716],"min":[-1.96999990940094,0,-2.4850001335144043],"type":"VEC3"},{"bufferView":5,"componentType":5126,"count":672,"type":"VEC3"},{"bufferView":6,"componentType":5126,"count":672,"type":"VEC2"},{"bufferView":7,"componentType":5123,"count":936,"type":"SCALAR"},{"bufferView":8,"componentType":5126,"count":328,"max":[1.8615847826004028,6.360000133514404,2.6750001907348633],"min":[-1.8615847826004028,2.118363857269287,-2.122415542602539],"type":"VEC3"},{"bufferView":9,"componentType":5126,"count":328,"type":"VEC3"},{"bufferView":10,"componentType":5126,"count":328,"type":"VEC2"},{"bufferView":11,"componentType":5123,"count":486,"type":"SCALAR"},{"bufferView":12,"componentType":5126,"count":240,"max":[1.6979484558105469,3.4777779579162598,2.6750001907348633],"min":[-1.6979484558105469,2.245636463165283,-0.6250001192092896],"type":"VEC3"},{"bufferView":13,"componentType":5126,"count":240,"type":"VEC3"},{"bufferView":14,"componentType":5126,"count":240,"type":"VEC2"},{"bufferView":15,"componentType":5123,"count":360,"type":"SCALAR"},{"bufferView":16,"componentType":5126,"count":24,"max":[0.044999998062849045,6.680000305175781,-1.2600001096725464],"min":[-0.044999998062849045,6.320000171661377,-1.350000023841858],"type":"VEC3"},{"bufferView":17,"componentType":5126,"count":24,"type":"VEC3"},{"bufferView":18,"componentType":5126,"count":24,"type":"VEC2"},{"bufferView":19,"componentType":5123,"count":36,"type":"SCALAR"},{"bufferView":20,"componentType":5126,"count":264,"max":[1.7149999141693115,4.039999961853027,1.7350001335144043],"min":[-1.7149999141693115,0.800000011920929,-2.1750001907348633],"type":"VEC3"},{"bufferView":21,"componentType":5126,"count":264,"type":"VEC3"},{"bufferView":22,"componentType":5126,"count":264,"type":"VEC2"},{"bufferView":23,"componentType":5123,"count":396,"type":"SCALAR"},{"bufferView":24,"componentType":5126,"count":24,"max":[0.22999998927116394,1.1800000667572021,-2.065000534057617],"min":[-0.22999998927116394,0.23999999463558197,-2.1650004386901855],"type":"VEC3"},{"bufferView":25,"componentType":5126,"count":24,"type":"VEC3"},{"bufferView":26,"componentType":5126,"count":24,"type":"VEC2"},{"bufferView":27,"componentType":5126,"count":24,"max":[0.30820000171661377,1.28000009059906,-2.0550003051757812],"min":[-0.30820000171661377,1.1800000667572021,-2.1750001907348633],"type":"VEC3"},{"bufferView":28,"componentType":5126,"count":24,"type":"VEC3"},{"bufferView":29,"componentType":5126,"count":24,"type":"VEC2"}],"bufferViews":[{"buffer":0,"byteLength":28800,"byteOffset":0,"target":34962},{"buffer":0,"byteLength":28800,"byteOffset":28800,"target":34962},{"buffer":0,"byteLength":19200,"byteOffset":57600,"target":34962},{"buffer":0,"byteLength":7176,"byteOffset":76800,"target":34963},{"buffer":0,"byteLength":8064,"byteOffset":83976,"target":34962},{"buffer":0,"byteLength":8064,"byteOffset":92040,"target":34962},{"buffer":0,"byteLength":5376,"byteOffset":100104,"target":34962},{"buffer":0,"byteLength":1872,"byteOffset":105480,"target":34963},{"buffer":0,"byteLength":3936,"byteOffset":107352,"target":34962},{"buffer":0,"byteLength":3936,"byteOffset":111288,"target":34962},{"buffer":0,"byteLength":2624,"byteOffset":115224,"target":34962},{"buffer":0,"byteLength":972,"byteOffset":117848,"target":34963},{"buffer":0,"byteLength":2880,"byteOffset":118820,"target":34962},{"buffer":0,"byteLength":2880,"byteOffset":121700,"target":34962},{"buffer":0,"byteLength":1920,"byteOffset":124580,"target":34962},{"buffer":0,"byteLength":720,"byteOffset":126500,"target":34963},{"buffer":0,"byteLength":288,"byteOffset":127220,"target":34962},{"buffer":0,"byteLength":288,"byteOffset":127508,"target":34962},{"buffer":0,"byteLength":192,"byteOffset":127796,"target":34962},{"buffer":0,"byteLength":72,"byteOffset":127988,"target":34963},{"buffer":0,"byteLength":3168,"byteOffset":128060,"target":34962},{"buffer":0,"byteLength":3168,"byteOffset":131228,"target":34962},{"buffer":0,"byteLength":2112,"byteOffset":134396,"target":34962},{"buffer":0,"byteLength":792,"byteOffset":136508,"target":34963},{"buffer":0,"byteLength":288,"byteOffset":137300,"target":34962},{"buffer":0,"byteLength":288,"byteOffset":137588,"target":34962},{"buffer":0,"byteLength":192,"byteOffset":137876,"target":34962},{"buffer":0,"byteLength":288,"byteOffset":138068,"target":34962},{"buffer":0,"byteLength":288,"byteOffset":138356,"target":34962},{"buffer":0,"byteLength":192,"byteOffset":138644,"target":34962}],"samplers":[{"magFilter":9729,"minFilter":9987}],"buffers":[{"byteLength":138836,"uri":"chapel.bin"}]}