{"asset":{"generator":"Khronos glTF Blender I/O v4.5.51","version":"2.0"},"scene":0,"scenes":[{"name":"Scene","nodes":[0]}],"nodes":[{"mesh":0,"name":"Fishing"}],"materials":[{"doubleSided":true,"name":"TimberDark","normalTexture":{"index":0,"scale":0.800000011920929},"pbrMetallicRoughness":{"baseColorTexture":{"index":1},"metallicFactor":0,"roughnessFactor":0.699999988079071}},{"doubleSided":true,"name":"Timber","normalTexture":{"index":2,"scale":0.800000011920929},"pbrMetallicRoughness":{"baseColorTexture":{"index":3},"metallicFactor":0,"roughnessFactor":0.7200000286102295}},{"doubleSided":true,"name":"Plaster","normalTexture":{"index":4,"scale":0.800000011920929},"pbrMetallicRoughness":{"baseColorTexture":{"index":5},"metallicFactor":0,"roughnessFactor":0.949999988079071}},{"doubleSided":true,"name":"Shake","normalTexture":{"index":6,"scale":0.800000011920929},"pbrMetallicRoughness":{"baseColorTexture":{"index":7},"metallicFactor":0,"roughnessFactor":0.8600000143051147}},{"doubleSided":true,"name":"ShakeLight","normalTexture":{"index":8,"scale":0.800000011920929},"pbrMetallicRoughness":{"baseColorTexture":{"index":9},"metallicFactor":0,"roughnessFactor":0.8399999737739563}},{"doubleSided":true,"name":"Window","pbrMetallicRoughness":{"baseColorFactor":[0.023153366521000862,0.024157632142305374,0.03310476616024971,1],"metallicFactor":0,"roughnessFactor":0.3499999940395355}},{"doubleSided":true,"name":"Cloth","pbrMetallicRoughness":{"baseColorFactor":[0.6239603757858276,0.5457244515419006,0.4019777774810791,1],"metallicFactor":0,"roughnessFactor":0.8799999952316284}}],"meshes":[{"name":"Cube","primitives":[{"attributes":{"POSITION":0,"NORMAL":1,"TEXCOORD_0":2},"indices":3,"material":0},{"attributes":{"POSITION":4,"NORMAL":5,"TEXCOORD_0":6},"indices":7,"material":1},{"attributes":{"POSITION":8,"NORMAL":9,"TEXCOORD_0":10},"indices":11,"material":2},{"attributes":{"POSITION":12,"NORMAL":13,"TEXCOORD_0":14},"indices":15,"material":3},{"attributes":{"POSITION":16,"NORMAL":17,"TEXCOORD_0":18},"indices":19,"material":4},{"attributes":{"POSITION":20,"NORMAL":21,"TEXCOORD_0":22},"indices":11,"material":5},{"attributes":{"POSITION":23,"NORMAL":24,"TEXCOORD_0":25},"indices":26,"material":6}]}],"textures":[{"sampler":0,"source":0},{"sampler":0,"source":1},{"sampler":0,"source":0},{"sampler":0,"source":1},{"sampler":0,"source":2},{"sampler":0,"source":3},{"sampler":0,"source":4},{"sampler":0,"source":5},{"sampler":0,"source":4},{"sampler":0,"source":5}],"images":[{"mimeType":"image/png","name":"mat_timber_n","uri":"../textures/mat_timber_n.png"},{"mimeType":"image/png","name":"mat_timber","uri":"../textures/mat_timber.png"},{"mimeType":"image/png","name":"mat_plaster_n","uri":"../textures/mat_plaster_n.png"},{"mimeType":"image/png","name":"mat_plaster","uri":"../textures/mat_plaster.png"},{"mimeType":"image/png","name":"mat_shake_n","uri":"../textures/mat_shake_n.png"},{"mimeType":"image/png","name":"mat_shake","uri":"../textures/mat_shake.png"}],"accessors":[{"bufferView":0,"componentType":5126,"count":348,"max":[1.034999966621399,0.8600000143051147,1.119999885559082],"min":[-0.76500004529953,0,-1.1899999380111694],"type":"VEC3"},{"bufferView":1,"componentType":5126,"count":348,"type":"VEC3"},{"bufferView":2,"componentType":5126,"count":348,"type":"VEC2"},{"bufferView":3,"componentType":5123,"count":528,"type":"SCALAR"},{"bufferView":4,"componentType":5126,"count":612,"max":[1.0149998664855957,1.1799999475479126,1.059999942779541],"min":[-1.034999966621399,0.09999999403953552,-0.9749999046325684],"type":"VEC3"},{"bufferView":5,"componentType":5126,"count":612,"type":"VEC3"},{"bufferView":6,"componentType":5126,"count":612,"type":"VEC2"},{"bufferView":7,"componentType":5123,"count":936,"type":"SCALAR"},{"bufferView":8,"componentType":5126,"count":24,"max":[0.5449999570846558,1.1799999475479126,0.9799999594688416],"min":[-0.5350000262260437,0.25999999046325684,0.14000004529953003],"type":"VEC3"},{"bufferView":9,"componentType":5126,"count":24,"type":"VEC3"},{"bufferView":10,"componentType":5126,"count":24,"type":"VEC2"},{"bufferView":11,"componentType":5123,"count":36,"type":"SCALAR"},{"bufferView":12,"componentType":5126,"count":168,"max":[0.8162014484405518,1.883597493171692,1.1899999380111694],"min":[-0.8062015175819397,1.1582400798797607,-0.06999996304512024],"type":"VEC3"},{"bufferView":13,"componentType":5126,"count":168,"type":"VEC3"},{"bufferView":14,"componentType":5126,"count":168,"type":"VEC2"},{"bufferView":15,"componentType":5123,"count":252,"type":"SCALAR"},{"bufferView":16,"componentType":5126,"count":96,"max":[0.6662015914916992,1.7555975914001465,1.1899999380111694],"min":[-0.6562015414237976,1.2862399816513062,-0.06999996304512024],"type":"VEC3"},{"bufferView":17,"componentType":5126,"count":96,"type":"VEC3"},{"bufferView":18,"componentType":5126,"count":96,"type":"VEC2"},{"bufferView":19,"componentType":5123,"count":144,"type":"SCALAR"},{"bufferView":20,"componentType":5126,"count":24,"max":[0.5449999570846558,0.9500000476837158,1.0499999523162842],"min":[0.3049999475479126,0.7300000190734863,0.9699999690055847],"type":"VEC3"},{"bufferView":21,"componentType":5126,"count":24,"type":"VEC3"},{"bufferView":22,"componentType":5126,"count":24,"type":"VEC2"},{"bufferView":23,"componentType":5126,"count":72,"max":[-0.3089999854564667,0.7000000476837158,0.17500001192092896],"min":[-0.9210000038146973,0.36000001430511475,0.14500001072883606],"type":"VEC3"},{"bufferView":24,"componentType":5126,"count":72,"type":"VEC3"},{"bufferView":25,"componentType":5126,"count":72,"type":"VEC2"},{"bufferView":26,"componentType":5123,"count":108,"type":"SCALAR"}],"bufferViews":[{"buffer":0,"byteLength":4176,"byteOffset":0,"target":34962},{"buffer":0,"byteLength":4176,"byteOffset":4176,"target":34962},{"buffer":0,"byteLength":2784,"byteOffset":8352,"target":34962},{"buffer":0,"byteLength":1056,"byteOffset":11136,"target":34963},{"buffer":0,"byteLength":7344,"byteOffset":12192,"target":34962},{"buffer":0,"byteLength":7344,"byteOffset":19536,"target":34962},{"buffer":0,"byteLength":4896,"byteOffset":26880,"target":34962},{"buffer":0,"byteLength":1872,"byteOffset":31776,"target":34963},{"buffer":0,"byteLength":288,"byteOffset":33648,"target":34962},{"buffer":0,"byteLength":288,"byteOffset":33936,"target":34962},{"buffer":0,"byteLength":192,"byteOffset":34224,"target":34962},{"buffer":0,"byteLength":72,"byteOffset":34416,"target":34963},{"buffer":0,"byteLength":2016,"byteOffset":34488,"target":34962},{"buffer":0,"byteLength":2016,"byteOffset":36504,"target":34962},{"buffer":0,"byteLength":1344,"byteOffset":38520,"target":34962},{"buffer":0,"byteLength":504,"byteOffset":39864,"target":34963},{"buffer":0,"byteLength":1152,"byteOffset":40368,"target":34962},{"buffer":0,"byteLength":1152,"byteOffset":41520,"target":34962},{"buffer":0,"byteLength":768,"byteOffset":42672,"target":34962},{"buffer":0,"byteLength":288,"byteOffset":43440,"target":34963},{"buffer":0,"byteLength":288,"byteOffset":43728,"target":34962},{"buffer":0,"byteLength":288,"byteOffset":44016,"target":34962},{"buffer":0,"byteLength":192,"byteOffset":44304,"target":34962},{"buffer":0,"byteLength":864,"byteOffset":44496,"target":34962},{"buffer":0,"byteLength":864,"byteOffset":45360,"target":34962},{"buffer":0,"byteLength":576,"byteOffset":46224,"target":34962},{"buffer":0,"byteLength":216,"byteOffset":46800,"target":34963}],"samplers":[{"magFilter":9729,"minFilter":9987}],"buffers":[{"byteLength":47016,"uri":"fishing.bin"}]}