{"asset":{"generator":"Khronos glTF Blender I/O v4.5.51","version":"2.0"},"scene":0,"scenes":[{"name":"Scene","nodes":[0]}],"nodes":[{"mesh":0,"name":"Gatherer"}],"materials":[{"doubleSided":true,"name":"StoneDark","normalTexture":{"index":0,"scale":0.800000011920929},"pbrMetallicRoughness":{"baseColorTexture":{"index":1},"metallicFactor":0,"roughnessFactor":0.8600000143051147}},{"doubleSided":true,"name":"Plaster","normalTexture":{"index":2,"scale":0.800000011920929},"pbrMetallicRoughness":{"baseColorTexture":{"index":3},"metallicFactor":0,"roughnessFactor":0.949999988079071}},{"doubleSided":true,"name":"Timber","normalTexture":{"index":4,"scale":0.800000011920929},"pbrMetallicRoughness":{"baseColorTexture":{"index":5},"metallicFactor":0,"roughnessFactor":0.7200000286102295}},{"doubleSided":true,"name":"Thatch","normalTexture":{"index":6,"scale":0.800000011920929},"pbrMetallicRoughness":{"baseColorTexture":{"index":7},"metallicFactor":0,"roughnessFactor":0.949999988079071}},{"doubleSided":true,"name":"TimberDark","normalTexture":{"index":8,"scale":0.800000011920929},"pbrMetallicRoughness":{"baseColorTexture":{"index":9},"metallicFactor":0,"roughnessFactor":0.699999988079071}}],"meshes":[{"name":"Cube","primitives":[{"attributes":{"POSITION":0,"NORMAL":1,"TEXCOORD_0":2},"indices":3,"material":0},{"attributes":{"POSITION":4,"NORMAL":5,"TEXCOORD_0":6},"indices":7,"material":1},{"attributes":{"POSITION":8,"NORMAL":9,"TEXCOORD_0":10},"indices":11,"material":2},{"attributes":{"POSITION":12,"NORMAL":13,"TEXCOORD_0":14},"indices":15,"material":3},{"attributes":{"POSITION":16,"NORMAL":17,"TEXCOORD_0":18},"indices":19,"material":4}]}],"textures":[{"sampler":0,"source":0},{"sampler":0,"source":1},{"sampler":0,"source":2},{"sampler":0,"source":3},{"sampler":0,"source":4},{"sampler":0,"source":5},{"sampler":0,"source":6},{"sampler":0,"source":7},{"sampler":0,"source":4},{"sampler":0,"source":5}],"images":[{"mimeType":"image/png","name":"mat_masonry_n","uri":"../textures/mat_masonry_n.png"},{"mimeType":"image/png","name":"mat_masonry","uri":"../textures/mat_masonry.png"},{"mimeType":"image/png","name":"mat_plaster_n","uri":"../textures/mat_plaster_n.png"},{"mimeType":"image/png","name":"mat_plaster","uri":"../textures/mat_plaster.png"},{"mimeType":"image/png","name":"mat_timber_n","uri":"../textures/mat_timber_n.png"},{"mimeType":"image/png","name":"mat_timber","uri":"../textures/mat_timber.png"},{"mimeType":"image/png","name":"mat_thatch_n","uri":"../textures/mat_thatch_n.png"},{"mimeType":"image/png","name":"mat_thatch","uri":"../textures/mat_thatch.png"}],"accessors":[{"bufferView":0,"componentType":5126,"count":96,"max":[0.4184545874595642,0.14000000059604645,0.7224999666213989],"min":[-0.8515453934669495,0,-0.4475000202655792],"type":"VEC3"},{"bufferView":1,"componentType":5126,"count":96,"type":"VEC3"},{"bufferView":2,"componentType":5126,"count":96,"type":"VEC2"},{"bufferView":3,"componentType":5123,"count":132,"type":"SCALAR"},{"bufferView":4,"componentType":5126,"count":24,"max":[0.2884545922279358,0.9999999403953552,0.5925000309944153],"min":[-0.721545398235321,0.13999997079372406,-0.3175000250339508],"type":"VEC3"},{"bufferView":5,"componentType":5126,"count":24,"type":"VEC3"},{"bufferView":6,"componentType":5126,"count":24,"type":"VEC2"},{"bufferView":7,"componentType":5123,"count":36,"type":"SCALAR"},{"bufferView":8,"componentType":5126,"count":252,"max":[0.995623767375946,0.9999999403953552,0.6625000238418579],"min":[-0.7915454506874084,0,-0.8025000095367432],"type":"VEC3"},{"bufferView":9,"componentType":5126,"count":252,"type":"VEC3"},{"bufferView":10,"componentType":5126,"count":252,"type":"VEC2"},{"bufferView":11,"componentType":5123,"count":396,"type":"SCALAR"},{"bufferView":12,"componentType":5126,"count":480,"max":[0.8917834162712097,1.7999999523162842,0.8025000095367432],"min":[-0.9956237077713013,0,-0.7724999189376831],"type":"VEC3"},{"bufferView":13,"componentType":5126,"count":480,"type":"VEC3"},{"bufferView":14,"componentType":5126,"count":480,"type":"VEC2"},{"bufferView":15,"componentType":5123,"count":780,"type":"SCALAR"},{"bufferView":16,"componentType":5126,"count":72,"max":[0.9384546875953674,0.7599999904632568,-0.29750001430511475],"min":[-0.38654541969299316,0,-0.6575000286102295],"type":"VEC3"},{"bufferView":17,"componentType":5126,"count":72,"type":"VEC3"},{"bufferView":18,"componentType":5126,"count":72,"type":"VEC2"},{"bufferView":19,"componentType":5123,"count":108,"type":"SCALAR"}],"bufferViews":[{"buffer":0,"byteLength":1152,"byteOffset":0,"target":34962},{"buffer":0,"byteLength":1152,"byteOffset":1152,"target":34962},{"buffer":0,"byteLength":768,"byteOffset":2304,"target":34962},{"buffer":0,"byteLength":264,"byteOffset":3072,"target":34963},{"buffer":0,"byteLength":288,"byteOffset":3336,"target":34962},{"buffer":0,"byteLength":288,"byteOffset":3624,"target":34962},{"buffer":0,"byteLength":192,"byteOffset":3912,"target":34962},{"buffer":0,"byteLength":72,"byteOffset":4104,"target":34963},{"buffer":0,"byteLength":3024,"byteOffset":4176,"target":34962},{"buffer":0,"byteLength":3024,"byteOffset":7200,"target":34962},{"buffer":0,"byteLength":2016,"byteOffset":10224,"target":34962},{"buffer":0,"byteLength":792,"byteOffset":12240,"target":34963},{"buffer":0,"byteLength":5760,"byteOffset":13032,"target":34962},{"buffer":0,"byteLength":5760,"byteOffset":18792,"target":34962},{"buffer":0,"byteLength":3840,"byteOffset":24552,"target":34962},{"buffer":0,"byteLength":1560,"byteOffset":28392,"target":34963},{"buffer":0,"byteLength":864,"byteOffset":29952,"target":34962},{"buffer":0,"byteLength":864,"byteOffset":30816,"target":34962},{"buffer":0,"byteLength":576,"byteOffset":31680,"target":34962},{"buffer":0,"byteLength":216,"byteOffset":32256,"target":34963}],"samplers":[{"magFilter":9729,"minFilter":9987}],"buffers":[{"byteLength":32472,"uri":"gatherer.bin"}]}