{"asset":{"generator":"Khronos glTF Blender I/O v4.5.51","version":"2.0"},"scene":0,"scenes":[{"name":"Scene","nodes":[0]}],"nodes":[{"mesh":0,"name":"GrandHouse"}],"materials":[{"doubleSided":true,"name":"StoneDark","normalTexture":{"index":0,"scale":0.800000011920929},"pbrMetallicRoughness":{"baseColorTexture":{"index":1},"metallicFactor":0,"roughnessFactor":0.8600000143051147}},{"doubleSided":true,"name":"Stone","normalTexture":{"index":2,"scale":0.800000011920929},"pbrMetallicRoughness":{"baseColorTexture":{"index":3},"metallicFactor":0,"roughnessFactor":0.8799999952316284}},{"doubleSided":true,"name":"Slate","normalTexture":{"index":4,"scale":0.800000011920929},"pbrMetallicRoughness":{"baseColorTexture":{"index":5},"metallicFactor":0,"roughnessFactor":0.5199999809265137}},{"doubleSided":true,"name":"SlateLight","normalTexture":{"index":6,"scale":0.800000011920929},"pbrMetallicRoughness":{"baseColorTexture":{"index":7},"metallicFactor":0,"roughnessFactor":0.47999998927116394}},{"doubleSided":true,"name":"TimberDark","normalTexture":{"index":8,"scale":0.800000011920929},"pbrMetallicRoughness":{"baseColorTexture":{"index":9},"metallicFactor":0,"roughnessFactor":0.699999988079071}},{"doubleSided":true,"name":"Timber","normalTexture":{"index":10,"scale":0.800000011920929},"pbrMetallicRoughness":{"baseColorTexture":{"index":11},"metallicFactor":0,"roughnessFactor":0.7200000286102295}},{"doubleSided":true,"name":"Window","pbrMetallicRoughness":{"baseColorFactor":[0.023153366521000862,0.024157632142305374,0.03310476616024971,1],"metallicFactor":0,"roughnessFactor":0.3499999940395355}}],"meshes":[{"name":"Cube","primitives":[{"attributes":{"POSITION":0,"NORMAL":1,"TEXCOORD_0":2},"indices":3,"material":0},{"attributes":{"POSITION":4,"NORMAL":5,"TEXCOORD_0":6},"indices":7,"material":1},{"attributes":{"POSITION":8,"NORMAL":9,"TEXCOORD_0":10},"indices":11,"material":2},{"attributes":{"POSITION":12,"NORMAL":13,"TEXCOORD_0":14},"indices":15,"material":3},{"attributes":{"POSITION":16,"NORMAL":17,"TEXCOORD_0":18},"indices":19,"material":4},{"attributes":{"POSITION":20,"NORMAL":21,"TEXCOORD_0":22},"indices":23,"material":5},{"attributes":{"POSITION":24,"NORMAL":25,"TEXCOORD_0":26},"indices":27,"material":6}]}],"textures":[{"sampler":0,"source":0},{"sampler":0,"source":1},{"sampler":0,"source":0},{"sampler":0,"source":1},{"sampler":0,"source":2},{"sampler":0,"source":3},{"sampler":0,"source":2},{"sampler":0,"source":3},{"sampler":0,"source":4},{"sampler":0,"source":5},{"sampler":0,"source":4},{"sampler":0,"source":5}],"images":[{"mimeType":"image/png","name":"mat_masonry_n","uri":"../textures/mat_masonry_n.png"},{"mimeType":"image/png","name":"mat_masonry","uri":"../textures/mat_masonry.png"},{"mimeType":"image/png","name":"mat_shingle_n","uri":"../textures/mat_shingle_n.png"},{"mimeType":"image/png","name":"mat_shingle","uri":"../textures/mat_shingle.png"},{"mimeType":"image/png","name":"mat_timber_n","uri":"../textures/mat_timber_n.png"},{"mimeType":"image/png","name":"mat_timber","uri":"../textures/mat_timber.png"}],"accessors":[{"bufferView":0,"componentType":5126,"count":4224,"max":[1.090000033378601,3.419999837875366,1.2160000801086426],"min":[-1.090000033378601,0,-1.2079999446868896],"type":"VEC3"},{"bufferView":1,"componentType":5126,"count":4224,"type":"VEC3"},{"bufferView":2,"componentType":5126,"count":4224,"type":"VEC2"},{"bufferView":3,"componentType":5123,"count":5808,"type":"SCALAR"},{"bufferView":4,"componentType":5126,"count":864,"max":[1.0499999523162842,3.4649999141693115,1.1759998798370361],"min":[-1.0499999523162842,0.2199999988079071,-1.2160000801086426],"type":"VEC3"},{"bufferView":5,"componentType":5126,"count":864,"type":"VEC3"},{"bufferView":6,"componentType":5126,"count":864,"type":"VEC2"},{"bufferView":7,"componentType":5123,"count":1212,"type":"SCALAR"},{"bufferView":8,"componentType":5126,"count":672,"max":[1.067044973373413,3.0899996757507324,1.1359999179840088],"min":[-1.067044973373413,2.4029955863952637,-0.8840000033378601],"type":"VEC3"},{"bufferView":9,"componentType":5126,"count":672,"type":"VEC3"},{"bufferView":10,"componentType":5126,"count":672,"type":"VEC2"},{"bufferView":11,"componentType":5123,"count":924,"type":"SCALAR"},{"bufferView":12,"componentType":5126,"count":576,"max":[0.898711621761322,3.103876829147339,1.1359999179840088],"min":[-0.898711621761322,2.50632905960083,-0.8840000033378601],"type":"VEC3"},{"bufferView":13,"componentType":5126,"count":576,"type":"VEC3"},{"bufferView":14,"componentType":5126,"count":576,"type":"VEC2"},{"bufferView":15,"componentType":5123,"count":792,"type":"SCALAR"},{"bufferView":16,"componentType":5126,"count":96,"max":[0.25,1.0800000429153442,-0.7540000081062317],"min":[-0.25,0.21999993920326233,-0.8539999723434448],"type":"VEC3"},{"bufferView":17,"componentType":5126,"count":96,"type":"VEC3"},{"bufferView":18,"componentType":5126,"count":96,"type":"VEC2"},{"bufferView":19,"componentType":5123,"count":132,"type":"SCALAR"},{"bufferView":20,"componentType":5126,"count":864,"max":[0.9799999594688416,2.119999647140503,0.8601999878883362],"min":[-0.8141999840736389,0.4599999785423279,-0.8639999628067017],"type":"VEC3"},{"bufferView":21,"componentType":5126,"count":864,"type":"VEC3"},{"bufferView":22,"componentType":5126,"count":864,"type":"VEC2"},{"bufferView":23,"componentType":5123,"count":1188,"type":"SCALAR"},{"bufferView":24,"componentType":5126,"count":768,"max":[0.9699999690055847,2.049999952316284,0.8159999251365662],"min":[-0.7699999809265137,0.5299999117851257,-0.843999981880188],"type":"VEC3"},{"bufferView":25,"componentType":5126,"count":768,"type":"VEC3"},{"bufferView":26,"componentType":5126,"count":768,"type":"VEC2"},{"bufferView":27,"componentType":5123,"count":1056,"type":"SCALAR"}],"bufferViews":[{"buffer":0,"byteLength":50688,"byteOffset":0,"target":34962},{"buffer":0,"byteLength":50688,"byteOffset":50688,"target":34962},{"buffer":0,"byteLength":33792,"byteOffset":101376,"target":34962},{"buffer":0,"byteLength":11616,"byteOffset":135168,"target":34963},{"buffer":0,"byteLength":10368,"byteOffset":146784,"target":34962},{"buffer":0,"byteLength":10368,"byteOffset":157152,"target":34962},{"buffer":0,"byteLength":6912,"byteOffset":167520,"target":34962},{"buffer":0,"byteLength":2424,"byteOffset":174432,"target":34963},{"buffer":0,"byteLength":8064,"byteOffset":176856,"target":34962},{"buffer":0,"byteLength":8064,"byteOffset":184920,"target":34962},{"buffer":0,"byteLength":5376,"byteOffset":192984,"target":34962},{"buffer":0,"byteLength":1848,"byteOffset":198360,"target":34963},{"buffer":0,"byteLength":6912,"byteOffset":200208,"target":34962},{"buffer":0,"byteLength":6912,"byteOffset":207120,"target":34962},{"buffer":0,"byteLength":4608,"byteOffset":214032,"target":34962},{"buffer":0,"byteLength":1584,"byteOffset":218640,"target":34963},{"buffer":0,"byteLength":1152,"byteOffset":220224,"target":34962},{"buffer":0,"byteLength":1152,"byteOffset":221376,"target":34962},{"buffer":0,"byteLength":768,"byteOffset":222528,"target":34962},{"buffer":0,"byteLength":264,"byteOffset":223296,"target":34963},{"buffer":0,"byteLength":10368,"byteOffset":223560,"target":34962},{"buffer":0,"byteLength":10368,"byteOffset":233928,"target":34962},{"buffer":0,"byteLength":6912,"byteOffset":244296,"target":34962},{"buffer":0,"byteLength":2376,"byteOffset":251208,"target":34963},{"buffer":0,"byteLength":9216,"byteOffset":253584,"target":34962},{"buffer":0,"byteLength":9216,"byteOffset":262800,"target":34962},{"buffer":0,"byteLength":6144,"byteOffset":272016,"target":34962},{"buffer":0,"byteLength":2112,"byteOffset":278160,"target":34963}],"samplers":[{"magFilter":9729,"minFilter":9987}],"buffers":[{"byteLength":280272,"uri":"grandhouse.bin"}]}