{"asset":{"generator":"Khronos glTF Blender I/O v4.5.51","version":"2.0"},"scene":0,"scenes":[{"name":"Scene","nodes":[0]}],"nodes":[{"mesh":0,"name":"Herbalist"}],"materials":[{"doubleSided":true,"name":"StoneDark","normalTexture":{"index":0,"scale":0.800000011920929},"pbrMetallicRoughness":{"baseColorTexture":{"index":1},"metallicFactor":0,"roughnessFactor":0.8600000143051147}},{"doubleSided":true,"name":"Plaster","normalTexture":{"index":2,"scale":0.800000011920929},"pbrMetallicRoughness":{"baseColorTexture":{"index":3},"metallicFactor":0,"roughnessFactor":0.949999988079071}},{"doubleSided":true,"name":"Timber","normalTexture":{"index":4,"scale":0.800000011920929},"pbrMetallicRoughness":{"baseColorTexture":{"index":5},"metallicFactor":0,"roughnessFactor":0.7200000286102295}},{"doubleSided":true,"name":"Thatch","normalTexture":{"index":6,"scale":0.800000011920929},"pbrMetallicRoughness":{"baseColorTexture":{"index":7},"metallicFactor":0,"roughnessFactor":0.949999988079071}},{"doubleSided":true,"name":"TimberDark","normalTexture":{"index":8,"scale":0.800000011920929},"pbrMetallicRoughness":{"baseColorTexture":{"index":9},"metallicFactor":0,"roughnessFactor":0.699999988079071}},{"doubleSided":true,"name":"Window","pbrMetallicRoughness":{"baseColorFactor":[0.023153366521000862,0.024157632142305374,0.03310476616024971,1],"metallicFactor":0,"roughnessFactor":0.3499999940395355}},{"doubleSided":true,"name":"Stone","normalTexture":{"index":10,"scale":0.800000011920929},"pbrMetallicRoughness":{"baseColorTexture":{"index":11},"metallicFactor":0,"roughnessFactor":0.8799999952316284}},{"doubleSided":true,"name":"Soil","normalTexture":{"index":12,"scale":0.800000011920929},"pbrMetallicRoughness":{"baseColorTexture":{"index":13},"metallicFactor":0}},{"doubleSided":true,"name":"Foliage","normalTexture":{"index":14,"scale":0.800000011920929},"pbrMetallicRoughness":{"baseColorTexture":{"index":15},"metallicFactor":0,"roughnessFactor":0.800000011920929}},{"doubleSided":true,"name":"FoliageLight","normalTexture":{"index":16,"scale":0.800000011920929},"pbrMetallicRoughness":{"baseColorTexture":{"index":17},"metallicFactor":0,"roughnessFactor":0.7799999713897705}},{"doubleSided":true,"name":"Cloth","pbrMetallicRoughness":{"baseColorFactor":[0.6239603757858276,0.5457244515419006,0.4019777774810791,1],"metallicFactor":0,"roughnessFactor":0.8799999952316284}},{"doubleSided":true,"name":"Bark","normalTexture":{"index":18,"scale":0.800000011920929},"pbrMetallicRoughness":{"baseColorTexture":{"index":19},"metallicFactor":0,"roughnessFactor":0.8999999761581421}}],"meshes":[{"name":"Cube","primitives":[{"attributes":{"POSITION":0,"NORMAL":1,"TEXCOORD_0":2},"indices":3,"material":0},{"attributes":{"POSITION":4,"NORMAL":5,"TEXCOORD_0":6},"indices":7,"material":1},{"attributes":{"POSITION":8,"NORMAL":9,"TEXCOORD_0":10},"indices":11,"material":2},{"attributes":{"POSITION":12,"NORMAL":13,"TEXCOORD_0":14},"indices":15,"material":3},{"attributes":{"POSITION":16,"NORMAL":17,"TEXCOORD_0":18},"indices":19,"material":4},{"attributes":{"POSITION":20,"NORMAL":21,"TEXCOORD_0":22},"indices":7,"material":5},{"attributes":{"POSITION":23,"NORMAL":24,"TEXCOORD_0":25},"indices":19,"material":6},{"attributes":{"POSITION":26,"NORMAL":27,"TEXCOORD_0":28},"indices":29,"material":7},{"attributes":{"POSITION":30,"NORMAL":31,"TEXCOORD_0":32},"indices":33,"material":8},{"attributes":{"POSITION":34,"NORMAL":35,"TEXCOORD_0":36},"indices":37,"material":9},{"attributes":{"POSITION":38,"NORMAL":39,"TEXCOORD_0":40},"indices":41,"material":10},{"attributes":{"POSITION":42,"NORMAL":43,"TEXCOORD_0":44},"indices":45,"material":11}]}],"textures":[{"sampler":0,"source":0},{"sampler":0,"source":1},{"sampler":0,"source":2},{"sampler":0,"source":3},{"sampler":0,"source":4},{"sampler":0,"source":5},{"sampler":0,"source":6},{"sampler":0,"source":7},{"sampler":0,"source":4},{"sampler":0,"source":5},{"sampler":0,"source":0},{"sampler":0,"source":1},{"sampler":0,"source":0},{"sampler":0,"source":1},{"sampler":0,"source":8},{"sampler":0,"source":9},{"sampler":0,"source":8},{"sampler":0,"source":9},{"sampler":0,"source":10},{"sampler":0,"source":11}],"images":[{"mimeType":"image/png","name":"mat_masonry_n","uri":"../textures/mat_masonry_n.png"},{"mimeType":"image/png","name":"mat_masonry","uri":"../textures/mat_masonry.png"},{"mimeType":"image/png","name":"mat_plaster_n","uri":"../textures/mat_plaster_n.png"},{"mimeType":"image/png","name":"mat_plaster","uri":"../textures/mat_plaster.png"},{"mimeType":"image/png","name":"mat_timber_n","uri":"../textures/mat_timber_n.png"},{"mimeType":"image/png","name":"mat_timber","uri":"../textures/mat_timber.png"},{"mimeType":"image/png","name":"mat_thatch_n","uri":"../textures/mat_thatch_n.png"},{"mimeType":"image/png","name":"mat_thatch","uri":"../textures/mat_thatch.png"},{"mimeType":"image/png","name":"mat_foliage_n","uri":"../textures/mat_foliage_n.png"},{"mimeType":"image/png","name":"mat_foliage","uri":"../textures/mat_foliage.png"},{"mimeType":"image/png","name":"mat_bark_n","uri":"../textures/mat_bark_n.png"},{"mimeType":"image/png","name":"mat_bark","uri":"../textures/mat_bark.png"}],"accessors":[{"bufferView":0,"componentType":5126,"count":120,"max":[0.4253518581390381,2.1399998664855957,1.3924999237060547],"min":[-1.414648175239563,0,-0.1975000500679016],"type":"VEC3"},{"bufferView":1,"componentType":5126,"count":120,"type":"VEC3"},{"bufferView":2,"componentType":5126,"count":120,"type":"VEC2"},{"bufferView":3,"componentType":5123,"count":168,"type":"SCALAR"},{"bufferView":4,"componentType":5126,"count":24,"max":[0.28535181283950806,1.3200000524520874,1.2524999380111694],"min":[-1.2746481895446777,0.1599999964237213,-0.05750000476837158],"type":"VEC3"},{"bufferView":5,"componentType":5126,"count":24,"type":"VEC3"},{"bufferView":6,"componentType":5126,"count":24,"type":"VEC2"},{"bufferView":7,"componentType":5123,"count":36,"type":"SCALAR"},{"bufferView":8,"componentType":5126,"count":516,"max":[1.555351734161377,1.3200000524520874,1.3224999904632568],"min":[-1.3446481227874756,0,-1.162500023841858],"type":"VEC3"},{"bufferView":9,"componentType":5126,"count":516,"type":"VEC3"},{"bufferView":10,"componentType":5126,"count":516,"type":"VEC2"},{"bufferView":11,"componentType":5123,"count":792,"type":"SCALAR"},{"bufferView":12,"componentType":5126,"count":408,"max":[0.5660554766654968,2.419999837875366,1.4724998474121094],"min":[-1.555351734161377,1.2594964504241943,-0.2774999737739563],"type":"VEC3"},{"bufferView":13,"componentType":5126,"count":408,"type":"VEC3"},{"bufferView":14,"componentType":5126,"count":408,"type":"VEC2"},{"bufferView":15,"componentType":5123,"count":612,"type":"SCALAR"},{"bufferView":16,"componentType":5126,"count":84,"max":[-0.30464816093444824,0.8199999928474426,-0.03750002384185791],"min":[-1.2068171501159668,0,-0.6225000619888306],"type":"VEC3"},{"bufferView":17,"componentType":5126,"count":84,"type":"VEC3"},{"bufferView":18,"componentType":5126,"count":84,"type":"VEC2"},{"bufferView":19,"componentType":5123,"count":144,"type":"SCALAR"},{"bufferView":20,"componentType":5126,"count":24,"max":[0.17535185813903809,0.9999999403953552,-0.047500014305114746],"min":[-0.08464816212654114,0.7599999904632568,-0.12750005722045898],"type":"VEC3"},{"bufferView":21,"componentType":5126,"count":24,"type":"VEC3"},{"bufferView":22,"componentType":5126,"count":24,"type":"VEC2"},{"bufferView":23,"componentType":5126,"count":84,"max":[-0.888248085975647,2.184999942779541,1.40749990940094],"min":[-1.2363277673721313,0.3399999737739563,0.7310998439788818],"type":"VEC3"},{"bufferView":24,"componentType":5126,"count":84,"type":"VEC3"},{"bufferView":25,"componentType":5126,"count":84,"type":"VEC2"},{"bufferView":26,"componentType":5126,"count":72,"max":[1.3853518962860107,0.04999999701976776,-0.35249996185302734],"min":[-0.8546481132507324,0,-1.472499966621399],"type":"VEC3"},{"bufferView":27,"componentType":5126,"count":72,"type":"VEC3"},{"bufferView":28,"componentType":5126,"count":72,"type":"VEC2"},{"bufferView":29,"componentType":5123,"count":108,"type":"SCALAR"},{"bufferView":30,"componentType":5126,"count":1008,"max":[1.336782455444336,0.25050613284111023,-0.46000003814697266],"min":[-0.8080787062644958,0.046900246292352676,-1.3650001287460327],"type":"VEC3"},{"bufferView":31,"componentType":5126,"count":1008,"type":"VEC3"},{"bufferView":32,"componentType":5126,"count":1008,"type":"VEC2"},{"bufferView":33,"componentType":5123,"count":1512,"type":"SCALAR"},{"bufferView":34,"componentType":5126,"count":504,"max":[1.2858517169952393,0.25,-0.46000003814697266],"min":[-0.7571481466293335,0.04999999701976776,-1.3650001287460327],"type":"VEC3"},{"bufferView":35,"componentType":5126,"count":504,"type":"VEC3"},{"bufferView":36,"componentType":5126,"count":504,"type":"VEC2"},{"bufferView":37,"componentType":5123,"count":756,"type":"SCALAR"},{"bufferView":38,"componentType":5126,"count":168,"max":[1.4488518238067627,0.5999999642372131,1.1124999523162842],"min":[0.7169767022132874,0.25999999046325684,0.44249993562698364],"type":"VEC3"},{"bufferView":39,"componentType":5126,"count":168,"type":"VEC3"},{"bufferView":40,"componentType":5126,"count":168,"type":"VEC2"},{"bufferView":41,"componentType":5123,"count":252,"type":"SCALAR"},{"bufferView":42,"componentType":5126,"count":54,"max":[-0.9269269704818726,0.3399999737739563,1.3784538507461548],"min":[-1.2223693132400513,0,1.0874998569488525],"type":"VEC3"},{"bufferView":43,"componentType":5126,"count":54,"type":"VEC3"},{"bufferView":44,"componentType":5126,"count":54,"type":"VEC2"},{"bufferView":45,"componentType":5123,"count":96,"type":"SCALAR"}],"bufferViews":[{"buffer":0,"byteLength":1440,"byteOffset":0,"target":34962},{"buffer":0,"byteLength":1440,"byteOffset":1440,"target":34962},{"buffer":0,"byteLength":960,"byteOffset":2880,"target":34962},{"buffer":0,"byteLength":336,"byteOffset":3840,"target":34963},{"buffer":0,"byteLength":288,"byteOffset":4176,"target":34962},{"buffer":0,"byteLength":288,"byteOffset":4464,"target":34962},{"buffer":0,"byteLength":192,"byteOffset":4752,"target":34962},{"buffer":0,"byteLength":72,"byteOffset":4944,"target":34963},{"buffer":0,"byteLength":6192,"byteOffset":5016,"target":34962},{"buffer":0,"byteLength":6192,"byteOffset":11208,"target":34962},{"buffer":0,"byteLength":4128,"byteOffset":17400,"target":34962},{"buffer":0,"byteLength":1584,"byteOffset":21528,"target":34963},{"buffer":0,"byteLength":4896,"byteOffset":23112,"target":34962},{"buffer":0,"byteLength":4896,"byteOffset":28008,"target":34962},{"buffer":0,"byteLength":3264,"byteOffset":32904,"target":34962},{"buffer":0,"byteLength":1224,"byteOffset":36168,"target":34963},{"buffer":0,"byteLength":1008,"byteOffset":37392,"target":34962},{"buffer":0,"byteLength":1008,"byteOffset":38400,"target":34962},{"buffer":0,"byteLength":672,"byteOffset":39408,"target":34962},{"buffer":0,"byteLength":288,"byteOffset":40080,"target":34963},{"buffer":0,"byteLength":288,"byteOffset":40368,"target":34962},{"buffer":0,"byteLength":288,"byteOffset":40656,"target":34962},{"buffer":0,"byteLength":192,"byteOffset":40944,"target":34962},{"buffer":0,"byteLength":1008,"byteOffset":41136,"target":34962},{"buffer":0,"byteLength":1008,"byteOffset":42144,"target":34962},{"buffer":0,"byteLength":672,"byteOffset":43152,"target":34962},{"buffer":0,"byteLength":864,"byteOffset":43824,"target":34962},{"buffer":0,"byteLength":864,"byteOffset":44688,"target":34962},{"buffer":0,"byteLength":576,"byteOffset":45552,"target":34962},{"buffer":0,"byteLength":216,"byteOffset":46128,"target":34963},{"buffer":0,"byteLength":12096,"byteOffset":46344,"target":34962},{"buffer":0,"byteLength":12096,"byteOffset":58440,"target":34962},{"buffer":0,"byteLength":8064,"byteOffset":70536,"target":34962},{"buffer":0,"byteLength":3024,"byteOffset":78600,"target":34963},{"buffer":0,"byteLength":6048,"byteOffset":81624,"target":34962},{"buffer":0,"byteLength":6048,"byteOffset":87672,"target":34962},{"buffer":0,"byteLength":4032,"byteOffset":93720,"target":34962},{"buffer":0,"byteLength":1512,"byteOffset":97752,"target":34963},{"buffer":0,"byteLength":2016,"byteOffset":99264,"target":34962},{"buffer":0,"byteLength":2016,"byteOffset":101280,"target":34962},{"buffer":0,"byteLength":1344,"byteOffset":103296,"target":34962},{"buffer":0,"byteLength":504,"byteOffset":104640,"target":34963},{"buffer":0,"byteLength":648,"byteOffset":105144,"target":34962},{"buffer":0,"byteLength":648,"byteOffset":105792,"target":34962},{"buffer":0,"byteLength":432,"byteOffset":106440,"target":34962},{"buffer":0,"byteLength":192,"byteOffset":106872,"target":34963}],"samplers":[{"magFilter":9729,"minFilter":9987}],"buffers":[{"byteLength":107064,"uri":"herbalist.bin"}]}