{"asset":{"generator":"Khronos glTF Blender I/O v4.5.51","version":"2.0"},"scene":0,"scenes":[{"name":"Scene","nodes":[0]}],"nodes":[{"mesh":0,"name":"Hospital"}],"materials":[{"doubleSided":true,"name":"Stone","normalTexture":{"index":0,"scale":0.800000011920929},"pbrMetallicRoughness":{"baseColorTexture":{"index":1},"metallicFactor":0,"roughnessFactor":0.8799999952316284}},{"doubleSided":true,"name":"Plaster","normalTexture":{"index":2,"scale":0.800000011920929},"pbrMetallicRoughness":{"baseColorTexture":{"index":3},"metallicFactor":0,"roughnessFactor":0.949999988079071}},{"doubleSided":true,"name":"Timber","normalTexture":{"index":4,"scale":0.800000011920929},"pbrMetallicRoughness":{"baseColorTexture":{"index":5},"metallicFactor":0,"roughnessFactor":0.7200000286102295}},{"doubleSided":true,"name":"Slate","normalTexture":{"index":6,"scale":0.800000011920929},"pbrMetallicRoughness":{"baseColorTexture":{"index":7},"metallicFactor":0,"roughnessFactor":0.5199999809265137}},{"doubleSided":true,"name":"SlateLight","normalTexture":{"index":8,"scale":0.800000011920929},"pbrMetallicRoughness":{"baseColorTexture":{"index":9},"metallicFactor":0,"roughnessFactor":0.47999998927116394}},{"doubleSided":true,"name":"TimberDark","normalTexture":{"index":10,"scale":0.800000011920929},"pbrMetallicRoughness":{"baseColorTexture":{"index":11},"metallicFactor":0,"roughnessFactor":0.699999988079071}},{"doubleSided":true,"name":"Window","pbrMetallicRoughness":{"baseColorFactor":[0.023153366521000862,0.024157632142305374,0.03310476616024971,1],"metallicFactor":0,"roughnessFactor":0.3499999940395355}},{"doubleSided":true,"name":"StoneDark","normalTexture":{"index":12,"scale":0.800000011920929},"pbrMetallicRoughness":{"baseColorTexture":{"index":13},"metallicFactor":0,"roughnessFactor":0.8600000143051147}},{"doubleSided":true,"name":"Soil","normalTexture":{"index":14,"scale":0.800000011920929},"pbrMetallicRoughness":{"baseColorTexture":{"index":15},"metallicFactor":0}},{"doubleSided":true,"name":"Foliage","normalTexture":{"index":16,"scale":0.800000011920929},"pbrMetallicRoughness":{"baseColorTexture":{"index":17},"metallicFactor":0,"roughnessFactor":0.800000011920929}},{"doubleSided":true,"name":"FoliageLight","normalTexture":{"index":18,"scale":0.800000011920929},"pbrMetallicRoughness":{"baseColorTexture":{"index":19},"metallicFactor":0,"roughnessFactor":0.7799999713897705}}],"meshes":[{"name":"Cube","primitives":[{"attributes":{"POSITION":0,"NORMAL":1,"TEXCOORD_0":2},"indices":3,"material":0},{"attributes":{"POSITION":4,"NORMAL":5,"TEXCOORD_0":6},"indices":7,"material":1},{"attributes":{"POSITION":8,"NORMAL":9,"TEXCOORD_0":10},"indices":11,"material":2},{"attributes":{"POSITION":12,"NORMAL":13,"TEXCOORD_0":14},"indices":15,"material":3},{"attributes":{"POSITION":16,"NORMAL":17,"TEXCOORD_0":18},"indices":19,"material":4},{"attributes":{"POSITION":20,"NORMAL":21,"TEXCOORD_0":22},"indices":23,"material":5},{"attributes":{"POSITION":24,"NORMAL":25,"TEXCOORD_0":26},"indices":27,"material":6},{"attributes":{"POSITION":28,"NORMAL":29,"TEXCOORD_0":30},"indices":7,"material":7},{"attributes":{"POSITION":31,"NORMAL":32,"TEXCOORD_0":33},"indices":34,"material":8},{"attributes":{"POSITION":35,"NORMAL":36,"TEXCOORD_0":37},"indices":38,"material":9},{"attributes":{"POSITION":39,"NORMAL":40,"TEXCOORD_0":41},"indices":42,"material":10}]}],"textures":[{"sampler":0,"source":0},{"sampler":0,"source":1},{"sampler":0,"source":2},{"sampler":0,"source":3},{"sampler":0,"source":4},{"sampler":0,"source":5},{"sampler":0,"source":6},{"sampler":0,"source":7},{"sampler":0,"source":6},{"sampler":0,"source":7},{"sampler":0,"source":4},{"sampler":0,"source":5},{"sampler":0,"source":0},{"sampler":0,"source":1},{"sampler":0,"source":0},{"sampler":0,"source":1},{"sampler":0,"source":8},{"sampler":0,"source":9},{"sampler":0,"source":8},{"sampler":0,"source":9}],"images":[{"mimeType":"image/png","name":"mat_masonry_n","uri":"../textures/mat_masonry_n.png"},{"mimeType":"image/png","name":"mat_masonry","uri":"../textures/mat_masonry.png"},{"mimeType":"image/png","name":"mat_plaster_n","uri":"../textures/mat_plaster_n.png"},{"mimeType":"image/png","name":"mat_plaster","uri":"../textures/mat_plaster.png"},{"mimeType":"image/png","name":"mat_timber_n","uri":"../textures/mat_timber_n.png"},{"mimeType":"image/png","name":"mat_timber","uri":"../textures/mat_timber.png"},{"mimeType":"image/png","name":"mat_shingle_n","uri":"../textures/mat_shingle_n.png"},{"mimeType":"image/png","name":"mat_shingle","uri":"../textures/mat_shingle.png"},{"mimeType":"image/png","name":"mat_foliage_n","uri":"../textures/mat_foliage_n.png"},{"mimeType":"image/png","name":"mat_foliage","uri":"../textures/mat_foliage.png"}],"accessors":[{"bufferView":0,"componentType":5126,"count":168,"max":[1.8047480583190918,2.664999485015869,2.3478505611419678],"min":[-1.8752520084381104,0,-2.1321494579315186],"type":"VEC3"},{"bufferView":1,"componentType":5126,"count":168,"type":"VEC3"},{"bufferView":2,"componentType":5126,"count":168,"type":"VEC2"},{"bufferView":3,"componentType":5123,"count":240,"type":"SCALAR"},{"bufferView":4,"componentType":5126,"count":48,"max":[1.664748191833496,1.619999885559082,2.207850694656372],"min":[-1.7452518939971924,0.2199999988079071,-2.0021495819091797],"type":"VEC3"},{"bufferView":5,"componentType":5126,"count":48,"type":"VEC3"},{"bufferView":6,"componentType":5126,"count":48,"type":"VEC2"},{"bufferView":7,"componentType":5123,"count":72,"type":"SCALAR"},{"bufferView":8,"componentType":5126,"count":672,"max":[1.7447483539581299,1.619999885559082,2.27785062789917],"min":[-1.8152520656585693,0,-2.28214955329895],"type":"VEC3"},{"bufferView":9,"componentType":5126,"count":672,"type":"VEC3"},{"bufferView":10,"componentType":5126,"count":672,"type":"VEC2"},{"bufferView":11,"componentType":5123,"count":1008,"type":"SCALAR"},{"bufferView":12,"componentType":5126,"count":504,"max":[1.9152522087097168,2.7842578887939453,2.397850751876831],"min":[-1.9152522087097168,0.9471263885498047,-2.397850751876831],"type":"VEC3"},{"bufferView":13,"componentType":5126,"count":504,"type":"VEC3"},{"bufferView":14,"componentType":5126,"count":504,"type":"VEC2"},{"bufferView":15,"componentType":5123,"count":756,"type":"SCALAR"},{"bufferView":16,"componentType":5126,"count":336,"max":[1.757474422454834,2.6620357036590576,2.397850751876831],"min":[-1.9152522087097168,1.6021324396133423,-2.0598881244659424],"type":"VEC3"},{"bufferView":17,"componentType":5126,"count":336,"type":"VEC3"},{"bufferView":18,"componentType":5126,"count":336,"type":"VEC2"},{"bufferView":19,"componentType":5123,"count":504,"type":"SCALAR"},{"bufferView":20,"componentType":5126,"count":72,"max":[0.6647481322288513,1,-1.6321494579315186],"min":[-1.5602521896362305,0,-2.0271494388580322],"type":"VEC3"},{"bufferView":21,"componentType":5126,"count":72,"type":"VEC3"},{"bufferView":22,"componentType":5126,"count":72,"type":"VEC2"},{"bufferView":23,"componentType":5123,"count":108,"type":"SCALAR"},{"bufferView":24,"componentType":5126,"count":192,"max":[1.734748125076294,1.3299999237060547,1.7478506565093994],"min":[-1.5652520656585693,0.949999988079071,-2.0721495151519775],"type":"VEC3"},{"bufferView":25,"componentType":5126,"count":192,"type":"VEC3"},{"bufferView":26,"componentType":5126,"count":192,"type":"VEC2"},{"bufferView":27,"componentType":5123,"count":288,"type":"SCALAR"},{"bufferView":28,"componentType":5126,"count":48,"max":[1.484748363494873,2.619999647140503,2.02785062789917],"min":[-1.7152519226074219,1.5079998970031738,-1.202149510383606],"type":"VEC3"},{"bufferView":29,"componentType":5126,"count":48,"type":"VEC3"},{"bufferView":30,"componentType":5126,"count":48,"type":"VEC2"},{"bufferView":31,"componentType":5126,"count":24,"max":[-0.1352519392967224,0.05000000447034836,1.4278507232666016],"min":[-1.6352519989013672,0,0.8278506994247437],"type":"VEC3"},{"bufferView":32,"componentType":5126,"count":24,"type":"VEC3"},{"bufferView":33,"componentType":5126,"count":24,"type":"VEC2"},{"bufferView":34,"componentType":5123,"count":36,"type":"SCALAR"},{"bufferView":35,"componentType":5126,"count":240,"max":[-0.21182143688201904,0.25050610303878784,1.15035080909729],"min":[-1.5586826801300049,0.04690024256706238,1.1053507328033447],"type":"VEC3"},{"bufferView":36,"componentType":5126,"count":240,"type":"VEC3"},{"bufferView":37,"componentType":5126,"count":240,"type":"VEC2"},{"bufferView":38,"componentType":5123,"count":360,"type":"SCALAR"},{"bufferView":39,"componentType":5126,"count":120,"max":[-0.2627519965171814,0.25,1.15035080909729],"min":[-1.5077521800994873,0.049999989569187164,1.1053507328033447],"type":"VEC3"},{"bufferView":40,"componentType":5126,"count":120,"type":"VEC3"},{"bufferView":41,"componentType":5126,"count":120,"type":"VEC2"},{"bufferView":42,"componentType":5123,"count":180,"type":"SCALAR"}],"bufferViews":[{"buffer":0,"byteLength":2016,"byteOffset":0,"target":34962},{"buffer":0,"byteLength":2016,"byteOffset":2016,"target":34962},{"buffer":0,"byteLength":1344,"byteOffset":4032,"target":34962},{"buffer":0,"byteLength":480,"byteOffset":5376,"target":34963},{"buffer":0,"byteLength":576,"byteOffset":5856,"target":34962},{"buffer":0,"byteLength":576,"byteOffset":6432,"target":34962},{"buffer":0,"byteLength":384,"byteOffset":7008,"target":34962},{"buffer":0,"byteLength":144,"byteOffset":7392,"target":34963},{"buffer":0,"byteLength":8064,"byteOffset":7536,"target":34962},{"buffer":0,"byteLength":8064,"byteOffset":15600,"target":34962},{"buffer":0,"byteLength":5376,"byteOffset":23664,"target":34962},{"buffer":0,"byteLength":2016,"byteOffset":29040,"target":34963},{"buffer":0,"byteLength":6048,"byteOffset":31056,"target":34962},{"buffer":0,"byteLength":6048,"byteOffset":37104,"target":34962},{"buffer":0,"byteLength":4032,"byteOffset":43152,"target":34962},{"buffer":0,"byteLength":1512,"byteOffset":47184,"target":34963},{"buffer":0,"byteLength":4032,"byteOffset":48696,"target":34962},{"buffer":0,"byteLength":4032,"byteOffset":52728,"target":34962},{"buffer":0,"byteLength":2688,"byteOffset":56760,"target":34962},{"buffer":0,"byteLength":1008,"byteOffset":59448,"target":34963},{"buffer":0,"byteLength":864,"byteOffset":60456,"target":34962},{"buffer":0,"byteLength":864,"byteOffset":61320,"target":34962},{"buffer":0,"byteLength":576,"byteOffset":62184,"target":34962},{"buffer":0,"byteLength":216,"byteOffset":62760,"target":34963},{"buffer":0,"byteLength":2304,"byteOffset":62976,"target":34962},{"buffer":0,"byteLength":2304,"byteOffset":65280,"target":34962},{"buffer":0,"byteLength":1536,"byteOffset":67584,"target":34962},{"buffer":0,"byteLength":576,"byteOffset":69120,"target":34963},{"buffer":0,"byteLength":576,"byteOffset":69696,"target":34962},{"buffer":0,"byteLength":576,"byteOffset":70272,"target":34962},{"buffer":0,"byteLength":384,"byteOffset":70848,"target":34962},{"buffer":0,"byteLength":288,"byteOffset":71232,"target":34962},{"buffer":0,"byteLength":288,"byteOffset":71520,"target":34962},{"buffer":0,"byteLength":192,"byteOffset":71808,"target":34962},{"buffer":0,"byteLength":72,"byteOffset":72000,"target":34963},{"buffer":0,"byteLength":2880,"byteOffset":72072,"target":34962},{"buffer":0,"byteLength":2880,"byteOffset":74952,"target":34962},{"buffer":0,"byteLength":1920,"byteOffset":77832,"target":34962},{"buffer":0,"byteLength":720,"byteOffset":79752,"target":34963},{"buffer":0,"byteLength":1440,"byteOffset":80472,"target":34962},{"buffer":0,"byteLength":1440,"byteOffset":81912,"target":34962},{"buffer":0,"byteLength":960,"byteOffset":83352,"target":34962},{"buffer":0,"byteLength":360,"byteOffset":84312,"target":34963}],"samplers":[{"magFilter":9729,"minFilter":9987}],"buffers":[{"byteLength":84672,"uri":"hospital.bin"}]}