{"asset":{"generator":"Khronos glTF Blender I/O v4.5.51","version":"2.0"},"scene":0,"scenes":[{"name":"Scene","nodes":[0]}],"nodes":[{"mesh":0,"name":"House"}],"materials":[{"doubleSided":true,"name":"Stone","normalTexture":{"index":0,"scale":0.800000011920929},"pbrMetallicRoughness":{"baseColorTexture":{"index":1},"metallicFactor":0,"roughnessFactor":0.8799999952316284}},{"doubleSided":true,"name":"Plaster","normalTexture":{"index":2,"scale":0.800000011920929},"pbrMetallicRoughness":{"baseColorTexture":{"index":3},"metallicFactor":0,"roughnessFactor":0.949999988079071}},{"doubleSided":true,"name":"Timber","normalTexture":{"index":4,"scale":0.800000011920929},"pbrMetallicRoughness":{"baseColorTexture":{"index":5},"metallicFactor":0,"roughnessFactor":0.7200000286102295}},{"doubleSided":true,"name":"Slate","normalTexture":{"index":6,"scale":0.800000011920929},"pbrMetallicRoughness":{"baseColorTexture":{"index":7},"metallicFactor":0,"roughnessFactor":0.5199999809265137}},{"doubleSided":true,"name":"SlateLight","normalTexture":{"index":8,"scale":0.800000011920929},"pbrMetallicRoughness":{"baseColorTexture":{"index":9},"metallicFactor":0,"roughnessFactor":0.47999998927116394}},{"doubleSided":true,"name":"TimberDark","normalTexture":{"index":10,"scale":0.800000011920929},"pbrMetallicRoughness":{"baseColorTexture":{"index":11},"metallicFactor":0,"roughnessFactor":0.699999988079071}},{"doubleSided":true,"name":"Window","pbrMetallicRoughness":{"baseColorFactor":[0.023153366521000862,0.024157632142305374,0.03310476616024971,1],"metallicFactor":0,"roughnessFactor":0.3499999940395355}},{"doubleSided":true,"name":"StoneDark","normalTexture":{"index":12,"scale":0.800000011920929},"pbrMetallicRoughness":{"baseColorTexture":{"index":13},"metallicFactor":0,"roughnessFactor":0.8600000143051147}}],"meshes":[{"name":"Cube","primitives":[{"attributes":{"POSITION":0,"NORMAL":1,"TEXCOORD_0":2},"indices":3,"material":0},{"attributes":{"POSITION":4,"NORMAL":5,"TEXCOORD_0":6},"indices":7,"material":1},{"attributes":{"POSITION":8,"NORMAL":9,"TEXCOORD_0":10},"indices":11,"material":2},{"attributes":{"POSITION":12,"NORMAL":13,"TEXCOORD_0":14},"indices":15,"material":3},{"attributes":{"POSITION":16,"NORMAL":17,"TEXCOORD_0":18},"indices":19,"material":4},{"attributes":{"POSITION":20,"NORMAL":21,"TEXCOORD_0":22},"indices":7,"material":5},{"attributes":{"POSITION":23,"NORMAL":24,"TEXCOORD_0":25},"indices":26,"material":6},{"attributes":{"POSITION":27,"NORMAL":28,"TEXCOORD_0":29},"indices":30,"material":7}]}],"textures":[{"sampler":0,"source":0},{"sampler":0,"source":1},{"sampler":0,"source":2},{"sampler":0,"source":3},{"sampler":0,"source":4},{"sampler":0,"source":5},{"sampler":0,"source":6},{"sampler":0,"source":7},{"sampler":0,"source":6},{"sampler":0,"source":7},{"sampler":0,"source":4},{"sampler":0,"source":5},{"sampler":0,"source":0},{"sampler":0,"source":1}],"images":[{"mimeType":"image/png","name":"mat_masonry_n","uri":"../textures/mat_masonry_n.png"},{"mimeType":"image/png","name":"mat_masonry","uri":"../textures/mat_masonry.png"},{"mimeType":"image/png","name":"mat_plaster_n","uri":"../textures/mat_plaster_n.png"},{"mimeType":"image/png","name":"mat_plaster","uri":"../textures/mat_plaster.png"},{"mimeType":"image/png","name":"mat_timber_n","uri":"../textures/mat_timber_n.png"},{"mimeType":"image/png","name":"mat_timber","uri":"../textures/mat_timber.png"},{"mimeType":"image/png","name":"mat_shingle_n","uri":"../textures/mat_shingle_n.png"},{"mimeType":"image/png","name":"mat_shingle","uri":"../textures/mat_shingle.png"}],"accessors":[{"bufferView":0,"componentType":5126,"count":120,"max":[1,2.9700002670288086,1],"min":[-1,0,-1],"type":"VEC3"},{"bufferView":1,"componentType":5126,"count":120,"type":"VEC3"},{"bufferView":2,"componentType":5126,"count":120,"type":"VEC2"},{"bufferView":3,"componentType":5123,"count":168,"type":"SCALAR"},{"bufferView":4,"componentType":5126,"count":24,"max":[0.9300000071525574,1.7000000476837158,0.9300000071525574],"min":[-0.9300000071525574,0.30000001192092896,-0.9300000071525574],"type":"VEC3"},{"bufferView":5,"componentType":5126,"count":24,"type":"VEC3"},{"bufferView":6,"componentType":5126,"count":24,"type":"VEC2"},{"bufferView":7,"componentType":5123,"count":36,"type":"SCALAR"},{"bufferView":8,"componentType":5126,"count":312,"max":[1,1.7000000476837158,1],"min":[-1,0.30000001192092896,-1.0199999809265137],"type":"VEC3"},{"bufferView":9,"componentType":5126,"count":312,"type":"VEC3"},{"bufferView":10,"componentType":5126,"count":312,"type":"VEC2"},{"bufferView":11,"componentType":5123,"count":468,"type":"SCALAR"},{"bufferView":12,"componentType":5126,"count":216,"max":[1.1646642684936523,3.000000238418579,1.100000023841858],"min":[-1.1646642684936523,1.6734375953674316,-1.100000023841858],"type":"VEC3"},{"bufferView":13,"componentType":5126,"count":216,"type":"VEC3"},{"bufferView":14,"componentType":5126,"count":216,"type":"VEC2"},{"bufferView":15,"componentType":5123,"count":324,"type":"SCALAR"},{"bufferView":16,"componentType":5126,"count":192,"max":[1.0271642208099365,3.012897491455078,1.100000023841858],"min":[-1.0271642208099365,1.8296875953674316,-1.100000023841858],"type":"VEC3"},{"bufferView":17,"componentType":5126,"count":192,"type":"VEC3"},{"bufferView":18,"componentType":5126,"count":192,"type":"VEC2"},{"bufferView":19,"componentType":5123,"count":288,"type":"SCALAR"},{"bufferView":20,"componentType":5126,"count":24,"max":[0.2199999988079071,1.0200001001358032,-0.9099999666213989],"min":[-0.2199999988079071,0.30000001192092896,-1.0099999904632568],"type":"VEC3"},{"bufferView":21,"componentType":5126,"count":24,"type":"VEC3"},{"bufferView":22,"componentType":5126,"count":24,"type":"VEC2"},{"bufferView":23,"componentType":5126,"count":48,"max":[0.7699999809265137,1.159999966621399,-0.9199999570846558],"min":[-0.7699999809265137,0.8799999952316284,-1],"type":"VEC3"},{"bufferView":24,"componentType":5126,"count":48,"type":"VEC3"},{"bufferView":25,"componentType":5126,"count":48,"type":"VEC2"},{"bufferView":26,"componentType":5123,"count":72,"type":"SCALAR"},{"bufferView":27,"componentType":5126,"count":96,"max":[0.690000057220459,2.9000000953674316,0.5699999928474426],"min":[0.39000001549720764,1.600000023841858,0.26999998092651367],"type":"VEC3"},{"bufferView":28,"componentType":5126,"count":96,"type":"VEC3"},{"bufferView":29,"componentType":5126,"count":96,"type":"VEC2"},{"bufferView":30,"componentType":5123,"count":132,"type":"SCALAR"}],"bufferViews":[{"buffer":0,"byteLength":1440,"byteOffset":0,"target":34962},{"buffer":0,"byteLength":1440,"byteOffset":1440,"target":34962},{"buffer":0,"byteLength":960,"byteOffset":2880,"target":34962},{"buffer":0,"byteLength":336,"byteOffset":3840,"target":34963},{"buffer":0,"byteLength":288,"byteOffset":4176,"target":34962},{"buffer":0,"byteLength":288,"byteOffset":4464,"target":34962},{"buffer":0,"byteLength":192,"byteOffset":4752,"target":34962},{"buffer":0,"byteLength":72,"byteOffset":4944,"target":34963},{"buffer":0,"byteLength":3744,"byteOffset":5016,"target":34962},{"buffer":0,"byteLength":3744,"byteOffset":8760,"target":34962},{"buffer":0,"byteLength":2496,"byteOffset":12504,"target":34962},{"buffer":0,"byteLength":936,"byteOffset":15000,"target":34963},{"buffer":0,"byteLength":2592,"byteOffset":15936,"target":34962},{"buffer":0,"byteLength":2592,"byteOffset":18528,"target":34962},{"buffer":0,"byteLength":1728,"byteOffset":21120,"target":34962},{"buffer":0,"byteLength":648,"byteOffset":22848,"target":34963},{"buffer":0,"byteLength":2304,"byteOffset":23496,"target":34962},{"buffer":0,"byteLength":2304,"byteOffset":25800,"target":34962},{"buffer":0,"byteLength":1536,"byteOffset":28104,"target":34962},{"buffer":0,"byteLength":576,"byteOffset":29640,"target":34963},{"buffer":0,"byteLength":288,"byteOffset":30216,"target":34962},{"buffer":0,"byteLength":288,"byteOffset":30504,"target":34962},{"buffer":0,"byteLength":192,"byteOffset":30792,"target":34962},{"buffer":0,"byteLength":576,"byteOffset":30984,"target":34962},{"buffer":0,"byteLength":576,"byteOffset":31560,"target":34962},{"buffer":0,"byteLength":384,"byteOffset":32136,"target":34962},{"buffer":0,"byteLength":144,"byteOffset":32520,"target":34963},{"buffer":0,"byteLength":1152,"byteOffset":32664,"target":34962},{"buffer":0,"byteLength":1152,"byteOffset":33816,"target":34962},{"buffer":0,"byteLength":768,"byteOffset":34968,"target":34962},{"buffer":0,"byteLength":264,"byteOffset":35736,"target":34963}],"samplers":[{"magFilter":9729,"minFilter":9987}],"buffers":[{"byteLength":36000,"uri":"house.bin"}]}