{"asset":{"generator":"Khronos glTF Blender I/O v4.5.51","version":"2.0"},"scene":0,"scenes":[{"name":"Scene","nodes":[0]}],"nodes":[{"mesh":0,"name":"Hunting"}],"materials":[{"doubleSided":true,"name":"StoneDark","normalTexture":{"index":0,"scale":0.800000011920929},"pbrMetallicRoughness":{"baseColorTexture":{"index":1},"metallicFactor":0,"roughnessFactor":0.8600000143051147}},{"doubleSided":true,"name":"Timber","normalTexture":{"index":2,"scale":0.800000011920929},"pbrMetallicRoughness":{"baseColorTexture":{"index":3},"metallicFactor":0,"roughnessFactor":0.7200000286102295}},{"doubleSided":true,"name":"Bark","normalTexture":{"index":4,"scale":0.800000011920929},"pbrMetallicRoughness":{"baseColorTexture":{"index":5},"metallicFactor":0,"roughnessFactor":0.8999999761581421}},{"doubleSided":true,"name":"Shake","normalTexture":{"index":6,"scale":0.800000011920929},"pbrMetallicRoughness":{"baseColorTexture":{"index":7},"metallicFactor":0,"roughnessFactor":0.8600000143051147}},{"doubleSided":true,"name":"ShakeLight","normalTexture":{"index":8,"scale":0.800000011920929},"pbrMetallicRoughness":{"baseColorTexture":{"index":9},"metallicFactor":0,"roughnessFactor":0.8399999737739563}},{"doubleSided":true,"name":"TimberDark","normalTexture":{"index":10,"scale":0.800000011920929},"pbrMetallicRoughness":{"baseColorTexture":{"index":11},"metallicFactor":0,"roughnessFactor":0.699999988079071}},{"doubleSided":true,"name":"Window","pbrMetallicRoughness":{"baseColorFactor":[0.023153366521000862,0.024157632142305374,0.03310476616024971,1],"metallicFactor":0,"roughnessFactor":0.3499999940395355}},{"doubleSided":true,"name":"Cloth","pbrMetallicRoughness":{"baseColorFactor":[0.6239603757858276,0.5457244515419006,0.4019777774810791,1],"metallicFactor":0,"roughnessFactor":0.8799999952316284}}],"meshes":[{"name":"Cube","primitives":[{"attributes":{"POSITION":0,"NORMAL":1,"TEXCOORD_0":2},"indices":3,"material":0},{"attributes":{"POSITION":4,"NORMAL":5,"TEXCOORD_0":6},"indices":7,"material":1},{"attributes":{"POSITION":8,"NORMAL":9,"TEXCOORD_0":10},"indices":11,"material":2},{"attributes":{"POSITION":12,"NORMAL":13,"TEXCOORD_0":14},"indices":15,"material":3},{"attributes":{"POSITION":16,"NORMAL":17,"TEXCOORD_0":18},"indices":19,"material":4},{"attributes":{"POSITION":20,"NORMAL":21,"TEXCOORD_0":22},"indices":23,"material":5},{"attributes":{"POSITION":24,"NORMAL":25,"TEXCOORD_0":26},"indices":27,"material":6},{"attributes":{"POSITION":28,"NORMAL":29,"TEXCOORD_0":30},"indices":31,"material":7}]}],"textures":[{"sampler":0,"source":0},{"sampler":0,"source":1},{"sampler":0,"source":2},{"sampler":0,"source":3},{"sampler":0,"source":4},{"sampler":0,"source":5},{"sampler":0,"source":6},{"sampler":0,"source":7},{"sampler":0,"source":6},{"sampler":0,"source":7},{"sampler":0,"source":2},{"sampler":0,"source":3}],"images":[{"mimeType":"image/png","name":"mat_masonry_n","uri":"../textures/mat_masonry_n.png"},{"mimeType":"image/png","name":"mat_masonry","uri":"../textures/mat_masonry.png"},{"mimeType":"image/png","name":"mat_timber_n","uri":"../textures/mat_timber_n.png"},{"mimeType":"image/png","name":"mat_timber","uri":"../textures/mat_timber.png"},{"mimeType":"image/png","name":"mat_bark_n","uri":"../textures/mat_bark_n.png"},{"mimeType":"image/png","name":"mat_bark","uri":"../textures/mat_bark.png"},{"mimeType":"image/png","name":"mat_shake_n","uri":"../textures/mat_shake_n.png"},{"mimeType":"image/png","name":"mat_shake","uri":"../textures/mat_shake.png"}],"accessors":[{"bufferView":0,"componentType":5126,"count":96,"max":[0.6973443031311035,0.18000003695487976,1.3728125095367432],"min":[-1.3626556396484375,2.2351741790771484e-08,-0.34718745946884155],"type":"VEC3"},{"bufferView":1,"componentType":5126,"count":96,"type":"VEC3"},{"bufferView":2,"componentType":5126,"count":96,"type":"VEC2"},{"bufferView":3,"componentType":5123,"count":132,"type":"SCALAR"},{"bufferView":4,"componentType":5126,"count":672,"max":[1.5273442268371582,1.2000000476837158,1.2928125858306885],"min":[-1.2826557159423828,2.2351741790771484e-08,-1.2121875286102295],"type":"VEC3"},{"bufferView":5,"componentType":5126,"count":672,"type":"VEC3"},{"bufferView":6,"componentType":5126,"count":672,"type":"VEC2"},{"bufferView":7,"componentType":5123,"count":1008,"type":"SCALAR"},{"bufferView":8,"componentType":5126,"count":720,"max":[0.6173443794250488,1.3322666883468628,1.2928125858306885],"min":[-1.2826557159423828,0,-1.4728126525878906],"type":"VEC3"},{"bufferView":9,"componentType":5126,"count":720,"type":"VEC3"},{"bufferView":10,"componentType":5126,"count":720,"type":"VEC2"},{"bufferView":11,"componentType":5123,"count":1188,"type":"SCALAR"},{"bufferView":12,"componentType":5126,"count":240,"max":[0.8620330095291138,2.445726156234741,1.4728126525878906],"min":[-1.5273442268371582,1.1892578601837158,-0.8855767846107483],"type":"VEC3"},{"bufferView":13,"componentType":5126,"count":240,"type":"VEC3"},{"bufferView":14,"componentType":5126,"count":240,"type":"VEC2"},{"bufferView":15,"componentType":5123,"count":360,"type":"SCALAR"},{"bufferView":16,"componentType":5126,"count":144,"max":[0.7006045579910278,2.2971549034118652,1.4728126525878906],"min":[-1.3659158945083618,1.4633142948150635,-0.44718748331069946],"type":"VEC3"},{"bufferView":17,"componentType":5126,"count":144,"type":"VEC3"},{"bufferView":18,"componentType":5126,"count":144,"type":"VEC2"},{"bufferView":19,"componentType":5123,"count":216,"type":"SCALAR"},{"bufferView":20,"componentType":5126,"count":96,"max":[1.3373444080352783,1.0800000429153442,-0.17718744277954102],"min":[-0.5326557159423828,2.2351741790771484e-08,-1.2671875953674316],"type":"VEC3"},{"bufferView":21,"componentType":5126,"count":96,"type":"VEC3"},{"bufferView":22,"componentType":5126,"count":96,"type":"VEC2"},{"bufferView":23,"componentType":5123,"count":144,"type":"SCALAR"},{"bufferView":24,"componentType":5126,"count":48,"max":[0.4073443114757538,1.059999942779541,-0.18718743324279785],"min":[-1.0726556777954102,0.8200000524520874,-0.2671874761581421],"type":"VEC3"},{"bufferView":25,"componentType":5126,"count":48,"type":"VEC3"},{"bufferView":26,"componentType":5126,"count":48,"type":"VEC2"},{"bufferView":27,"componentType":5123,"count":72,"type":"SCALAR"},{"bufferView":28,"componentType":5126,"count":168,"max":[1.4133442640304565,0.6000000238418579,0.9278125762939453],"min":[0.5390943288803101,0.2600000202655792,-0.22218751907348633],"type":"VEC3"},{"bufferView":29,"componentType":5126,"count":168,"type":"VEC3"},{"bufferView":30,"componentType":5126,"count":168,"type":"VEC2"},{"bufferView":31,"componentType":5123,"count":252,"type":"SCALAR"}],"bufferViews":[{"buffer":0,"byteLength":1152,"byteOffset":0,"target":34962},{"buffer":0,"byteLength":1152,"byteOffset":1152,"target":34962},{"buffer":0,"byteLength":768,"byteOffset":2304,"target":34962},{"buffer":0,"byteLength":264,"byteOffset":3072,"target":34963},{"buffer":0,"byteLength":8064,"byteOffset":3336,"target":34962},{"buffer":0,"byteLength":8064,"byteOffset":11400,"target":34962},{"buffer":0,"byteLength":5376,"byteOffset":19464,"target":34962},{"buffer":0,"byteLength":2016,"byteOffset":24840,"target":34963},{"buffer":0,"byteLength":8640,"byteOffset":26856,"target":34962},{"buffer":0,"byteLength":8640,"byteOffset":35496,"target":34962},{"buffer":0,"byteLength":5760,"byteOffset":44136,"target":34962},{"buffer":0,"byteLength":2376,"byteOffset":49896,"target":34963},{"buffer":0,"byteLength":2880,"byteOffset":52272,"target":34962},{"buffer":0,"byteLength":2880,"byteOffset":55152,"target":34962},{"buffer":0,"byteLength":1920,"byteOffset":58032,"target":34962},{"buffer":0,"byteLength":720,"byteOffset":59952,"target":34963},{"buffer":0,"byteLength":1728,"byteOffset":60672,"target":34962},{"buffer":0,"byteLength":1728,"byteOffset":62400,"target":34962},{"buffer":0,"byteLength":1152,"byteOffset":64128,"target":34962},{"buffer":0,"byteLength":432,"byteOffset":65280,"target":34963},{"buffer":0,"byteLength":1152,"byteOffset":65712,"target":34962},{"buffer":0,"byteLength":1152,"byteOffset":66864,"target":34962},{"buffer":0,"byteLength":768,"byteOffset":68016,"target":34962},{"buffer":0,"byteLength":288,"byteOffset":68784,"target":34963},{"buffer":0,"byteLength":576,"byteOffset":69072,"target":34962},{"buffer":0,"byteLength":576,"byteOffset":69648,"target":34962},{"buffer":0,"byteLength":384,"byteOffset":70224,"target":34962},{"buffer":0,"byteLength":144,"byteOffset":70608,"target":34963},{"buffer":0,"byteLength":2016,"byteOffset":70752,"target":34962},{"buffer":0,"byteLength":2016,"byteOffset":72768,"target":34962},{"buffer":0,"byteLength":1344,"byteOffset":74784,"target":34962},{"buffer":0,"byteLength":504,"byteOffset":76128,"target":34963}],"samplers":[{"magFilter":9729,"minFilter":9987}],"buffers":[{"byteLength":76632,"uri":"hunting.bin"}]}