{"asset":{"generator":"Khronos glTF Blender I/O v4.5.51","version":"2.0"},"scene":0,"scenes":[{"name":"Scene","nodes":[0]}],"nodes":[{"mesh":0,"name":"Lumberyard"}],"materials":[{"doubleSided":true,"name":"StoneDark","normalTexture":{"index":0,"scale":0.800000011920929},"pbrMetallicRoughness":{"baseColorTexture":{"index":1},"metallicFactor":0,"roughnessFactor":0.8600000143051147}},{"doubleSided":true,"name":"Plaster","normalTexture":{"index":2,"scale":0.800000011920929},"pbrMetallicRoughness":{"baseColorTexture":{"index":3},"metallicFactor":0,"roughnessFactor":0.949999988079071}},{"doubleSided":true,"name":"Timber","normalTexture":{"index":4,"scale":0.800000011920929},"pbrMetallicRoughness":{"baseColorTexture":{"index":5},"metallicFactor":0,"roughnessFactor":0.7200000286102295}},{"doubleSided":true,"name":"Shake","normalTexture":{"index":6,"scale":0.800000011920929},"pbrMetallicRoughness":{"baseColorTexture":{"index":7},"metallicFactor":0,"roughnessFactor":0.8600000143051147}},{"doubleSided":true,"name":"ShakeLight","normalTexture":{"index":8,"scale":0.800000011920929},"pbrMetallicRoughness":{"baseColorTexture":{"index":9},"metallicFactor":0,"roughnessFactor":0.8399999737739563}},{"doubleSided":true,"name":"TimberDark","normalTexture":{"index":10,"scale":0.800000011920929},"pbrMetallicRoughness":{"baseColorTexture":{"index":11},"metallicFactor":0,"roughnessFactor":0.699999988079071}},{"doubleSided":true,"name":"Window","pbrMetallicRoughness":{"baseColorFactor":[0.023153366521000862,0.024157632142305374,0.03310476616024971,1],"metallicFactor":0,"roughnessFactor":0.3499999940395355}},{"doubleSided":true,"name":"Soil","normalTexture":{"index":12,"scale":0.800000011920929},"pbrMetallicRoughness":{"baseColorTexture":{"index":13},"metallicFactor":0}},{"doubleSided":true,"name":"Bark","normalTexture":{"index":14,"scale":0.800000011920929},"pbrMetallicRoughness":{"baseColorTexture":{"index":15},"metallicFactor":0,"roughnessFactor":0.8999999761581421}},{"doubleSided":true,"name":"Foliage","normalTexture":{"index":16,"scale":0.800000011920929},"pbrMetallicRoughness":{"baseColorTexture":{"index":17},"metallicFactor":0,"roughnessFactor":0.800000011920929}},{"doubleSided":true,"name":"FoliageLight","normalTexture":{"index":18,"scale":0.800000011920929},"pbrMetallicRoughness":{"baseColorTexture":{"index":19},"metallicFactor":0,"roughnessFactor":0.7799999713897705}},{"doubleSided":true,"name":"Metal","pbrMetallicRoughness":{"baseColorFactor":[0.06847816705703735,0.07036009430885315,0.0802198201417923,1],"metallicFactor":0,"roughnessFactor":0.41999998688697815}}],"meshes":[{"name":"Cube","primitives":[{"attributes":{"POSITION":0,"NORMAL":1,"TEXCOORD_0":2},"indices":3,"material":0},{"attributes":{"POSITION":4,"NORMAL":5,"TEXCOORD_0":6},"indices":7,"material":1},{"attributes":{"POSITION":8,"NORMAL":9,"TEXCOORD_0":10},"indices":11,"material":2},{"attributes":{"POSITION":12,"NORMAL":13,"TEXCOORD_0":14},"indices":15,"material":3},{"attributes":{"POSITION":16,"NORMAL":17,"TEXCOORD_0":18},"indices":19,"material":4},{"attributes":{"POSITION":20,"NORMAL":21,"TEXCOORD_0":22},"indices":7,"material":5},{"attributes":{"POSITION":23,"NORMAL":24,"TEXCOORD_0":25},"indices":7,"material":6},{"attributes":{"POSITION":26,"NORMAL":27,"TEXCOORD_0":28},"indices":29,"material":7},{"attributes":{"POSITION":30,"NORMAL":31,"TEXCOORD_0":32},"indices":33,"material":8},{"attributes":{"POSITION":34,"NORMAL":35,"TEXCOORD_0":36},"indices":37,"material":9},{"attributes":{"POSITION":38,"NORMAL":39,"TEXCOORD_0":40},"indices":37,"material":10},{"attributes":{"POSITION":41,"NORMAL":42,"TEXCOORD_0":43},"indices":7,"material":11}]}],"textures":[{"sampler":0,"source":0},{"sampler":0,"source":1},{"sampler":0,"source":2},{"sampler":0,"source":3},{"sampler":0,"source":4},{"sampler":0,"source":5},{"sampler":0,"source":6},{"sampler":0,"source":7},{"sampler":0,"source":6},{"sampler":0,"source":7},{"sampler":0,"source":4},{"sampler":0,"source":5},{"sampler":0,"source":0},{"sampler":0,"source":1},{"sampler":0,"source":8},{"sampler":0,"source":9},{"sampler":0,"source":10},{"sampler":0,"source":11},{"sampler":0,"source":10},{"sampler":0,"source":11}],"images":[{"mimeType":"image/png","name":"mat_masonry_n","uri":"../textures/mat_masonry_n.png"},{"mimeType":"image/png","name":"mat_masonry","uri":"../textures/mat_masonry.png"},{"mimeType":"image/png","name":"mat_plaster_n","uri":"../textures/mat_plaster_n.png"},{"mimeType":"image/png","name":"mat_plaster","uri":"../textures/mat_plaster.png"},{"mimeType":"image/png","name":"mat_timber_n","uri":"../textures/mat_timber_n.png"},{"mimeType":"image/png","name":"mat_timber","uri":"../textures/mat_timber.png"},{"mimeType":"image/png","name":"mat_shake_n","uri":"../textures/mat_shake_n.png"},{"mimeType":"image/png","name":"mat_shake","uri":"../textures/mat_shake.png"},{"mimeType":"image/png","name":"mat_bark_n","uri":"../textures/mat_bark_n.png"},{"mimeType":"image/png","name":"mat_bark","uri":"../textures/mat_bark.png"},{"mimeType":"image/png","name":"mat_foliage_n","uri":"../textures/mat_foliage_n.png"},{"mimeType":"image/png","name":"mat_foliage","uri":"../textures/mat_foliage.png"}],"accessors":[{"bufferView":0,"componentType":5126,"count":96,"max":[0.29959267377853394,0.1676902174949646,1.3949999809265137],"min":[-1.3904073238372803,0.007690221071243286,-0.16499990224838257],"type":"VEC3"},{"bufferView":1,"componentType":5126,"count":96,"type":"VEC3"},{"bufferView":2,"componentType":5126,"count":96,"type":"VEC2"},{"bufferView":3,"componentType":5123,"count":132,"type":"SCALAR"},{"bufferView":4,"componentType":5126,"count":24,"max":[0.1595926284790039,1.347690224647522,1.255000114440918],"min":[-1.250407338142395,0.167690247297287,-0.024999916553497314],"type":"VEC3"},{"bufferView":5,"componentType":5126,"count":24,"type":"VEC3"},{"bufferView":6,"componentType":5126,"count":24,"type":"VEC2"},{"bufferView":7,"componentType":5123,"count":36,"type":"SCALAR"},{"bufferView":8,"componentType":5126,"count":312,"max":[1.2131826877593994,1.347690224647522,1.3999998569488525],"min":[-1.3204073905944824,0,-0.19000005722045898],"type":"VEC3"},{"bufferView":9,"componentType":5126,"count":312,"type":"VEC3"},{"bufferView":10,"componentType":5126,"count":312,"type":"VEC2"},{"bufferView":11,"componentType":5123,"count":468,"type":"SCALAR"},{"bufferView":12,"componentType":5126,"count":216,"max":[0.43377816677093506,2.489471435546875,1.465000033378601],"min":[-1.5245928764343262,1.3214616775512695,-0.2349998950958252],"type":"VEC3"},{"bufferView":13,"componentType":5126,"count":216,"type":"VEC3"},{"bufferView":14,"componentType":5126,"count":216,"type":"VEC2"},{"bufferView":15,"componentType":5123,"count":324,"type":"SCALAR"},{"bufferView":16,"componentType":5126,"count":144,"max":[0.30306386947631836,2.335186004638672,1.465000033378601],"min":[-1.3938785791397095,1.4757473468780518,-0.2349998950958252],"type":"VEC3"},{"bufferView":17,"componentType":5126,"count":144,"type":"VEC3"},{"bufferView":18,"componentType":5126,"count":144,"type":"VEC2"},{"bufferView":19,"componentType":5123,"count":216,"type":"SCALAR"},{"bufferView":20,"componentType":5126,"count":24,"max":[-0.35540735721588135,0.8276902437210083,-0.004999935626983643],"min":[-0.7354073524475098,0.1676902174949646,-0.10500001907348633],"type":"VEC3"},{"bufferView":21,"componentType":5126,"count":24,"type":"VEC3"},{"bufferView":22,"componentType":5126,"count":24,"type":"VEC2"},{"bufferView":23,"componentType":5126,"count":24,"max":[0.08459264039993286,1.007690191268921,-0.014999985694885254],"min":[-0.17540737986564636,0.7676902413368225,-0.09499996900558472],"type":"VEC3"},{"bufferView":24,"componentType":5126,"count":24,"type":"VEC3"},{"bufferView":25,"componentType":5126,"count":24,"type":"VEC2"},{"bufferView":26,"componentType":5126,"count":72,"max":[1.4245924949645996,0.057690225541591644,-0.38499993085861206],"min":[-0.875407338142395,0.007690228521823883,-1.505000114440918],"type":"VEC3"},{"bufferView":27,"componentType":5126,"count":72,"type":"VEC3"},{"bufferView":28,"componentType":5126,"count":72,"type":"VEC2"},{"bufferView":29,"componentType":5123,"count":108,"type":"SCALAR"},{"bufferView":30,"componentType":5126,"count":1476,"max":[1.5245928764343262,0.5576902031898499,1.505000114440918],"min":[-0.7744598984718323,0.007690213620662689,-1.3870000839233398],"type":"VEC3"},{"bufferView":31,"componentType":5126,"count":1476,"type":"VEC3"},{"bufferView":32,"componentType":5126,"count":1476,"type":"VEC2"},{"bufferView":33,"componentType":5123,"count":2520,"type":"SCALAR"},{"bufferView":34,"componentType":5126,"count":588,"max":[1.409834861755371,0.3096902370452881,-0.4258933663368225],"min":[-0.8626493811607361,0.04569022357463837,-1.4749999046325684],"type":"VEC3"},{"bufferView":35,"componentType":5126,"count":588,"type":"VEC3"},{"bufferView":36,"componentType":5126,"count":588,"type":"VEC2"},{"bufferView":37,"componentType":5123,"count":756,"type":"SCALAR"},{"bufferView":38,"componentType":5126,"count":588,"max":[1.3757121562957764,0.4032902121543884,-0.45742732286453247],"min":[-0.8285269141197205,0.1517702043056488,-1.440000057220459],"type":"VEC3"},{"bufferView":39,"componentType":5126,"count":588,"type":"VEC3"},{"bufferView":40,"componentType":5126,"count":588,"type":"VEC2"},{"bufferView":41,"componentType":5126,"count":24,"max":[-0.12040737271308899,0.5926902294158936,-0.13999998569488525],"min":[-0.2504073679447174,0.46269023418426514,-0.19000005722045898],"type":"VEC3"},{"bufferView":42,"componentType":5126,"count":24,"type":"VEC3"},{"bufferView":43,"componentType":5126,"count":24,"type":"VEC2"}],"bufferViews":[{"buffer":0,"byteLength":1152,"byteOffset":0,"target":34962},{"buffer":0,"byteLength":1152,"byteOffset":1152,"target":34962},{"buffer":0,"byteLength":768,"byteOffset":2304,"target":34962},{"buffer":0,"byteLength":264,"byteOffset":3072,"target":34963},{"buffer":0,"byteLength":288,"byteOffset":3336,"target":34962},{"buffer":0,"byteLength":288,"byteOffset":3624,"target":34962},{"buffer":0,"byteLength":192,"byteOffset":3912,"target":34962},{"buffer":0,"byteLength":72,"byteOffset":4104,"target":34963},{"buffer":0,"byteLength":3744,"byteOffset":4176,"target":34962},{"buffer":0,"byteLength":3744,"byteOffset":7920,"target":34962},{"buffer":0,"byteLength":2496,"byteOffset":11664,"target":34962},{"buffer":0,"byteLength":936,"byteOffset":14160,"target":34963},{"buffer":0,"byteLength":2592,"byteOffset":15096,"target":34962},{"buffer":0,"byteLength":2592,"byteOffset":17688,"target":34962},{"buffer":0,"byteLength":1728,"byteOffset":20280,"target":34962},{"buffer":0,"byteLength":648,"byteOffset":22008,"target":34963},{"buffer":0,"byteLength":1728,"byteOffset":22656,"target":34962},{"buffer":0,"byteLength":1728,"byteOffset":24384,"target":34962},{"buffer":0,"byteLength":1152,"byteOffset":26112,"target":34962},{"buffer":0,"byteLength":432,"byteOffset":27264,"target":34963},{"buffer":0,"byteLength":288,"byteOffset":27696,"target":34962},{"buffer":0,"byteLength":288,"byteOffset":27984,"target":34962},{"buffer":0,"byteLength":192,"byteOffset":28272,"target":34962},{"buffer":0,"byteLength":288,"byteOffset":28464,"target":34962},{"buffer":0,"byteLength":288,"byteOffset":28752,"target":34962},{"buffer":0,"byteLength":192,"byteOffset":29040,"target":34962},{"buffer":0,"byteLength":864,"byteOffset":29232,"target":34962},{"buffer":0,"byteLength":864,"byteOffset":30096,"target":34962},{"buffer":0,"byteLength":576,"byteOffset":30960,"target":34962},{"buffer":0,"byteLength":216,"byteOffset":31536,"target":34963},{"buffer":0,"byteLength":17712,"byteOffset":31752,"target":34962},{"buffer":0,"byteLength":17712,"byteOffset":49464,"target":34962},{"buffer":0,"byteLength":11808,"byteOffset":67176,"target":34962},{"buffer":0,"byteLength":5040,"byteOffset":78984,"target":34963},{"buffer":0,"byteLength":7056,"byteOffset":84024,"target":34962},{"buffer":0,"byteLength":7056,"byteOffset":91080,"target":34962},{"buffer":0,"byteLength":4704,"byteOffset":98136,"target":34962},{"buffer":0,"byteLength":1512,"byteOffset":102840,"target":34963},{"buffer":0,"byteLength":7056,"byteOffset":104352,"target":34962},{"buffer":0,"byteLength":7056,"byteOffset":111408,"target":34962},{"buffer":0,"byteLength":4704,"byteOffset":118464,"target":34962},{"buffer":0,"byteLength":288,"byteOffset":123168,"target":34962},{"buffer":0,"byteLength":288,"byteOffset":123456,"target":34962},{"buffer":0,"byteLength":192,"byteOffset":123744,"target":34962}],"samplers":[{"magFilter":9729,"minFilter":9987}],"buffers":[{"byteLength":123936,"uri":"lumberyard.bin"}]}