{"asset":{"generator":"Khronos glTF Blender I/O v4.5.51","version":"2.0"},"scene":0,"scenes":[{"name":"Scene","nodes":[0]}],"nodes":[{"mesh":0,"name":"Luxury"}],"materials":[{"doubleSided":true,"name":"StoneDark","normalTexture":{"index":0,"scale":0.800000011920929},"pbrMetallicRoughness":{"baseColorTexture":{"index":1},"metallicFactor":0,"roughnessFactor":0.8600000143051147}},{"doubleSided":true,"name":"Stone","normalTexture":{"index":2,"scale":0.800000011920929},"pbrMetallicRoughness":{"baseColorTexture":{"index":3},"metallicFactor":0,"roughnessFactor":0.8799999952316284}},{"doubleSided":true,"name":"Plaster","normalTexture":{"index":4,"scale":0.800000011920929},"pbrMetallicRoughness":{"baseColorTexture":{"index":5},"metallicFactor":0,"roughnessFactor":0.949999988079071}},{"doubleSided":true,"name":"Timber","normalTexture":{"index":6,"scale":0.800000011920929},"pbrMetallicRoughness":{"baseColorTexture":{"index":7},"metallicFactor":0,"roughnessFactor":0.7200000286102295}},{"doubleSided":true,"name":"Slate","normalTexture":{"index":8,"scale":0.800000011920929},"pbrMetallicRoughness":{"baseColorTexture":{"index":9},"metallicFactor":0,"roughnessFactor":0.5199999809265137}},{"doubleSided":true,"name":"SlateLight","normalTexture":{"index":10,"scale":0.800000011920929},"pbrMetallicRoughness":{"baseColorTexture":{"index":11},"metallicFactor":0,"roughnessFactor":0.47999998927116394}},{"doubleSided":true,"name":"Window","pbrMetallicRoughness":{"baseColorFactor":[0.023153366521000862,0.024157632142305374,0.03310476616024971,1],"metallicFactor":0,"roughnessFactor":0.3499999940395355}},{"doubleSided":true,"name":"Cloth","pbrMetallicRoughness":{"baseColorFactor":[0.6239603757858276,0.5457244515419006,0.4019777774810791,1],"metallicFactor":0,"roughnessFactor":0.8799999952316284}},{"doubleSided":true,"name":"TimberDark","normalTexture":{"index":12,"scale":0.800000011920929},"pbrMetallicRoughness":{"baseColorTexture":{"index":13},"metallicFactor":0,"roughnessFactor":0.699999988079071}}],"meshes":[{"name":"Cube","primitives":[{"attributes":{"POSITION":0,"NORMAL":1,"TEXCOORD_0":2},"indices":3,"material":0},{"attributes":{"POSITION":4,"NORMAL":5,"TEXCOORD_0":6},"indices":7,"material":1},{"attributes":{"POSITION":8,"NORMAL":9,"TEXCOORD_0":10},"indices":11,"material":2},{"attributes":{"POSITION":12,"NORMAL":13,"TEXCOORD_0":14},"indices":15,"material":3},{"attributes":{"POSITION":16,"NORMAL":17,"TEXCOORD_0":18},"indices":19,"material":4},{"attributes":{"POSITION":20,"NORMAL":21,"TEXCOORD_0":22},"indices":23,"material":5},{"attributes":{"POSITION":24,"NORMAL":25,"TEXCOORD_0":26},"indices":27,"material":6},{"attributes":{"POSITION":28,"NORMAL":29,"TEXCOORD_0":30},"indices":11,"material":7},{"attributes":{"POSITION":31,"NORMAL":32,"TEXCOORD_0":33},"indices":34,"material":8}]}],"textures":[{"sampler":0,"source":0},{"sampler":0,"source":1},{"sampler":0,"source":0},{"sampler":0,"source":1},{"sampler":0,"source":2},{"sampler":0,"source":3},{"sampler":0,"source":4},{"sampler":0,"source":5},{"sampler":0,"source":6},{"sampler":0,"source":7},{"sampler":0,"source":6},{"sampler":0,"source":7},{"sampler":0,"source":4},{"sampler":0,"source":5}],"images":[{"mimeType":"image/png","name":"mat_masonry_n","uri":"../textures/mat_masonry_n.png"},{"mimeType":"image/png","name":"mat_masonry","uri":"../textures/mat_masonry.png"},{"mimeType":"image/png","name":"mat_plaster_n","uri":"../textures/mat_plaster_n.png"},{"mimeType":"image/png","name":"mat_plaster","uri":"../textures/mat_plaster.png"},{"mimeType":"image/png","name":"mat_timber_n","uri":"../textures/mat_timber_n.png"},{"mimeType":"image/png","name":"mat_timber","uri":"../textures/mat_timber.png"},{"mimeType":"image/png","name":"mat_shingle_n","uri":"../textures/mat_shingle_n.png"},{"mimeType":"image/png","name":"mat_shingle","uri":"../textures/mat_shingle.png"}],"accessors":[{"bufferView":0,"componentType":5126,"count":1968,"max":[1.7266794443130493,1.820000171661377,1.284999966621399],"min":[-2.466679573059082,0,-0.9550000429153442],"type":"VEC3"},{"bufferView":1,"componentType":5126,"count":1968,"type":"VEC3"},{"bufferView":2,"componentType":5126,"count":1968,"type":"VEC2"},{"bufferView":3,"componentType":5123,"count":2724,"type":"SCALAR"},{"bufferView":4,"componentType":5126,"count":192,"max":[1.6366794109344482,1.8650001287460327,1.1949998140335083],"min":[-2.2841200828552246,0.23999999463558197,-0.8649998903274536],"type":"VEC3"},{"bufferView":5,"componentType":5126,"count":192,"type":"VEC3"},{"bufferView":6,"componentType":5126,"count":192,"type":"VEC2"},{"bufferView":7,"componentType":5123,"count":264,"type":"SCALAR"},{"bufferView":8,"componentType":5126,"count":96,"max":[1.5666793584823608,2.359999895095825,1.124999761581421],"min":[-1.693320393562317,1.3000001907348633,-0.794999897480011],"type":"VEC3"},{"bufferView":9,"componentType":5126,"count":96,"type":"VEC3"},{"bufferView":10,"componentType":5126,"count":96,"type":"VEC2"},{"bufferView":11,"componentType":5123,"count":132,"type":"SCALAR"},{"bufferView":12,"componentType":5126,"count":1920,"max":[2.466679573059082,2.359999895095825,1.2549999952316284],"min":[-1.8233203887939453,0.24700000882148743,-1.1299998760223389],"type":"VEC3"},{"bufferView":13,"componentType":5126,"count":1920,"type":"VEC3"},{"bufferView":14,"componentType":5126,"count":1920,"type":"VEC2"},{"bufferView":15,"componentType":5123,"count":2640,"type":"SCALAR"},{"bufferView":16,"componentType":5126,"count":1056,"max":[1.841036081314087,3.2699999809265137,1.34499990940094],"min":[-1.967677116394043,2.3459787368774414,-1.0149999856948853],"type":"VEC3"},{"bufferView":17,"componentType":5126,"count":1056,"type":"VEC3"},{"bufferView":18,"componentType":5126,"count":1056,"type":"VEC2"},{"bufferView":19,"componentType":5123,"count":1452,"type":"SCALAR"},{"bufferView":20,"componentType":5126,"count":960,"max":[1.656036138534546,3.283895969390869,1.34499990940094],"min":[-1.782677173614502,2.431978464126587,-1.0149999856948853],"type":"VEC3"},{"bufferView":21,"componentType":5126,"count":960,"type":"VEC3"},{"bufferView":22,"componentType":5126,"count":960,"type":"VEC2"},{"bufferView":23,"componentType":5123,"count":1320,"type":"SCALAR"},{"bufferView":24,"componentType":5126,"count":576,"max":[1.346679449081421,2.009999990463257,-0.7850000262260437],"min":[-1.473320484161377,0.43000006675720215,-0.8650000095367432],"type":"VEC3"},{"bufferView":25,"componentType":5126,"count":576,"type":"VEC3"},{"bufferView":26,"componentType":5126,"count":576,"type":"VEC2"},{"bufferView":27,"componentType":5123,"count":792,"type":"SCALAR"},{"bufferView":28,"componentType":5126,"count":96,"max":[1.5366793870925903,1.3050000667572021,-0.824999988079071],"min":[-1.6633204221725464,1.2150001525878906,-1.34499990940094],"type":"VEC3"},{"bufferView":29,"componentType":5126,"count":96,"type":"VEC3"},{"bufferView":30,"componentType":5126,"count":96,"type":"VEC2"},{"bufferView":31,"componentType":5126,"count":288,"max":[2.1266794204711914,1.6150001287460327,1.2049999237060547],"min":[-0.3033204972743988,0.23999996483325958,-1.1399998664855957],"type":"VEC3"},{"bufferView":32,"componentType":5126,"count":288,"type":"VEC3"},{"bufferView":33,"componentType":5126,"count":288,"type":"VEC2"},{"bufferView":34,"componentType":5123,"count":396,"type":"SCALAR"}],"bufferViews":[{"buffer":0,"byteLength":23616,"byteOffset":0,"target":34962},{"buffer":0,"byteLength":23616,"byteOffset":23616,"target":34962},{"buffer":0,"byteLength":15744,"byteOffset":47232,"target":34962},{"buffer":0,"byteLength":5448,"byteOffset":62976,"target":34963},{"buffer":0,"byteLength":2304,"byteOffset":68424,"target":34962},{"buffer":0,"byteLength":2304,"byteOffset":70728,"target":34962},{"buffer":0,"byteLength":1536,"byteOffset":73032,"target":34962},{"buffer":0,"byteLength":528,"byteOffset":74568,"target":34963},{"buffer":0,"byteLength":1152,"byteOffset":75096,"target":34962},{"buffer":0,"byteLength":1152,"byteOffset":76248,"target":34962},{"buffer":0,"byteLength":768,"byteOffset":77400,"target":34962},{"buffer":0,"byteLength":264,"byteOffset":78168,"target":34963},{"buffer":0,"byteLength":23040,"byteOffset":78432,"target":34962},{"buffer":0,"byteLength":23040,"byteOffset":101472,"target":34962},{"buffer":0,"byteLength":15360,"byteOffset":124512,"target":34962},{"buffer":0,"byteLength":5280,"byteOffset":139872,"target":34963},{"buffer":0,"byteLength":12672,"byteOffset":145152,"target":34962},{"buffer":0,"byteLength":12672,"byteOffset":157824,"target":34962},{"buffer":0,"byteLength":8448,"byteOffset":170496,"target":34962},{"buffer":0,"byteLength":2904,"byteOffset":178944,"target":34963},{"buffer":0,"byteLength":11520,"byteOffset":181848,"target":34962},{"buffer":0,"byteLength":11520,"byteOffset":193368,"target":34962},{"buffer":0,"byteLength":7680,"byteOffset":204888,"target":34962},{"buffer":0,"byteLength":2640,"byteOffset":212568,"target":34963},{"buffer":0,"byteLength":6912,"byteOffset":215208,"target":34962},{"buffer":0,"byteLength":6912,"byteOffset":222120,"target":34962},{"buffer":0,"byteLength":4608,"byteOffset":229032,"target":34962},{"buffer":0,"byteLength":1584,"byteOffset":233640,"target":34963},{"buffer":0,"byteLength":1152,"byteOffset":235224,"target":34962},{"buffer":0,"byteLength":1152,"byteOffset":236376,"target":34962},{"buffer":0,"byteLength":768,"byteOffset":237528,"target":34962},{"buffer":0,"byteLength":3456,"byteOffset":238296,"target":34962},{"buffer":0,"byteLength":3456,"byteOffset":241752,"target":34962},{"buffer":0,"byteLength":2304,"byteOffset":245208,"target":34962},{"buffer":0,"byteLength":792,"byteOffset":247512,"target":34963}],"samplers":[{"magFilter":9729,"minFilter":9987}],"buffers":[{"byteLength":248304,"uri":"luxury.bin"}]}