{"asset":{"generator":"Khronos glTF Blender I/O v4.5.51","version":"2.0"},"scene":0,"scenes":[{"name":"Scene","nodes":[0]}],"nodes":[{"mesh":0,"name":"Maple"}],"materials":[{"doubleSided":true,"name":"Bark","normalTexture":{"index":0,"scale":0.800000011920929},"pbrMetallicRoughness":{"baseColorTexture":{"index":1},"metallicFactor":0,"roughnessFactor":0.8999999761581421,"baseColorFactor":[0.10224173308810132,0.05780543019106723,0.033104766570885055,1.0]}},{"doubleSided":true,"name":"MapleLeaf","normalTexture":{"index":2,"scale":0.800000011920929},"pbrMetallicRoughness":{"baseColorTexture":{"index":3},"metallicFactor":0,"roughnessFactor":0.800000011920929,"baseColorFactor":[0.25415209433082675,0.1946178304415758,0.03954623527673284,1.0]}},{"doubleSided":true,"name":"MapleLeafLight","normalTexture":{"index":4,"scale":0.800000011920929},"pbrMetallicRoughness":{"baseColorTexture":{"index":5},"metallicFactor":0,"roughnessFactor":0.7799999713897705,"baseColorFactor":[0.3662525955988395,0.2961382707983211,0.0595112381629812,1.0]}}],"meshes":[{"name":"Cone","primitives":[{"attributes":{"POSITION":0,"NORMAL":1,"TEXCOORD_0":2},"indices":3,"material":0},{"attributes":{"POSITION":4,"NORMAL":5,"TEXCOORD_0":6},"indices":7,"material":1},{"attributes":{"POSITION":8,"NORMAL":9,"TEXCOORD_0":10},"indices":11,"material":2}]}],"textures":[{"sampler":0,"source":0},{"sampler":0,"source":1},{"sampler":0,"source":2},{"sampler":0,"source":3},{"sampler":0,"source":2},{"sampler":0,"source":3}],"images":[{"mimeType":"image/png","name":"mat_bark_n","uri":"../textures/mat_bark_n.png"},{"mimeType":"image/png","name":"mat_bark","uri":"../textures/mat_bark.png"},{"mimeType":"image/png","name":"mat_foliage_n","uri":"../textures/mat_foliage_n.png"},{"mimeType":"image/png","name":"mat_foliage","uri":"../textures/mat_foliage.png"}],"accessors":[{"bufferView":0,"componentType":5126,"count":108,"max":[0.12919500470161438,1.6880745887756348,0.232690691947937],"min":[-0.29723432660102844,0,-0.25170600414276123],"type":"VEC3"},{"bufferView":1,"componentType":5126,"count":108,"type":"VEC3"},{"bufferView":2,"componentType":5126,"count":108,"type":"VEC2"},{"bufferView":3,"componentType":5123,"count":168,"type":"SCALAR"},{"bufferView":4,"componentType":5126,"count":126,"max":[0.4836568832397461,2.3935999870300293,0.46940335631370544],"min":[-0.5405430197715759,1.4783999919891357,-0.5392366051673889],"type":"VEC3"},{"bufferView":5,"componentType":5126,"count":126,"type":"VEC3"},{"bufferView":6,"componentType":5126,"count":126,"type":"VEC2"},{"bufferView":7,"componentType":5123,"count":162,"type":"SCALAR"},{"bufferView":8,"componentType":5126,"count":210,"max":[0.5648505687713623,2.044800043106079,0.5392366051673889],"min":[-0.5648505687713623,1.502000093460083,-0.5017238259315491],"type":"VEC3"},{"bufferView":9,"componentType":5126,"count":210,"type":"VEC3"},{"bufferView":10,"componentType":5126,"count":210,"type":"VEC2"},{"bufferView":11,"componentType":5123,"count":252,"type":"SCALAR"}],"bufferViews":[{"buffer":0,"byteLength":1296,"byteOffset":0,"target":34962},{"buffer":0,"byteLength":1296,"byteOffset":1296,"target":34962},{"buffer":0,"byteLength":864,"byteOffset":2592,"target":34962},{"buffer":0,"byteLength":336,"byteOffset":3456,"target":34963},{"buffer":0,"byteLength":1512,"byteOffset":3792,"target":34962},{"buffer":0,"byteLength":1512,"byteOffset":5304,"target":34962},{"buffer":0,"byteLength":1008,"byteOffset":6816,"target":34962},{"buffer":0,"byteLength":324,"byteOffset":7824,"target":34963},{"buffer":0,"byteLength":2520,"byteOffset":8148,"target":34962},{"buffer":0,"byteLength":2520,"byteOffset":10668,"target":34962},{"buffer":0,"byteLength":1680,"byteOffset":13188,"target":34962},{"buffer":0,"byteLength":504,"byteOffset":14868,"target":34963}],"samplers":[{"magFilter":9729,"minFilter":9987}],"buffers":[{"byteLength":15372,"uri":"maple.bin"}]}