{"asset":{"generator":"Khronos glTF Blender I/O v4.5.51","version":"2.0"},"scene":0,"scenes":[{"name":"Scene","nodes":[0]}],"nodes":[{"mesh":0,"name":"Market"}],"materials":[{"doubleSided":true,"name":"Stone","normalTexture":{"index":0,"scale":0.800000011920929},"pbrMetallicRoughness":{"baseColorTexture":{"index":1},"metallicFactor":0,"roughnessFactor":0.8799999952316284}},{"doubleSided":true,"name":"Timber","normalTexture":{"index":2,"scale":0.800000011920929},"pbrMetallicRoughness":{"baseColorTexture":{"index":3},"metallicFactor":0,"roughnessFactor":0.7200000286102295}},{"doubleSided":true,"name":"TimberDark","normalTexture":{"index":4,"scale":0.800000011920929},"pbrMetallicRoughness":{"baseColorTexture":{"index":5},"metallicFactor":0,"roughnessFactor":0.699999988079071}},{"doubleSided":true,"name":"Thatch","normalTexture":{"index":6,"scale":0.800000011920929},"pbrMetallicRoughness":{"baseColorTexture":{"index":7},"metallicFactor":0,"roughnessFactor":0.949999988079071}},{"doubleSided":true,"name":"Cloth","pbrMetallicRoughness":{"baseColorFactor":[0.6239603757858276,0.5457244515419006,0.4019777774810791,1],"metallicFactor":0,"roughnessFactor":0.8799999952316284}},{"doubleSided":true,"name":"StoneDark","normalTexture":{"index":8,"scale":0.800000011920929},"pbrMetallicRoughness":{"baseColorTexture":{"index":9},"metallicFactor":0,"roughnessFactor":0.8600000143051147}},{"doubleSided":true,"name":"Slate","normalTexture":{"index":10,"scale":0.800000011920929},"pbrMetallicRoughness":{"baseColorTexture":{"index":11},"metallicFactor":0,"roughnessFactor":0.5199999809265137}},{"doubleSided":true,"name":"SlateLight","normalTexture":{"index":12,"scale":0.800000011920929},"pbrMetallicRoughness":{"baseColorTexture":{"index":13},"metallicFactor":0,"roughnessFactor":0.47999998927116394}}],"meshes":[{"name":"Cube","primitives":[{"attributes":{"POSITION":0,"NORMAL":1,"TEXCOORD_0":2},"indices":3,"material":0},{"attributes":{"POSITION":4,"NORMAL":5,"TEXCOORD_0":6},"indices":7,"material":1},{"attributes":{"POSITION":8,"NORMAL":9,"TEXCOORD_0":10},"indices":11,"material":2},{"attributes":{"POSITION":12,"NORMAL":13,"TEXCOORD_0":14},"indices":15,"material":3},{"attributes":{"POSITION":16,"NORMAL":17,"TEXCOORD_0":18},"indices":19,"material":4},{"attributes":{"POSITION":20,"NORMAL":21,"TEXCOORD_0":22},"indices":23,"material":5},{"attributes":{"POSITION":24,"NORMAL":25,"TEXCOORD_0":26},"indices":27,"material":6},{"attributes":{"POSITION":28,"NORMAL":29,"TEXCOORD_0":30},"indices":31,"material":7}]}],"textures":[{"sampler":0,"source":0},{"sampler":0,"source":1},{"sampler":0,"source":2},{"sampler":0,"source":3},{"sampler":0,"source":2},{"sampler":0,"source":3},{"sampler":0,"source":4},{"sampler":0,"source":5},{"sampler":0,"source":0},{"sampler":0,"source":1},{"sampler":0,"source":6},{"sampler":0,"source":7},{"sampler":0,"source":6},{"sampler":0,"source":7}],"images":[{"mimeType":"image/png","name":"mat_masonry_n","uri":"../textures/mat_masonry_n.png"},{"mimeType":"image/png","name":"mat_masonry","uri":"../textures/mat_masonry.png"},{"mimeType":"image/png","name":"mat_timber_n","uri":"../textures/mat_timber_n.png"},{"mimeType":"image/png","name":"mat_timber","uri":"../textures/mat_timber.png"},{"mimeType":"image/png","name":"mat_thatch_n","uri":"../textures/mat_thatch_n.png"},{"mimeType":"image/png","name":"mat_thatch","uri":"../textures/mat_thatch.png"},{"mimeType":"image/png","name":"mat_shingle_n","uri":"../textures/mat_shingle_n.png"},{"mimeType":"image/png","name":"mat_shingle","uri":"../textures/mat_shingle.png"}],"accessors":[{"bufferView":0,"componentType":5126,"count":288,"max":[1.940000057220459,0.48000001907348633,1.940000057220459],"min":[-1.940000057220459,0,-1.940000057220459],"type":"VEC3"},{"bufferView":1,"componentType":5126,"count":288,"type":"VEC3"},{"bufferView":2,"componentType":5126,"count":288,"type":"VEC2"},{"bufferView":3,"componentType":5123,"count":396,"type":"SCALAR"},{"bufferView":4,"componentType":5126,"count":648,"max":[1.929999828338623,1.7799999713897705,1.5099999904632568],"min":[-1.7299998998641968,0.09000000357627869,-1.6699998378753662],"type":"VEC3"},{"bufferView":5,"componentType":5126,"count":648,"type":"VEC3"},{"bufferView":6,"componentType":5126,"count":648,"type":"VEC2"},{"bufferView":7,"componentType":5123,"count":1008,"type":"SCALAR"},{"bufferView":8,"componentType":5126,"count":828,"max":[1.7721688747406006,1.459999918937683,1.7074998617172241],"min":[-1.7274999618530273,0.09000000357627869,-1.7074998617172241],"type":"VEC3"},{"bufferView":9,"componentType":5126,"count":828,"type":"VEC3"},{"bufferView":10,"componentType":5126,"count":828,"type":"VEC2"},{"bufferView":11,"componentType":5123,"count":1260,"type":"SCALAR"},{"bufferView":12,"componentType":5126,"count":360,"max":[1.71999990940094,0.9847347140312195,1.7465697526931763],"min":[-1.7665696144104004,0.5300000309944153,-1.7465697526931763],"type":"VEC3"},{"bufferView":13,"componentType":5126,"count":360,"type":"VEC3"},{"bufferView":14,"componentType":5126,"count":360,"type":"VEC2"},{"bufferView":15,"componentType":5123,"count":540,"type":"SCALAR"},{"bufferView":16,"componentType":5126,"count":480,"max":[1.619999885559082,0.9847347140312195,1.7465697526931763],"min":[-1.7665696144104004,0.5300000309944153,-1.7465697526931763],"type":"VEC3"},{"bufferView":17,"componentType":5126,"count":480,"type":"VEC3"},{"bufferView":18,"componentType":5126,"count":480,"type":"VEC2"},{"bufferView":19,"componentType":5123,"count":720,"type":"SCALAR"},{"bufferView":20,"componentType":5126,"count":96,"max":[0.5299999117851257,0.34999996423721313,0.5299999117851257],"min":[-0.5299999117851257,0.2200000137090683,-0.5299999117851257],"type":"VEC3"},{"bufferView":21,"componentType":5126,"count":96,"type":"VEC3"},{"bufferView":22,"componentType":5126,"count":96,"type":"VEC2"},{"bufferView":23,"componentType":5123,"count":132,"type":"SCALAR"},{"bufferView":24,"componentType":5126,"count":168,"max":[0.7803687453269958,2.4427573680877686,0.7200000286102295],"min":[-0.7803687453269958,1.738919973373413,-0.7200000286102295],"type":"VEC3"},{"bufferView":25,"componentType":5126,"count":168,"type":"VEC3"},{"bufferView":26,"componentType":5126,"count":168,"type":"VEC2"},{"bufferView":27,"componentType":5123,"count":252,"type":"SCALAR"},{"bufferView":28,"componentType":5126,"count":96,"max":[0.6363687515258789,2.3187572956085205,0.7200000286102295],"min":[-0.6363687515258789,1.8629199266433716,-0.7200000286102295],"type":"VEC3"},{"bufferView":29,"componentType":5126,"count":96,"type":"VEC3"},{"bufferView":30,"componentType":5126,"count":96,"type":"VEC2"},{"bufferView":31,"componentType":5123,"count":144,"type":"SCALAR"}],"bufferViews":[{"buffer":0,"byteLength":3456,"byteOffset":0,"target":34962},{"buffer":0,"byteLength":3456,"byteOffset":3456,"target":34962},{"buffer":0,"byteLength":2304,"byteOffset":6912,"target":34962},{"buffer":0,"byteLength":792,"byteOffset":9216,"target":34963},{"buffer":0,"byteLength":7776,"byteOffset":10008,"target":34962},{"buffer":0,"byteLength":7776,"byteOffset":17784,"target":34962},{"buffer":0,"byteLength":5184,"byteOffset":25560,"target":34962},{"buffer":0,"byteLength":2016,"byteOffset":30744,"target":34963},{"buffer":0,"byteLength":9936,"byteOffset":32760,"target":34962},{"buffer":0,"byteLength":9936,"byteOffset":42696,"target":34962},{"buffer":0,"byteLength":6624,"byteOffset":52632,"target":34962},{"buffer":0,"byteLength":2520,"byteOffset":59256,"target":34963},{"buffer":0,"byteLength":4320,"byteOffset":61776,"target":34962},{"buffer":0,"byteLength":4320,"byteOffset":66096,"target":34962},{"buffer":0,"byteLength":2880,"byteOffset":70416,"target":34962},{"buffer":0,"byteLength":1080,"byteOffset":73296,"target":34963},{"buffer":0,"byteLength":5760,"byteOffset":74376,"target":34962},{"buffer":0,"byteLength":5760,"byteOffset":80136,"target":34962},{"buffer":0,"byteLength":3840,"byteOffset":85896,"target":34962},{"buffer":0,"byteLength":1440,"byteOffset":89736,"target":34963},{"buffer":0,"byteLength":1152,"byteOffset":91176,"target":34962},{"buffer":0,"byteLength":1152,"byteOffset":92328,"target":34962},{"buffer":0,"byteLength":768,"byteOffset":93480,"target":34962},{"buffer":0,"byteLength":264,"byteOffset":94248,"target":34963},{"buffer":0,"byteLength":2016,"byteOffset":94512,"target":34962},{"buffer":0,"byteLength":2016,"byteOffset":96528,"target":34962},{"buffer":0,"byteLength":1344,"byteOffset":98544,"target":34962},{"buffer":0,"byteLength":504,"byteOffset":99888,"target":34963},{"buffer":0,"byteLength":1152,"byteOffset":100392,"target":34962},{"buffer":0,"byteLength":1152,"byteOffset":101544,"target":34962},{"buffer":0,"byteLength":768,"byteOffset":102696,"target":34962},{"buffer":0,"byteLength":288,"byteOffset":103464,"target":34963}],"samplers":[{"magFilter":9729,"minFilter":9987}],"buffers":[{"byteLength":103752,"uri":"market.bin"}]}