{"asset":{"generator":"Khronos glTF Blender I/O v4.5.51","version":"2.0"},"scene":0,"scenes":[{"name":"Scene","nodes":[0]}],"nodes":[{"mesh":0,"name":"Mine"}],"materials":[{"doubleSided":true,"name":"StoneDark","normalTexture":{"index":0,"scale":0.800000011920929},"pbrMetallicRoughness":{"baseColorTexture":{"index":1},"metallicFactor":0,"roughnessFactor":0.8600000143051147}},{"doubleSided":true,"name":"Stone","normalTexture":{"index":2,"scale":0.800000011920929},"pbrMetallicRoughness":{"baseColorTexture":{"index":3},"metallicFactor":0,"roughnessFactor":0.8799999952316284}},{"doubleSided":true,"name":"TimberDark","normalTexture":{"index":4,"scale":0.800000011920929},"pbrMetallicRoughness":{"baseColorTexture":{"index":5},"metallicFactor":0,"roughnessFactor":0.699999988079071}},{"doubleSided":true,"name":"Window","pbrMetallicRoughness":{"baseColorFactor":[0.023153366521000862,0.024157632142305374,0.03310476616024971,1],"metallicFactor":0,"roughnessFactor":0.3499999940395355}},{"doubleSided":true,"name":"Timber","normalTexture":{"index":6,"scale":0.800000011920929},"pbrMetallicRoughness":{"baseColorTexture":{"index":7},"metallicFactor":0,"roughnessFactor":0.7200000286102295}},{"doubleSided":true,"name":"Metal","pbrMetallicRoughness":{"baseColorFactor":[0.06847816705703735,0.07036009430885315,0.0802198201417923,1],"metallicFactor":0,"roughnessFactor":0.41999998688697815}},{"doubleSided":true,"name":"Ore","normalTexture":{"index":8,"scale":0.800000011920929},"pbrMetallicRoughness":{"baseColorTexture":{"index":9},"metallicFactor":0,"roughnessFactor":0.699999988079071}}],"meshes":[{"name":"Cube","primitives":[{"attributes":{"POSITION":0,"NORMAL":1,"TEXCOORD_0":2},"indices":3,"material":0},{"attributes":{"POSITION":4,"NORMAL":5,"TEXCOORD_0":6},"indices":7,"material":1},{"attributes":{"POSITION":8,"NORMAL":9,"TEXCOORD_0":10},"indices":11,"material":2},{"attributes":{"POSITION":12,"NORMAL":13,"TEXCOORD_0":14},"indices":15,"material":3},{"attributes":{"POSITION":16,"NORMAL":17,"TEXCOORD_0":18},"indices":19,"material":4},{"attributes":{"POSITION":20,"NORMAL":21,"TEXCOORD_0":22},"indices":23,"material":5},{"attributes":{"POSITION":24,"NORMAL":25,"TEXCOORD_0":26},"indices":27,"material":6}]}],"textures":[{"sampler":0,"source":0},{"sampler":0,"source":1},{"sampler":0,"source":0},{"sampler":0,"source":1},{"sampler":0,"source":2},{"sampler":0,"source":3},{"sampler":0,"source":2},{"sampler":0,"source":3},{"sampler":0,"source":4},{"sampler":0,"source":5}],"images":[{"mimeType":"image/png","name":"mat_masonry_n","uri":"../textures/mat_masonry_n.png"},{"mimeType":"image/png","name":"mat_masonry","uri":"../textures/mat_masonry.png"},{"mimeType":"image/png","name":"mat_timber_n","uri":"../textures/mat_timber_n.png"},{"mimeType":"image/png","name":"mat_timber","uri":"../textures/mat_timber.png"},{"mimeType":"image/png","name":"mat_ore_n","uri":"../textures/mat_ore_n.png"},{"mimeType":"image/png","name":"mat_ore","uri":"../textures/mat_ore.png"}],"accessors":[{"bufferView":0,"componentType":5126,"count":492,"max":[1.0292069911956787,1.2739999294281006,1.0325783491134644],"min":[-1.0822837352752686,0,-1.032578468322754],"type":"VEC3"},{"bufferView":1,"componentType":5126,"count":492,"type":"VEC3"},{"bufferView":2,"componentType":5126,"count":492,"type":"VEC2"},{"bufferView":3,"componentType":5123,"count":564,"type":"SCALAR"},{"bufferView":4,"componentType":5126,"count":336,"max":[0.9165521264076233,0.9539999961853027,0.9391323328018188],"min":[-1.1293883323669434,0.0008398890495300293,-0.06374865770339966],"type":"VEC3"},{"bufferView":5,"componentType":5126,"count":336,"type":"VEC3"},{"bufferView":6,"componentType":5126,"count":336,"type":"VEC2"},{"bufferView":7,"componentType":5123,"count":372,"type":"SCALAR"},{"bufferView":8,"componentType":5126,"count":264,"max":[0.38032203912734985,1.034000039100647,0.34375664591789246],"min":[-0.9296780228614807,0.01399993896484375,-1.0062434673309326],"type":"VEC3"},{"bufferView":9,"componentType":5126,"count":264,"type":"VEC3"},{"bufferView":10,"componentType":5126,"count":264,"type":"VEC2"},{"bufferView":11,"componentType":5123,"count":384,"type":"SCALAR"},{"bufferView":12,"componentType":5126,"count":24,"max":[0.22032207250595093,0.8740000128746033,0.5137566924095154],"min":[-0.33967798948287964,0.01399993896484375,0.21375662088394165],"type":"VEC3"},{"bufferView":13,"componentType":5126,"count":24,"type":"VEC3"},{"bufferView":14,"componentType":5126,"count":24,"type":"VEC2"},{"bufferView":15,"componentType":5123,"count":36,"type":"SCALAR"},{"bufferView":16,"componentType":5126,"count":216,"max":[0.4403221011161804,1.3840001821517944,0.2137567102909088],"min":[-0.5896780490875244,0.01399993896484375,-0.9062433242797852],"type":"VEC3"},{"bufferView":17,"componentType":5126,"count":216,"type":"VEC3"},{"bufferView":18,"componentType":5126,"count":216,"type":"VEC2"},{"bufferView":19,"componentType":5123,"count":324,"type":"SCALAR"},{"bufferView":20,"componentType":5126,"count":252,"max":[0.1753220558166504,1.4740002155303955,-0.05624336004257202],"min":[-0.2946780025959015,0.0639999508857727,-0.886243462562561],"type":"VEC3"},{"bufferView":21,"componentType":5126,"count":252,"type":"VEC3"},{"bufferView":22,"componentType":5126,"count":252,"type":"VEC2"},{"bufferView":23,"componentType":5123,"count":444,"type":"SCALAR"},{"bufferView":24,"componentType":5126,"count":264,"max":[1.1293883323669434,0.4739999771118164,-0.34979331493377686],"min":[-0.22967803478240967,0.0008398890495300293,-0.9437485933303833],"type":"VEC3"},{"bufferView":25,"componentType":5126,"count":264,"type":"VEC3"},{"bufferView":26,"componentType":5126,"count":264,"type":"VEC2"},{"bufferView":27,"componentType":5123,"count":276,"type":"SCALAR"}],"bufferViews":[{"buffer":0,"byteLength":5904,"byteOffset":0,"target":34962},{"buffer":0,"byteLength":5904,"byteOffset":5904,"target":34962},{"buffer":0,"byteLength":3936,"byteOffset":11808,"target":34962},{"buffer":0,"byteLength":1128,"byteOffset":15744,"target":34963},{"buffer":0,"byteLength":4032,"byteOffset":16872,"target":34962},{"buffer":0,"byteLength":4032,"byteOffset":20904,"target":34962},{"buffer":0,"byteLength":2688,"byteOffset":24936,"target":34962},{"buffer":0,"byteLength":744,"byteOffset":27624,"target":34963},{"buffer":0,"byteLength":3168,"byteOffset":28368,"target":34962},{"buffer":0,"byteLength":3168,"byteOffset":31536,"target":34962},{"buffer":0,"byteLength":2112,"byteOffset":34704,"target":34962},{"buffer":0,"byteLength":768,"byteOffset":36816,"target":34963},{"buffer":0,"byteLength":288,"byteOffset":37584,"target":34962},{"buffer":0,"byteLength":288,"byteOffset":37872,"target":34962},{"buffer":0,"byteLength":192,"byteOffset":38160,"target":34962},{"buffer":0,"byteLength":72,"byteOffset":38352,"target":34963},{"buffer":0,"byteLength":2592,"byteOffset":38424,"target":34962},{"buffer":0,"byteLength":2592,"byteOffset":41016,"target":34962},{"buffer":0,"byteLength":1728,"byteOffset":43608,"target":34962},{"buffer":0,"byteLength":648,"byteOffset":45336,"target":34963},{"buffer":0,"byteLength":3024,"byteOffset":45984,"target":34962},{"buffer":0,"byteLength":3024,"byteOffset":49008,"target":34962},{"buffer":0,"byteLength":2016,"byteOffset":52032,"target":34962},{"buffer":0,"byteLength":888,"byteOffset":54048,"target":34963},{"buffer":0,"byteLength":3168,"byteOffset":54936,"target":34962},{"buffer":0,"byteLength":3168,"byteOffset":58104,"target":34962},{"buffer":0,"byteLength":2112,"byteOffset":61272,"target":34962},{"buffer":0,"byteLength":552,"byteOffset":63384,"target":34963}],"samplers":[{"magFilter":9729,"minFilter":9987}],"buffers":[{"byteLength":63936,"uri":"mine.bin"}]}