{"asset":{"generator":"Khronos glTF Blender I/O v4.5.51","version":"2.0"},"scene":0,"scenes":[{"name":"Scene","nodes":[0]}],"nodes":[{"mesh":0,"name":"Monument"}],"materials":[{"doubleSided":true,"name":"StoneDark","normalTexture":{"index":0,"scale":0.800000011920929},"pbrMetallicRoughness":{"baseColorTexture":{"index":1},"metallicFactor":0,"roughnessFactor":0.8600000143051147}},{"doubleSided":true,"name":"Stone","normalTexture":{"index":2,"scale":0.800000011920929},"pbrMetallicRoughness":{"baseColorTexture":{"index":3},"metallicFactor":0,"roughnessFactor":0.8799999952316284}}],"meshes":[{"name":"Cube","primitives":[{"attributes":{"POSITION":0,"NORMAL":1,"TEXCOORD_0":2},"indices":3,"material":0},{"attributes":{"POSITION":4,"NORMAL":5,"TEXCOORD_0":6},"indices":7,"material":1}]}],"textures":[{"sampler":0,"source":0},{"sampler":0,"source":1},{"sampler":0,"source":0},{"sampler":0,"source":1}],"images":[{"mimeType":"image/png","name":"mat_masonry_n","uri":"../textures/mat_masonry_n.png"},{"mimeType":"image/png","name":"mat_masonry","uri":"../textures/mat_masonry.png"}],"accessors":[{"bufferView":0,"componentType":5126,"count":1536,"max":[1.2999999523162842,4.999999523162842,1.2999999523162842],"min":[-1.2999999523162842,0,-1.2999999523162842],"type":"VEC3"},{"bufferView":1,"componentType":5126,"count":1536,"type":"VEC3"},{"bufferView":2,"componentType":5126,"count":1536,"type":"VEC2"},{"bufferView":3,"componentType":5123,"count":2112,"type":"SCALAR"},{"bufferView":4,"componentType":5126,"count":1552,"max":[1.0499999523162842,6.079097747802734,1.0499999523162842],"min":[-1.0499999523162842,0.25999999046325684,-1.0499999523162842],"type":"VEC3"},{"bufferView":5,"componentType":5126,"count":1552,"type":"VEC3"},{"bufferView":6,"componentType":5126,"count":1552,"type":"VEC2"},{"bufferView":7,"componentType":5123,"count":2256,"type":"SCALAR"}],"bufferViews":[{"buffer":0,"byteLength":18432,"byteOffset":0,"target":34962},{"buffer":0,"byteLength":18432,"byteOffset":18432,"target":34962},{"buffer":0,"byteLength":12288,"byteOffset":36864,"target":34962},{"buffer":0,"byteLength":4224,"byteOffset":49152,"target":34963},{"buffer":0,"byteLength":18624,"byteOffset":53376,"target":34962},{"buffer":0,"byteLength":18624,"byteOffset":72000,"target":34962},{"buffer":0,"byteLength":12416,"byteOffset":90624,"target":34962},{"buffer":0,"byteLength":4512,"byteOffset":103040,"target":34963}],"samplers":[{"magFilter":9729,"minFilter":9987}],"buffers":[{"byteLength":107552,"uri":"monument.bin"}]}