{"asset":{"generator":"Khronos glTF Blender I/O v4.5.51","version":"2.0"},"scene":0,"scenes":[{"name":"Scene","nodes":[0]}],"nodes":[{"mesh":0,"name":"Oak"}],"materials":[{"doubleSided":true,"name":"OakBark","normalTexture":{"index":0,"scale":0.800000011920929},"pbrMetallicRoughness":{"baseColorTexture":{"index":1},"metallicFactor":0,"roughnessFactor":0.9200000166893005,"baseColorFactor":[0.07618538148130785,0.043735029256973465,0.02518685962736163,1.0]}},{"doubleSided":true,"name":"OakLeaf","normalTexture":{"index":2,"scale":0.800000011920929},"pbrMetallicRoughness":{"baseColorTexture":{"index":3},"metallicFactor":0,"roughnessFactor":0.800000011920929,"baseColorFactor":[0.0595112381629812,0.14702726649759498,0.03433980680868217,1.0]}},{"doubleSided":true,"name":"OakLeafDark","normalTexture":{"index":4,"scale":0.800000011920929},"pbrMetallicRoughness":{"baseColorTexture":{"index":5},"metallicFactor":0,"roughnessFactor":0.8199999928474426,"baseColorFactor":[0.03560131487502034,0.08865558628577294,0.02315336617811041,1.0]}}],"meshes":[{"name":"Cone","primitives":[{"attributes":{"POSITION":0,"NORMAL":1,"TEXCOORD_0":2},"indices":3,"material":0},{"attributes":{"POSITION":4,"NORMAL":5,"TEXCOORD_0":6},"indices":7,"material":1},{"attributes":{"POSITION":8,"NORMAL":9,"TEXCOORD_0":10},"indices":11,"material":2}]}],"textures":[{"sampler":0,"source":0},{"sampler":0,"source":1},{"sampler":0,"source":2},{"sampler":0,"source":3},{"sampler":0,"source":2},{"sampler":0,"source":3}],"images":[{"mimeType":"image/png","name":"mat_bark_n","uri":"../textures/mat_bark_n.png"},{"mimeType":"image/png","name":"mat_bark","uri":"../textures/mat_bark.png"},{"mimeType":"image/png","name":"mat_foliage_n","uri":"../textures/mat_foliage_n.png"},{"mimeType":"image/png","name":"mat_foliage","uri":"../textures/mat_foliage.png"}],"accessors":[{"bufferView":0,"componentType":5126,"count":114,"max":[0.29247012734413147,1.5471806526184082,0.3249908685684204],"min":[-0.3487687408924103,0,-0.263551265001297],"type":"VEC3"},{"bufferView":1,"componentType":5126,"count":114,"type":"VEC3"},{"bufferView":2,"componentType":5126,"count":114,"type":"VEC2"},{"bufferView":3,"componentType":5123,"count":180,"type":"SCALAR"},{"bufferView":4,"componentType":5126,"count":126,"max":[0.56233811378479,2.1684000492095947,0.5577674508094788],"min":[-0.6588234901428223,1.2755999565124512,-0.6448418498039246],"type":"VEC3"},{"bufferView":5,"componentType":5126,"count":126,"type":"VEC3"},{"bufferView":6,"componentType":5126,"count":126,"type":"VEC2"},{"bufferView":7,"componentType":5123,"count":162,"type":"SCALAR"},{"bufferView":8,"componentType":5126,"count":210,"max":[0.6588234901428223,1.845599889755249,0.6448418498039246],"min":[-0.6584227085113525,1.2888000011444092,-0.6019701361656189],"type":"VEC3"},{"bufferView":9,"componentType":5126,"count":210,"type":"VEC3"},{"bufferView":10,"componentType":5126,"count":210,"type":"VEC2"},{"bufferView":11,"componentType":5123,"count":252,"type":"SCALAR"}],"bufferViews":[{"buffer":0,"byteLength":1368,"byteOffset":0,"target":34962},{"buffer":0,"byteLength":1368,"byteOffset":1368,"target":34962},{"buffer":0,"byteLength":912,"byteOffset":2736,"target":34962},{"buffer":0,"byteLength":360,"byteOffset":3648,"target":34963},{"buffer":0,"byteLength":1512,"byteOffset":4008,"target":34962},{"buffer":0,"byteLength":1512,"byteOffset":5520,"target":34962},{"buffer":0,"byteLength":1008,"byteOffset":7032,"target":34962},{"buffer":0,"byteLength":324,"byteOffset":8040,"target":34963},{"buffer":0,"byteLength":2520,"byteOffset":8364,"target":34962},{"buffer":0,"byteLength":2520,"byteOffset":10884,"target":34962},{"buffer":0,"byteLength":1680,"byteOffset":13404,"target":34962},{"buffer":0,"byteLength":504,"byteOffset":15084,"target":34963}],"samplers":[{"magFilter":9729,"minFilter":9987}],"buffers":[{"byteLength":15588,"uri":"oak.bin"}]}