{"asset":{"generator":"Khronos glTF Blender I/O v4.5.51","version":"2.0"},"scene":0,"scenes":[{"name":"Scene","nodes":[0]}],"nodes":[{"mesh":0,"name":"Pine"}],"materials":[{"doubleSided":true,"name":"Bark","normalTexture":{"index":0,"scale":0.800000011920929},"pbrMetallicRoughness":{"baseColorTexture":{"index":1},"metallicFactor":0,"roughnessFactor":0.8999999761581421,"baseColorFactor":[0.10224173308810132,0.05780543019106723,0.033104766570885055,1.0]}},{"doubleSided":true,"name":"FoliageDark","normalTexture":{"index":2,"scale":0.800000011920929},"pbrMetallicRoughness":{"baseColorTexture":{"index":3},"metallicFactor":0,"roughnessFactor":0.8199999928474426,"baseColorFactor":[0.043735029256973465,0.08865558628577294,0.0295568344378088,1.0]}},{"doubleSided":true,"name":"Foliage","normalTexture":{"index":4,"scale":0.800000011920929},"pbrMetallicRoughness":{"baseColorTexture":{"index":5},"metallicFactor":0,"roughnessFactor":0.800000011920929,"baseColorFactor":[0.07227185068231748,0.14702726649759498,0.04518620438567554,1.0]}},{"doubleSided":true,"name":"FoliageLight","normalTexture":{"index":6,"scale":0.800000011920929},"pbrMetallicRoughness":{"baseColorTexture":{"index":7},"metallicFactor":0,"roughnessFactor":0.7799999713897705,"baseColorFactor":[0.11443537382697373,0.21223075741405523,0.06124605423161761,1.0]}}],"meshes":[{"name":"Cube","primitives":[{"attributes":{"POSITION":0,"NORMAL":1,"TEXCOORD_0":2},"indices":3,"material":0},{"attributes":{"POSITION":4,"NORMAL":5,"TEXCOORD_0":6},"indices":7,"material":1},{"attributes":{"POSITION":8,"NORMAL":9,"TEXCOORD_0":10},"indices":11,"material":2},{"attributes":{"POSITION":12,"NORMAL":13,"TEXCOORD_0":14},"indices":15,"material":3}]}],"textures":[{"sampler":0,"source":0},{"sampler":0,"source":1},{"sampler":0,"source":2},{"sampler":0,"source":3},{"sampler":0,"source":2},{"sampler":0,"source":3},{"sampler":0,"source":2},{"sampler":0,"source":3}],"images":[{"mimeType":"image/png","name":"mat_bark_n","uri":"../textures/mat_bark_n.png"},{"mimeType":"image/png","name":"mat_bark","uri":"../textures/mat_bark.png"},{"mimeType":"image/png","name":"mat_foliage_n","uri":"../textures/mat_foliage_n.png"},{"mimeType":"image/png","name":"mat_foliage","uri":"../textures/mat_foliage.png"}],"accessors":[{"bufferView":0,"componentType":5126,"count":24,"max":[0.058113597333431244,0.9900000095367432,0.04736786335706711],"min":[-0.05188640207052231,0,-0.06263213604688644],"type":"VEC3"},{"bufferView":1,"componentType":5126,"count":24,"type":"VEC3"},{"bufferView":2,"componentType":5126,"count":24,"type":"VEC2"},{"bufferView":3,"componentType":5123,"count":36,"type":"SCALAR"},{"bufferView":4,"componentType":5126,"count":84,"max":[0.4077517092227936,1.1913096904754639,0.4046758711338043],"min":[-0.4077517092227936,0.4466198682785034,-0.4046758711338043],"type":"VEC3"},{"bufferView":5,"componentType":5126,"count":84,"type":"VEC3"},{"bufferView":6,"componentType":5126,"count":84,"type":"VEC2"},{"bufferView":7,"componentType":5123,"count":144,"type":"SCALAR"},{"bufferView":8,"componentType":5126,"count":42,"max":[0.26374736428260803,1.5100183486938477,0.24924629926681519],"min":[-0.25201866030693054,1.1855870485305786,-0.25581610202789307],"type":"VEC3"},{"bufferView":9,"componentType":5126,"count":42,"type":"VEC3"},{"bufferView":10,"componentType":5126,"count":42,"type":"VEC2"},{"bufferView":11,"componentType":5123,"count":72,"type":"SCALAR"},{"bufferView":12,"componentType":5126,"count":112,"max":[0.1775502860546112,2.428999900817871,0.18113629519939423],"min":[-0.1862986534833908,1.5508630275726318,-0.1741432398557663],"type":"VEC3"},{"bufferView":13,"componentType":5126,"count":112,"type":"VEC3"},{"bufferView":14,"componentType":5126,"count":112,"type":"VEC2"},{"bufferView":15,"componentType":5123,"count":180,"type":"SCALAR"}],"bufferViews":[{"buffer":0,"byteLength":288,"byteOffset":0,"target":34962},{"buffer":0,"byteLength":288,"byteOffset":288,"target":34962},{"buffer":0,"byteLength":192,"byteOffset":576,"target":34962},{"buffer":0,"byteLength":72,"byteOffset":768,"target":34963},{"buffer":0,"byteLength":1008,"byteOffset":840,"target":34962},{"buffer":0,"byteLength":1008,"byteOffset":1848,"target":34962},{"buffer":0,"byteLength":672,"byteOffset":2856,"target":34962},{"buffer":0,"byteLength":288,"byteOffset":3528,"target":34963},{"buffer":0,"byteLength":504,"byteOffset":3816,"target":34962},{"buffer":0,"byteLength":504,"byteOffset":4320,"target":34962},{"buffer":0,"byteLength":336,"byteOffset":4824,"target":34962},{"buffer":0,"byteLength":144,"byteOffset":5160,"target":34963},{"buffer":0,"byteLength":1344,"byteOffset":5304,"target":34962},{"buffer":0,"byteLength":1344,"byteOffset":6648,"target":34962},{"buffer":0,"byteLength":896,"byteOffset":7992,"target":34962},{"buffer":0,"byteLength":360,"byteOffset":8888,"target":34963}],"samplers":[{"magFilter":9729,"minFilter":9987}],"buffers":[{"byteLength":9248,"uri":"pine.bin"}]}