{"asset":{"generator":"Khronos glTF Blender I/O v4.5.51","version":"2.0"},"scene":0,"scenes":[{"name":"Scene","nodes":[0]}],"nodes":[{"mesh":0,"name":"Port"}],"materials":[{"doubleSided":true,"name":"Stone","normalTexture":{"index":0,"scale":0.800000011920929},"pbrMetallicRoughness":{"baseColorTexture":{"index":1},"metallicFactor":0,"roughnessFactor":0.8799999952316284}},{"doubleSided":true,"name":"StoneDark","normalTexture":{"index":2,"scale":0.800000011920929},"pbrMetallicRoughness":{"baseColorTexture":{"index":3},"metallicFactor":0,"roughnessFactor":0.8600000143051147}},{"doubleSided":true,"name":"Timber","normalTexture":{"index":4,"scale":0.800000011920929},"pbrMetallicRoughness":{"baseColorTexture":{"index":5},"metallicFactor":0,"roughnessFactor":0.7200000286102295}},{"doubleSided":true,"name":"Plaster","normalTexture":{"index":6,"scale":0.800000011920929},"pbrMetallicRoughness":{"baseColorTexture":{"index":7},"metallicFactor":0,"roughnessFactor":0.949999988079071}},{"doubleSided":true,"name":"Slate","normalTexture":{"index":8,"scale":0.800000011920929},"pbrMetallicRoughness":{"baseColorTexture":{"index":9},"metallicFactor":0,"roughnessFactor":0.5199999809265137}},{"doubleSided":true,"name":"SlateLight","normalTexture":{"index":10,"scale":0.800000011920929},"pbrMetallicRoughness":{"baseColorTexture":{"index":11},"metallicFactor":0,"roughnessFactor":0.47999998927116394}},{"doubleSided":true,"name":"TimberDark","normalTexture":{"index":12,"scale":0.800000011920929},"pbrMetallicRoughness":{"baseColorTexture":{"index":13},"metallicFactor":0,"roughnessFactor":0.699999988079071}},{"doubleSided":true,"name":"Window","pbrMetallicRoughness":{"baseColorFactor":[0.023153366521000862,0.024157632142305374,0.03310476616024971,1],"metallicFactor":0,"roughnessFactor":0.3499999940395355}}],"meshes":[{"name":"Cube","primitives":[{"attributes":{"POSITION":0,"NORMAL":1,"TEXCOORD_0":2},"indices":3,"material":0},{"attributes":{"POSITION":4,"NORMAL":5,"TEXCOORD_0":6},"indices":7,"material":1},{"attributes":{"POSITION":8,"NORMAL":9,"TEXCOORD_0":10},"indices":11,"material":2},{"attributes":{"POSITION":12,"NORMAL":13,"TEXCOORD_0":14},"indices":15,"material":3},{"attributes":{"POSITION":16,"NORMAL":17,"TEXCOORD_0":18},"indices":19,"material":4},{"attributes":{"POSITION":20,"NORMAL":21,"TEXCOORD_0":22},"indices":23,"material":5},{"attributes":{"POSITION":24,"NORMAL":25,"TEXCOORD_0":26},"indices":27,"material":6},{"attributes":{"POSITION":28,"NORMAL":29,"TEXCOORD_0":30},"indices":31,"material":7}]}],"textures":[{"sampler":0,"source":0},{"sampler":0,"source":1},{"sampler":0,"source":0},{"sampler":0,"source":1},{"sampler":0,"source":2},{"sampler":0,"source":3},{"sampler":0,"source":4},{"sampler":0,"source":5},{"sampler":0,"source":6},{"sampler":0,"source":7},{"sampler":0,"source":6},{"sampler":0,"source":7},{"sampler":0,"source":2},{"sampler":0,"source":3}],"images":[{"mimeType":"image/png","name":"mat_masonry_n","uri":"../textures/mat_masonry_n.png"},{"mimeType":"image/png","name":"mat_masonry","uri":"../textures/mat_masonry.png"},{"mimeType":"image/png","name":"mat_timber_n","uri":"../textures/mat_timber_n.png"},{"mimeType":"image/png","name":"mat_timber","uri":"../textures/mat_timber.png"},{"mimeType":"image/png","name":"mat_plaster_n","uri":"../textures/mat_plaster_n.png"},{"mimeType":"image/png","name":"mat_plaster","uri":"../textures/mat_plaster.png"},{"mimeType":"image/png","name":"mat_shingle_n","uri":"../textures/mat_shingle_n.png"},{"mimeType":"image/png","name":"mat_shingle","uri":"../textures/mat_shingle.png"}],"accessors":[{"bufferView":0,"componentType":5126,"count":192,"max":[3.30967378616333,1.3899999856948853,2.1500000953674316],"min":[-3.2903261184692383,0,-2.1500000953674316],"type":"VEC3"},{"bufferView":1,"componentType":5126,"count":192,"type":"VEC3"},{"bufferView":2,"componentType":5126,"count":192,"type":"VEC2"},{"bufferView":3,"componentType":5123,"count":264,"type":"SCALAR"},{"bufferView":4,"componentType":5126,"count":2496,"max":[3.359673500061035,1.3299999237060547,2.0999999046325684],"min":[-3.3403263092041016,0.2200000137090683,-2.069999933242798],"type":"VEC3"},{"bufferView":5,"componentType":5126,"count":2496,"type":"VEC3"},{"bufferView":6,"componentType":5126,"count":2496,"type":"VEC2"},{"bufferView":7,"componentType":5123,"count":3432,"type":"SCALAR"},{"bufferView":8,"componentType":5126,"count":3888,"max":[3.2046737670898438,2.90311598777771,1.8999998569488525],"min":[-3.200326442718506,0.3349999785423279,-1.8999998569488525],"type":"VEC3"},{"bufferView":9,"componentType":5126,"count":3888,"type":"VEC3"},{"bufferView":10,"componentType":5126,"count":3888,"type":"VEC2"},{"bufferView":11,"componentType":5123,"count":5412,"type":"SCALAR"},{"bufferView":12,"componentType":5126,"count":336,"max":[3.2949905395507812,2.440000057220459,2.0462915897369385],"min":[-3.070326328277588,0.6999998688697815,-1.2799999713897705],"type":"VEC3"},{"bufferView":13,"componentType":5126,"count":336,"type":"VEC3"},{"bufferView":14,"componentType":5126,"count":336,"type":"VEC2"},{"bufferView":15,"componentType":5123,"count":480,"type":"SCALAR"},{"bufferView":16,"componentType":5126,"count":992,"max":[3.317716598510742,3.4099998474121094,2.0580427646636963],"min":[-3.359673500061035,2.42099666595459,-1.5099999904632568],"type":"VEC3"},{"bufferView":17,"componentType":5126,"count":992,"type":"VEC3"},{"bufferView":18,"componentType":5126,"count":992,"type":"VEC2"},{"bufferView":19,"componentType":5123,"count":1368,"type":"SCALAR"},{"bufferView":20,"componentType":5126,"count":768,"max":[-0.69097900390625,3.4245591163635254,1.5099999904632568],"min":[-3.189673900604248,2.535996675491333,-1.5099999904632568],"type":"VEC3"},{"bufferView":21,"componentType":5126,"count":768,"type":"VEC3"},{"bufferView":22,"componentType":5126,"count":768,"type":"VEC2"},{"bufferView":23,"componentType":5123,"count":1056,"type":"SCALAR"},{"bufferView":24,"componentType":5126,"count":960,"max":[3.2196736335754395,2.7300000190734863,1.959999918937683],"min":[-2.370326519012451,0.3399999737739563,-1.7499998807907104],"type":"VEC3"},{"bufferView":25,"componentType":5126,"count":960,"type":"VEC3"},{"bufferView":26,"componentType":5126,"count":960,"type":"VEC2"},{"bufferView":27,"componentType":5123,"count":1320,"type":"SCALAR"},{"bufferView":28,"componentType":5126,"count":384,"max":[1.2096736431121826,1.9999998807907104,0.949999988079071],"min":[-1.19032621383667,1.659999966621399,-0.949999988079071],"type":"VEC3"},{"bufferView":29,"componentType":5126,"count":384,"type":"VEC3"},{"bufferView":30,"componentType":5126,"count":384,"type":"VEC2"},{"bufferView":31,"componentType":5123,"count":528,"type":"SCALAR"}],"bufferViews":[{"buffer":0,"byteLength":2304,"byteOffset":0,"target":34962},{"buffer":0,"byteLength":2304,"byteOffset":2304,"target":34962},{"buffer":0,"byteLength":1536,"byteOffset":4608,"target":34962},{"buffer":0,"byteLength":528,"byteOffset":6144,"target":34963},{"buffer":0,"byteLength":29952,"byteOffset":6672,"target":34962},{"buffer":0,"byteLength":29952,"byteOffset":36624,"target":34962},{"buffer":0,"byteLength":19968,"byteOffset":66576,"target":34962},{"buffer":0,"byteLength":6864,"byteOffset":86544,"target":34963},{"buffer":0,"byteLength":46656,"byteOffset":93408,"target":34962},{"buffer":0,"byteLength":46656,"byteOffset":140064,"target":34962},{"buffer":0,"byteLength":31104,"byteOffset":186720,"target":34962},{"buffer":0,"byteLength":10824,"byteOffset":217824,"target":34963},{"buffer":0,"byteLength":4032,"byteOffset":228648,"target":34962},{"buffer":0,"byteLength":4032,"byteOffset":232680,"target":34962},{"buffer":0,"byteLength":2688,"byteOffset":236712,"target":34962},{"buffer":0,"byteLength":960,"byteOffset":239400,"target":34963},{"buffer":0,"byteLength":11904,"byteOffset":240360,"target":34962},{"buffer":0,"byteLength":11904,"byteOffset":252264,"target":34962},{"buffer":0,"byteLength":7936,"byteOffset":264168,"target":34962},{"buffer":0,"byteLength":2736,"byteOffset":272104,"target":34963},{"buffer":0,"byteLength":9216,"byteOffset":274840,"target":34962},{"buffer":0,"byteLength":9216,"byteOffset":284056,"target":34962},{"buffer":0,"byteLength":6144,"byteOffset":293272,"target":34962},{"buffer":0,"byteLength":2112,"byteOffset":299416,"target":34963},{"buffer":0,"byteLength":11520,"byteOffset":301528,"target":34962},{"buffer":0,"byteLength":11520,"byteOffset":313048,"target":34962},{"buffer":0,"byteLength":7680,"byteOffset":324568,"target":34962},{"buffer":0,"byteLength":2640,"byteOffset":332248,"target":34963},{"buffer":0,"byteLength":4608,"byteOffset":334888,"target":34962},{"buffer":0,"byteLength":4608,"byteOffset":339496,"target":34962},{"buffer":0,"byteLength":3072,"byteOffset":344104,"target":34962},{"buffer":0,"byteLength":1056,"byteOffset":347176,"target":34963}],"samplers":[{"magFilter":9729,"minFilter":9987}],"buffers":[{"byteLength":348232,"uri":"port.bin"}]}