{"asset":{"generator":"Khronos glTF Blender I/O v4.5.51","version":"2.0"},"scene":0,"scenes":[{"name":"Scene","nodes":[0]}],"nodes":[{"mesh":0,"name":"Quarry"}],"materials":[{"doubleSided":true,"name":"Soil","normalTexture":{"index":0,"scale":0.800000011920929},"pbrMetallicRoughness":{"baseColorTexture":{"index":1},"metallicFactor":0}},{"doubleSided":true,"name":"Stone","normalTexture":{"index":2,"scale":0.800000011920929},"pbrMetallicRoughness":{"baseColorTexture":{"index":3},"metallicFactor":0,"roughnessFactor":0.8799999952316284}},{"doubleSided":true,"name":"StoneDark","normalTexture":{"index":4,"scale":0.800000011920929},"pbrMetallicRoughness":{"baseColorTexture":{"index":5},"metallicFactor":0,"roughnessFactor":0.8600000143051147}},{"doubleSided":true,"name":"Timber","normalTexture":{"index":6,"scale":0.800000011920929},"pbrMetallicRoughness":{"baseColorTexture":{"index":7},"metallicFactor":0,"roughnessFactor":0.7200000286102295}},{"doubleSided":true,"name":"TimberDark","normalTexture":{"index":8,"scale":0.800000011920929},"pbrMetallicRoughness":{"baseColorTexture":{"index":9},"metallicFactor":0,"roughnessFactor":0.699999988079071}},{"doubleSided":true,"name":"Cloth","pbrMetallicRoughness":{"baseColorFactor":[0.6239603757858276,0.5457244515419006,0.4019777774810791,1],"metallicFactor":0,"roughnessFactor":0.8799999952316284}},{"doubleSided":true,"name":"Slate","normalTexture":{"index":10,"scale":0.800000011920929},"pbrMetallicRoughness":{"baseColorTexture":{"index":11},"metallicFactor":0,"roughnessFactor":0.5199999809265137}},{"doubleSided":true,"name":"SlateLight","normalTexture":{"index":12,"scale":0.800000011920929},"pbrMetallicRoughness":{"baseColorTexture":{"index":13},"metallicFactor":0,"roughnessFactor":0.47999998927116394}}],"meshes":[{"name":"Cube","primitives":[{"attributes":{"POSITION":0,"NORMAL":1,"TEXCOORD_0":2},"indices":3,"material":0},{"attributes":{"POSITION":4,"NORMAL":5,"TEXCOORD_0":6},"indices":7,"material":1},{"attributes":{"POSITION":8,"NORMAL":9,"TEXCOORD_0":10},"indices":11,"material":2},{"attributes":{"POSITION":12,"NORMAL":13,"TEXCOORD_0":14},"indices":15,"material":3},{"attributes":{"POSITION":16,"NORMAL":17,"TEXCOORD_0":18},"indices":19,"material":4},{"attributes":{"POSITION":20,"NORMAL":21,"TEXCOORD_0":22},"indices":23,"material":5},{"attributes":{"POSITION":24,"NORMAL":25,"TEXCOORD_0":26},"indices":27,"material":6},{"attributes":{"POSITION":28,"NORMAL":29,"TEXCOORD_0":30},"indices":31,"material":7}]}],"textures":[{"sampler":0,"source":0},{"sampler":0,"source":1},{"sampler":0,"source":0},{"sampler":0,"source":1},{"sampler":0,"source":0},{"sampler":0,"source":1},{"sampler":0,"source":2},{"sampler":0,"source":3},{"sampler":0,"source":2},{"sampler":0,"source":3},{"sampler":0,"source":4},{"sampler":0,"source":5},{"sampler":0,"source":4},{"sampler":0,"source":5}],"images":[{"mimeType":"image/png","name":"mat_masonry_n","uri":"../textures/mat_masonry_n.png"},{"mimeType":"image/png","name":"mat_masonry","uri":"../textures/mat_masonry.png"},{"mimeType":"image/png","name":"mat_timber_n","uri":"../textures/mat_timber_n.png"},{"mimeType":"image/png","name":"mat_timber","uri":"../textures/mat_timber.png"},{"mimeType":"image/png","name":"mat_shingle_n","uri":"../textures/mat_shingle_n.png"},{"mimeType":"image/png","name":"mat_shingle","uri":"../textures/mat_shingle.png"}],"accessors":[{"bufferView":0,"componentType":5126,"count":48,"max":[3.880000114440918,0.4300609827041626,3.90755295753479],"min":[-3.880000114440918,0,-4.027552604675293],"type":"VEC3"},{"bufferView":1,"componentType":5126,"count":48,"type":"VEC3"},{"bufferView":2,"componentType":5126,"count":48,"type":"VEC2"},{"bufferView":3,"componentType":5123,"count":72,"type":"SCALAR"},{"bufferView":4,"componentType":5126,"count":2628,"max":[4,1.8550305366516113,4.027552604675293],"min":[-4,0.13914048671722412,-3.4324471950531006],"type":"VEC3"},{"bufferView":5,"componentType":5126,"count":2628,"type":"VEC3"},{"bufferView":6,"componentType":5126,"count":2628,"type":"VEC2"},{"bufferView":7,"componentType":5123,"count":3252,"type":"SCALAR"},{"bufferView":8,"componentType":5126,"count":816,"max":[3.6499998569488525,0.9750305414199829,3.6850898265838623],"min":[-2.7746617794036865,0.13823050260543823,-3.012446880340576],"type":"VEC3"},{"bufferView":9,"componentType":5126,"count":816,"type":"VEC3"},{"bufferView":10,"componentType":5126,"count":816,"type":"VEC2"},{"bufferView":11,"componentType":5123,"count":900,"type":"SCALAR"},{"bufferView":12,"componentType":5126,"count":612,"max":[2.939999580383301,2.4650306701660156,0.62755286693573],"min":[-3.740000009536743,0.05503049120306969,-3.5724470615386963],"type":"VEC3"},{"bufferView":13,"componentType":5126,"count":612,"type":"VEC3"},{"bufferView":14,"componentType":5126,"count":612,"type":"VEC2"},{"bufferView":15,"componentType":5123,"count":936,"type":"SCALAR"},{"bufferView":16,"componentType":5126,"count":156,"max":[2.609999895095825,2.3432838916778564,0.0675528347492218],"min":[-0.44999998807907104,0.1550304889678955,-3.1224472522735596],"type":"VEC3"},{"bufferView":17,"componentType":5126,"count":156,"type":"VEC3"},{"bufferView":18,"componentType":5126,"count":156,"type":"VEC2"},{"bufferView":19,"componentType":5123,"count":252,"type":"SCALAR"},{"bufferView":20,"componentType":5126,"count":24,"max":[0.02500000037252903,1.9550305604934692,-0.1474471539258957],"min":[-0.02500000037252903,0.7550305128097534,-0.19744716584682465],"type":"VEC3"},{"bufferView":21,"componentType":5126,"count":24,"type":"VEC3"},{"bufferView":22,"componentType":5126,"count":24,"type":"VEC2"},{"bufferView":23,"componentType":5123,"count":36,"type":"SCALAR"},{"bufferView":24,"componentType":5126,"count":144,"max":[3.0099997520446777,1.6486353874206543,-2.4424638748168945],"min":[-3.809999704360962,1.2614256143569946,-3.6224303245544434],"type":"VEC3"},{"bufferView":25,"componentType":5126,"count":144,"type":"VEC3"},{"bufferView":26,"componentType":5126,"count":144,"type":"VEC2"},{"bufferView":27,"componentType":5123,"count":216,"type":"SCALAR"},{"bufferView":28,"componentType":5126,"count":96,"max":[3.0099997520446777,1.5846353769302368,-2.662463665008545],"min":[-3.809999704360962,1.325425624847412,-3.4024300575256348],"type":"VEC3"},{"bufferView":29,"componentType":5126,"count":96,"type":"VEC3"},{"bufferView":30,"componentType":5126,"count":96,"type":"VEC2"},{"bufferView":31,"componentType":5123,"count":144,"type":"SCALAR"}],"bufferViews":[{"buffer":0,"byteLength":576,"byteOffset":0,"target":34962},{"buffer":0,"byteLength":576,"byteOffset":576,"target":34962},{"buffer":0,"byteLength":384,"byteOffset":1152,"target":34962},{"buffer":0,"byteLength":144,"byteOffset":1536,"target":34963},{"buffer":0,"byteLength":31536,"byteOffset":1680,"target":34962},{"buffer":0,"byteLength":31536,"byteOffset":33216,"target":34962},{"buffer":0,"byteLength":21024,"byteOffset":64752,"target":34962},{"buffer":0,"byteLength":6504,"byteOffset":85776,"target":34963},{"buffer":0,"byteLength":9792,"byteOffset":92280,"target":34962},{"buffer":0,"byteLength":9792,"byteOffset":102072,"target":34962},{"buffer":0,"byteLength":6528,"byteOffset":111864,"target":34962},{"buffer":0,"byteLength":1800,"byteOffset":118392,"target":34963},{"buffer":0,"byteLength":7344,"byteOffset":120192,"target":34962},{"buffer":0,"byteLength":7344,"byteOffset":127536,"target":34962},{"buffer":0,"byteLength":4896,"byteOffset":134880,"target":34962},{"buffer":0,"byteLength":1872,"byteOffset":139776,"target":34963},{"buffer":0,"byteLength":1872,"byteOffset":141648,"target":34962},{"buffer":0,"byteLength":1872,"byteOffset":143520,"target":34962},{"buffer":0,"byteLength":1248,"byteOffset":145392,"target":34962},{"buffer":0,"byteLength":504,"byteOffset":146640,"target":34963},{"buffer":0,"byteLength":288,"byteOffset":147144,"target":34962},{"buffer":0,"byteLength":288,"byteOffset":147432,"target":34962},{"buffer":0,"byteLength":192,"byteOffset":147720,"target":34962},{"buffer":0,"byteLength":72,"byteOffset":147912,"target":34963},{"buffer":0,"byteLength":1728,"byteOffset":147984,"target":34962},{"buffer":0,"byteLength":1728,"byteOffset":149712,"target":34962},{"buffer":0,"byteLength":1152,"byteOffset":151440,"target":34962},{"buffer":0,"byteLength":432,"byteOffset":152592,"target":34963},{"buffer":0,"byteLength":1152,"byteOffset":153024,"target":34962},{"buffer":0,"byteLength":1152,"byteOffset":154176,"target":34962},{"buffer":0,"byteLength":768,"byteOffset":155328,"target":34962},{"buffer":0,"byteLength":288,"byteOffset":156096,"target":34963}],"samplers":[{"magFilter":9729,"minFilter":9987}],"buffers":[{"byteLength":156384,"uri":"quarry.bin"}]}