{"asset":{"generator":"Khronos glTF Blender I/O v4.5.51","version":"2.0"},"scene":0,"scenes":[{"name":"Scene","nodes":[0]}],"nodes":[{"mesh":0,"name":"Rock"}],"materials":[{"doubleSided":true,"name":"Stone","normalTexture":{"index":0,"scale":0.800000011920929},"pbrMetallicRoughness":{"baseColorTexture":{"index":1},"metallicFactor":0,"roughnessFactor":0.8799999952316284}},{"doubleSided":true,"name":"StoneDark","normalTexture":{"index":2,"scale":0.800000011920929},"pbrMetallicRoughness":{"baseColorTexture":{"index":3},"metallicFactor":0,"roughnessFactor":0.8600000143051147}}],"meshes":[{"name":"Icosphere","primitives":[{"attributes":{"POSITION":0,"NORMAL":1,"TEXCOORD_0":2},"indices":3,"material":0},{"attributes":{"POSITION":4,"NORMAL":5,"TEXCOORD_0":6},"indices":7,"material":1}]}],"textures":[{"sampler":0,"source":0},{"sampler":0,"source":1},{"sampler":0,"source":0},{"sampler":0,"source":1}],"images":[{"mimeType":"image/png","name":"mat_masonry_n","uri":"../textures/mat_masonry_n.png"},{"mimeType":"image/png","name":"mat_masonry","uri":"../textures/mat_masonry.png"}],"accessors":[{"bufferView":0,"componentType":5126,"count":60,"max":[0.3402571678161621,0.7774470448493958,0.40418824553489685],"min":[-0.40461742877960205,0,-0.42863550782203674],"type":"VEC3"},{"bufferView":1,"componentType":5126,"count":60,"type":"VEC3"},{"bufferView":2,"componentType":5126,"count":60,"type":"VEC2"},{"bufferView":3,"componentType":5123,"count":60,"type":"SCALAR"},{"bufferView":4,"componentType":5126,"count":120,"max":[0.49310052394866943,0.5988609194755554,0.42863550782203674],"min":[-0.49310052394866943,0.05858612060546875,-0.3778267502784729],"type":"VEC3"},{"bufferView":5,"componentType":5126,"count":120,"type":"VEC3"},{"bufferView":6,"componentType":5126,"count":120,"type":"VEC2"},{"bufferView":7,"componentType":5123,"count":120,"type":"SCALAR"}],"bufferViews":[{"buffer":0,"byteLength":720,"byteOffset":0,"target":34962},{"buffer":0,"byteLength":720,"byteOffset":720,"target":34962},{"buffer":0,"byteLength":480,"byteOffset":1440,"target":34962},{"buffer":0,"byteLength":120,"byteOffset":1920,"target":34963},{"buffer":0,"byteLength":1440,"byteOffset":2040,"target":34962},{"buffer":0,"byteLength":1440,"byteOffset":3480,"target":34962},{"buffer":0,"byteLength":960,"byteOffset":4920,"target":34962},{"buffer":0,"byteLength":240,"byteOffset":5880,"target":34963}],"samplers":[{"magFilter":9729,"minFilter":9987}],"buffers":[{"byteLength":6120,"uri":"rock.bin"}]}