{"asset":{"generator":"Khronos glTF Blender I/O v4.5.51","version":"2.0"},"scene":0,"scenes":[{"name":"Scene","nodes":[0]}],"nodes":[{"mesh":0,"name":"School"}],"materials":[{"doubleSided":true,"name":"Stone","normalTexture":{"index":0,"scale":0.800000011920929},"pbrMetallicRoughness":{"baseColorTexture":{"index":1},"metallicFactor":0,"roughnessFactor":0.8799999952316284}},{"doubleSided":true,"name":"Plaster","normalTexture":{"index":2,"scale":0.800000011920929},"pbrMetallicRoughness":{"baseColorTexture":{"index":3},"metallicFactor":0,"roughnessFactor":0.949999988079071}},{"doubleSided":true,"name":"Timber","normalTexture":{"index":4,"scale":0.800000011920929},"pbrMetallicRoughness":{"baseColorTexture":{"index":5},"metallicFactor":0,"roughnessFactor":0.7200000286102295}},{"doubleSided":true,"name":"Slate","normalTexture":{"index":6,"scale":0.800000011920929},"pbrMetallicRoughness":{"baseColorTexture":{"index":7},"metallicFactor":0,"roughnessFactor":0.5199999809265137}},{"doubleSided":true,"name":"SlateLight","normalTexture":{"index":8,"scale":0.800000011920929},"pbrMetallicRoughness":{"baseColorTexture":{"index":9},"metallicFactor":0,"roughnessFactor":0.47999998927116394}},{"doubleSided":true,"name":"TimberDark","normalTexture":{"index":10,"scale":0.800000011920929},"pbrMetallicRoughness":{"baseColorTexture":{"index":11},"metallicFactor":0,"roughnessFactor":0.699999988079071}},{"doubleSided":true,"name":"Window","pbrMetallicRoughness":{"baseColorFactor":[0.023153366521000862,0.024157632142305374,0.03310476616024971,1],"metallicFactor":0,"roughnessFactor":0.3499999940395355}},{"doubleSided":true,"name":"Metal","pbrMetallicRoughness":{"baseColorFactor":[0.06847816705703735,0.07036009430885315,0.0802198201417923,1],"metallicFactor":0,"roughnessFactor":0.41999998688697815}},{"doubleSided":true,"name":"Bark","normalTexture":{"index":12,"scale":0.800000011920929},"pbrMetallicRoughness":{"baseColorTexture":{"index":13},"metallicFactor":0,"roughnessFactor":0.8999999761581421}},{"doubleSided":true,"name":"StoneDark","normalTexture":{"index":14,"scale":0.800000011920929},"pbrMetallicRoughness":{"baseColorTexture":{"index":15},"metallicFactor":0,"roughnessFactor":0.8600000143051147}}],"meshes":[{"name":"Cube","primitives":[{"attributes":{"POSITION":0,"NORMAL":1,"TEXCOORD_0":2},"indices":3,"material":0},{"attributes":{"POSITION":4,"NORMAL":5,"TEXCOORD_0":6},"indices":7,"material":1},{"attributes":{"POSITION":8,"NORMAL":9,"TEXCOORD_0":10},"indices":11,"material":2},{"attributes":{"POSITION":12,"NORMAL":13,"TEXCOORD_0":14},"indices":15,"material":3},{"attributes":{"POSITION":16,"NORMAL":17,"TEXCOORD_0":18},"indices":19,"material":4},{"attributes":{"POSITION":20,"NORMAL":21,"TEXCOORD_0":22},"indices":23,"material":5},{"attributes":{"POSITION":24,"NORMAL":25,"TEXCOORD_0":26},"indices":27,"material":6},{"attributes":{"POSITION":28,"NORMAL":29,"TEXCOORD_0":30},"indices":31,"material":7},{"attributes":{"POSITION":32,"NORMAL":33,"TEXCOORD_0":34},"indices":35,"material":8},{"attributes":{"POSITION":36,"NORMAL":37,"TEXCOORD_0":38},"indices":7,"material":9}]}],"textures":[{"sampler":0,"source":0},{"sampler":0,"source":1},{"sampler":0,"source":2},{"sampler":0,"source":3},{"sampler":0,"source":4},{"sampler":0,"source":5},{"sampler":0,"source":6},{"sampler":0,"source":7},{"sampler":0,"source":6},{"sampler":0,"source":7},{"sampler":0,"source":4},{"sampler":0,"source":5},{"sampler":0,"source":8},{"sampler":0,"source":9},{"sampler":0,"source":0},{"sampler":0,"source":1}],"images":[{"mimeType":"image/png","name":"mat_masonry_n","uri":"../textures/mat_masonry_n.png"},{"mimeType":"image/png","name":"mat_masonry","uri":"../textures/mat_masonry.png"},{"mimeType":"image/png","name":"mat_plaster_n","uri":"../textures/mat_plaster_n.png"},{"mimeType":"image/png","name":"mat_plaster","uri":"../textures/mat_plaster.png"},{"mimeType":"image/png","name":"mat_timber_n","uri":"../textures/mat_timber_n.png"},{"mimeType":"image/png","name":"mat_timber","uri":"../textures/mat_timber.png"},{"mimeType":"image/png","name":"mat_shingle_n","uri":"../textures/mat_shingle_n.png"},{"mimeType":"image/png","name":"mat_shingle","uri":"../textures/mat_shingle.png"},{"mimeType":"image/png","name":"mat_bark_n","uri":"../textures/mat_bark_n.png"},{"mimeType":"image/png","name":"mat_bark","uri":"../textures/mat_bark.png"}],"accessors":[{"bufferView":0,"componentType":5126,"count":120,"max":[1.2100000381469727,2.2849998474121094,1.8293750286102295],"min":[-1.2100000381469727,1.4901161193847656e-08,-1.1906249523162842],"type":"VEC3"},{"bufferView":1,"componentType":5126,"count":120,"type":"VEC3"},{"bufferView":2,"componentType":5126,"count":120,"type":"VEC2"},{"bufferView":3,"componentType":5123,"count":168,"type":"SCALAR"},{"bufferView":4,"componentType":5126,"count":24,"max":[1.0800000429153442,1.3799999952316284,1.6993751525878906],"min":[-1.0800000429153442,0.22000005841255188,-1.0606248378753662],"type":"VEC3"},{"bufferView":5,"componentType":5126,"count":24,"type":"VEC3"},{"bufferView":6,"componentType":5126,"count":24,"type":"VEC2"},{"bufferView":7,"componentType":5123,"count":36,"type":"SCALAR"},{"bufferView":8,"componentType":5126,"count":624,"max":[1.25,2.820000171661377,1.7693753242492676],"min":[-1.25,0.22000005841255188,-1.7306249141693115],"type":"VEC3"},{"bufferView":9,"componentType":5126,"count":624,"type":"VEC3"},{"bufferView":10,"componentType":5126,"count":624,"type":"VEC2"},{"bufferView":11,"componentType":5123,"count":936,"type":"SCALAR"},{"bufferView":12,"componentType":5126,"count":232,"max":[1.33058762550354,3.1800003051757812,1.8893749713897705],"min":[-1.33058762550354,1.3591749668121338,-1.2506248950958252],"type":"VEC3"},{"bufferView":13,"componentType":5126,"count":232,"type":"VEC3"},{"bufferView":14,"componentType":5126,"count":232,"type":"VEC2"},{"bufferView":15,"componentType":5123,"count":342,"type":"SCALAR"},{"bufferView":16,"componentType":5126,"count":192,"max":[1.1718378067016602,2.424368381500244,1.8893749713897705],"min":[-1.1718378067016602,1.4816750288009644,-1.2506248950958252],"type":"VEC3"},{"bufferView":17,"componentType":5126,"count":192,"type":"VEC3"},{"bufferView":18,"componentType":5126,"count":192,"type":"VEC2"},{"bufferView":19,"componentType":5123,"count":288,"type":"SCALAR"},{"bufferView":20,"componentType":5126,"count":120,"max":[1.1949999332427979,0.9800000190734863,-1.0406248569488525],"min":[-1.1949999332427979,1.4901161193847656e-08,-1.6556248664855957],"type":"VEC3"},{"bufferView":21,"componentType":5126,"count":120,"type":"VEC3"},{"bufferView":22,"componentType":5126,"count":120,"type":"VEC2"},{"bufferView":23,"componentType":5123,"count":180,"type":"SCALAR"},{"bufferView":24,"componentType":5126,"count":192,"max":[1.1500000953674316,1.2300000190734863,1.4093751907348633],"min":[-1.1500000953674316,0.8899999260902405,-1.1306250095367432],"type":"VEC3"},{"bufferView":25,"componentType":5126,"count":192,"type":"VEC3"},{"bufferView":26,"componentType":5126,"count":192,"type":"VEC2"},{"bufferView":27,"componentType":5123,"count":288,"type":"SCALAR"},{"bufferView":28,"componentType":5126,"count":48,"max":[0.08500000089406967,2.7799997329711914,-0.495624840259552],"min":[-0.08500000089406967,2.619999885559082,-0.6656249165534973],"type":"VEC3"},{"bufferView":29,"componentType":5126,"count":48,"type":"VEC3"},{"bufferView":30,"componentType":5126,"count":48,"type":"VEC2"},{"bufferView":31,"componentType":5123,"count":84,"type":"SCALAR"},{"bufferView":32,"componentType":5126,"count":240,"max":[0.28999999165534973,0.2850000262260437,-1.4318749904632568],"min":[-0.28999999165534973,0,-1.8893749713897705],"type":"VEC3"},{"bufferView":33,"componentType":5126,"count":240,"type":"VEC3"},{"bufferView":34,"componentType":5126,"count":240,"type":"VEC2"},{"bufferView":35,"componentType":5123,"count":420,"type":"SCALAR"},{"bufferView":36,"componentType":5126,"count":24,"max":[-0.7200000286102295,2.239999771118164,1.5593750476837158],"min":[-1,1.3799998760223389,1.2793749570846558],"type":"VEC3"},{"bufferView":37,"componentType":5126,"count":24,"type":"VEC3"},{"bufferView":38,"componentType":5126,"count":24,"type":"VEC2"}],"bufferViews":[{"buffer":0,"byteLength":1440,"byteOffset":0,"target":34962},{"buffer":0,"byteLength":1440,"byteOffset":1440,"target":34962},{"buffer":0,"byteLength":960,"byteOffset":2880,"target":34962},{"buffer":0,"byteLength":336,"byteOffset":3840,"target":34963},{"buffer":0,"byteLength":288,"byteOffset":4176,"target":34962},{"buffer":0,"byteLength":288,"byteOffset":4464,"target":34962},{"buffer":0,"byteLength":192,"byteOffset":4752,"target":34962},{"buffer":0,"byteLength":72,"byteOffset":4944,"target":34963},{"buffer":0,"byteLength":7488,"byteOffset":5016,"target":34962},{"buffer":0,"byteLength":7488,"byteOffset":12504,"target":34962},{"buffer":0,"byteLength":4992,"byteOffset":19992,"target":34962},{"buffer":0,"byteLength":1872,"byteOffset":24984,"target":34963},{"buffer":0,"byteLength":2784,"byteOffset":26856,"target":34962},{"buffer":0,"byteLength":2784,"byteOffset":29640,"target":34962},{"buffer":0,"byteLength":1856,"byteOffset":32424,"target":34962},{"buffer":0,"byteLength":684,"byteOffset":34280,"target":34963},{"buffer":0,"byteLength":2304,"byteOffset":34964,"target":34962},{"buffer":0,"byteLength":2304,"byteOffset":37268,"target":34962},{"buffer":0,"byteLength":1536,"byteOffset":39572,"target":34962},{"buffer":0,"byteLength":576,"byteOffset":41108,"target":34963},{"buffer":0,"byteLength":1440,"byteOffset":41684,"target":34962},{"buffer":0,"byteLength":1440,"byteOffset":43124,"target":34962},{"buffer":0,"byteLength":960,"byteOffset":44564,"target":34962},{"buffer":0,"byteLength":360,"byteOffset":45524,"target":34963},{"buffer":0,"byteLength":2304,"byteOffset":45884,"target":34962},{"buffer":0,"byteLength":2304,"byteOffset":48188,"target":34962},{"buffer":0,"byteLength":1536,"byteOffset":50492,"target":34962},{"buffer":0,"byteLength":576,"byteOffset":52028,"target":34963},{"buffer":0,"byteLength":576,"byteOffset":52604,"target":34962},{"buffer":0,"byteLength":576,"byteOffset":53180,"target":34962},{"buffer":0,"byteLength":384,"byteOffset":53756,"target":34962},{"buffer":0,"byteLength":168,"byteOffset":54140,"target":34963},{"buffer":0,"byteLength":2880,"byteOffset":54308,"target":34962},{"buffer":0,"byteLength":2880,"byteOffset":57188,"target":34962},{"buffer":0,"byteLength":1920,"byteOffset":60068,"target":34962},{"buffer":0,"byteLength":840,"byteOffset":61988,"target":34963},{"buffer":0,"byteLength":288,"byteOffset":62828,"target":34962},{"buffer":0,"byteLength":288,"byteOffset":63116,"target":34962},{"buffer":0,"byteLength":192,"byteOffset":63404,"target":34962}],"samplers":[{"magFilter":9729,"minFilter":9987}],"buffers":[{"byteLength":63596,"uri":"school.bin"}]}