{"asset":{"generator":"Khronos glTF Blender I/O v4.5.51","version":"2.0"},"scene":0,"scenes":[{"name":"Scene","nodes":[0]}],"nodes":[{"mesh":0,"name":"Shelter"}],"materials":[{"doubleSided":true,"name":"StoneDark","normalTexture":{"index":0,"scale":0.800000011920929},"pbrMetallicRoughness":{"baseColorTexture":{"index":1},"metallicFactor":0,"roughnessFactor":0.8600000143051147}},{"doubleSided":true,"name":"Stone","normalTexture":{"index":2,"scale":0.800000011920929},"pbrMetallicRoughness":{"baseColorTexture":{"index":3},"metallicFactor":0,"roughnessFactor":0.8799999952316284}},{"doubleSided":true,"name":"Plaster","normalTexture":{"index":4,"scale":0.800000011920929},"pbrMetallicRoughness":{"baseColorTexture":{"index":5},"metallicFactor":0,"roughnessFactor":0.949999988079071}},{"doubleSided":true,"name":"Timber","normalTexture":{"index":6,"scale":0.800000011920929},"pbrMetallicRoughness":{"baseColorTexture":{"index":7},"metallicFactor":0,"roughnessFactor":0.7200000286102295}},{"doubleSided":true,"name":"Slate","normalTexture":{"index":8,"scale":0.800000011920929},"pbrMetallicRoughness":{"baseColorTexture":{"index":9},"metallicFactor":0,"roughnessFactor":0.5199999809265137}},{"doubleSided":true,"name":"SlateLight","normalTexture":{"index":10,"scale":0.800000011920929},"pbrMetallicRoughness":{"baseColorTexture":{"index":11},"metallicFactor":0,"roughnessFactor":0.47999998927116394}},{"doubleSided":true,"name":"TimberDark","normalTexture":{"index":12,"scale":0.800000011920929},"pbrMetallicRoughness":{"baseColorTexture":{"index":13},"metallicFactor":0,"roughnessFactor":0.699999988079071}},{"doubleSided":true,"name":"Window","pbrMetallicRoughness":{"baseColorFactor":[0.023153366521000862,0.024157632142305374,0.03310476616024971,1],"metallicFactor":0,"roughnessFactor":0.3499999940395355}}],"meshes":[{"name":"Cube","primitives":[{"attributes":{"POSITION":0,"NORMAL":1,"TEXCOORD_0":2},"indices":3,"material":0},{"attributes":{"POSITION":4,"NORMAL":5,"TEXCOORD_0":6},"indices":7,"material":1},{"attributes":{"POSITION":8,"NORMAL":9,"TEXCOORD_0":10},"indices":11,"material":2},{"attributes":{"POSITION":12,"NORMAL":13,"TEXCOORD_0":14},"indices":15,"material":3},{"attributes":{"POSITION":16,"NORMAL":17,"TEXCOORD_0":18},"indices":19,"material":4},{"attributes":{"POSITION":20,"NORMAL":21,"TEXCOORD_0":22},"indices":23,"material":5},{"attributes":{"POSITION":24,"NORMAL":25,"TEXCOORD_0":26},"indices":27,"material":6},{"attributes":{"POSITION":28,"NORMAL":29,"TEXCOORD_0":30},"indices":31,"material":7}]}],"textures":[{"sampler":0,"source":0},{"sampler":0,"source":1},{"sampler":0,"source":0},{"sampler":0,"source":1},{"sampler":0,"source":2},{"sampler":0,"source":3},{"sampler":0,"source":4},{"sampler":0,"source":5},{"sampler":0,"source":6},{"sampler":0,"source":7},{"sampler":0,"source":6},{"sampler":0,"source":7},{"sampler":0,"source":4},{"sampler":0,"source":5}],"images":[{"mimeType":"image/png","name":"mat_masonry_n","uri":"../textures/mat_masonry_n.png"},{"mimeType":"image/png","name":"mat_masonry","uri":"../textures/mat_masonry.png"},{"mimeType":"image/png","name":"mat_plaster_n","uri":"../textures/mat_plaster_n.png"},{"mimeType":"image/png","name":"mat_plaster","uri":"../textures/mat_plaster.png"},{"mimeType":"image/png","name":"mat_timber_n","uri":"../textures/mat_timber_n.png"},{"mimeType":"image/png","name":"mat_timber","uri":"../textures/mat_timber.png"},{"mimeType":"image/png","name":"mat_shingle_n","uri":"../textures/mat_shingle_n.png"},{"mimeType":"image/png","name":"mat_shingle","uri":"../textures/mat_shingle.png"}],"accessors":[{"bufferView":0,"componentType":5126,"count":2112,"max":[1.1984554529190063,4.020000457763672,2.2749996185302734],"min":[-0.8215445280075073,0,-1.9650001525878906],"type":"VEC3"},{"bufferView":1,"componentType":5126,"count":2112,"type":"VEC3"},{"bufferView":2,"componentType":5126,"count":2112,"type":"VEC2"},{"bufferView":3,"componentType":5123,"count":2940,"type":"SCALAR"},{"bufferView":4,"componentType":5126,"count":288,"max":[1.1284555196762085,4.065000534057617,2.2049999237060547],"min":[-0.7515445947647095,0.23999999463558197,-1.8950004577636719],"type":"VEC3"},{"bufferView":5,"componentType":5126,"count":288,"type":"VEC3"},{"bufferView":6,"componentType":5126,"count":288,"type":"VEC2"},{"bufferView":7,"componentType":5123,"count":396,"type":"SCALAR"},{"bufferView":8,"componentType":5126,"count":96,"max":[1.058455467224121,3.3000001907348633,2.134999990463257],"min":[-0.6815445423126221,1.2600001096725464,-1.825000286102295],"type":"VEC3"},{"bufferView":9,"componentType":5126,"count":96,"type":"VEC3"},{"bufferView":10,"componentType":5126,"count":96,"type":"VEC2"},{"bufferView":11,"componentType":5123,"count":132,"type":"SCALAR"},{"bufferView":12,"componentType":5126,"count":6912,"max":[1.1884554624557495,3.3000001907348633,2.2649996280670166],"min":[-1.3215447664260864,0.23999999463558197,-2.2350006103515625],"type":"VEC3"},{"bufferView":13,"componentType":5126,"count":6912,"type":"VEC3"},{"bufferView":14,"componentType":5126,"count":6912,"type":"VEC2"},{"bufferView":15,"componentType":5123,"count":9504,"type":"SCALAR"},{"bufferView":16,"componentType":5126,"count":960,"max":[1.3215447664260864,4.363986968994141,2.3350000381469727],"min":[-0.9446338415145874,1.1000001430511475,-2.3350002765655518],"type":"VEC3"},{"bufferView":17,"componentType":5126,"count":960,"type":"VEC3"},{"bufferView":18,"componentType":5126,"count":960,"type":"VEC2"},{"bufferView":19,"componentType":5123,"count":1320,"type":"SCALAR"},{"bufferView":20,"componentType":5126,"count":576,"max":[1.1686877012252808,4.221129417419434,2.3350000381469727],"min":[-0.7917767763137817,3.419053554534912,-2.02500057220459],"type":"VEC3"},{"bufferView":21,"componentType":5126,"count":576,"type":"VEC3"},{"bufferView":22,"componentType":5126,"count":576,"type":"VEC2"},{"bufferView":23,"componentType":5123,"count":792,"type":"SCALAR"},{"bufferView":24,"componentType":5126,"count":192,"max":[0.4384554624557495,1.9600001573562622,-0.015000209212303162],"min":[-0.9315446615219116,0.24000002443790436,-1.9050004482269287],"type":"VEC3"},{"bufferView":25,"componentType":5126,"count":192,"type":"VEC3"},{"bufferView":26,"componentType":5126,"count":192,"type":"VEC2"},{"bufferView":27,"componentType":5123,"count":264,"type":"SCALAR"},{"bufferView":28,"componentType":5126,"count":3264,"max":[1.128455400466919,2.890000104904175,1.8450000286102295],"min":[-0.7515445351600647,0.550000011920929,-1.8950004577636719],"type":"VEC3"},{"bufferView":29,"componentType":5126,"count":3264,"type":"VEC3"},{"bufferView":30,"componentType":5126,"count":3264,"type":"VEC2"},{"bufferView":31,"componentType":5123,"count":4488,"type":"SCALAR"}],"bufferViews":[{"buffer":0,"byteLength":25344,"byteOffset":0,"target":34962},{"buffer":0,"byteLength":25344,"byteOffset":25344,"target":34962},{"buffer":0,"byteLength":16896,"byteOffset":50688,"target":34962},{"buffer":0,"byteLength":5880,"byteOffset":67584,"target":34963},{"buffer":0,"byteLength":3456,"byteOffset":73464,"target":34962},{"buffer":0,"byteLength":3456,"byteOffset":76920,"target":34962},{"buffer":0,"byteLength":2304,"byteOffset":80376,"target":34962},{"buffer":0,"byteLength":792,"byteOffset":82680,"target":34963},{"buffer":0,"byteLength":1152,"byteOffset":83472,"target":34962},{"buffer":0,"byteLength":1152,"byteOffset":84624,"target":34962},{"buffer":0,"byteLength":768,"byteOffset":85776,"target":34962},{"buffer":0,"byteLength":264,"byteOffset":86544,"target":34963},{"buffer":0,"byteLength":82944,"byteOffset":86808,"target":34962},{"buffer":0,"byteLength":82944,"byteOffset":169752,"target":34962},{"buffer":0,"byteLength":55296,"byteOffset":252696,"target":34962},{"buffer":0,"byteLength":19008,"byteOffset":307992,"target":34963},{"buffer":0,"byteLength":11520,"byteOffset":327000,"target":34962},{"buffer":0,"byteLength":11520,"byteOffset":338520,"target":34962},{"buffer":0,"byteLength":7680,"byteOffset":350040,"target":34962},{"buffer":0,"byteLength":2640,"byteOffset":357720,"target":34963},{"buffer":0,"byteLength":6912,"byteOffset":360360,"target":34962},{"buffer":0,"byteLength":6912,"byteOffset":367272,"target":34962},{"buffer":0,"byteLength":4608,"byteOffset":374184,"target":34962},{"buffer":0,"byteLength":1584,"byteOffset":378792,"target":34963},{"buffer":0,"byteLength":2304,"byteOffset":380376,"target":34962},{"buffer":0,"byteLength":2304,"byteOffset":382680,"target":34962},{"buffer":0,"byteLength":1536,"byteOffset":384984,"target":34962},{"buffer":0,"byteLength":528,"byteOffset":386520,"target":34963},{"buffer":0,"byteLength":39168,"byteOffset":387048,"target":34962},{"buffer":0,"byteLength":39168,"byteOffset":426216,"target":34962},{"buffer":0,"byteLength":26112,"byteOffset":465384,"target":34962},{"buffer":0,"byteLength":8976,"byteOffset":491496,"target":34963}],"samplers":[{"magFilter":9729,"minFilter":9987}],"buffers":[{"byteLength":500472,"uri":"shelter.bin"}]}