{"asset":{"generator":"Khronos glTF Blender I/O v4.5.51","version":"2.0"},"scene":0,"scenes":[{"name":"Scene","nodes":[0]}],"nodes":[{"mesh":0,"name":"Spruce"}],"materials":[{"doubleSided":true,"name":"Bark","normalTexture":{"index":0,"scale":0.800000011920929},"pbrMetallicRoughness":{"baseColorTexture":{"index":1},"metallicFactor":0,"roughnessFactor":0.8999999761581421,"baseColorFactor":[0.10224173308810132,0.05780543019106723,0.033104766570885055,1.0]}},{"doubleSided":true,"name":"SpruceDark","normalTexture":{"index":2,"scale":0.800000011920929},"pbrMetallicRoughness":{"baseColorTexture":{"index":3},"metallicFactor":0,"roughnessFactor":0.8199999928474426,"baseColorFactor":[0.028426039504420793,0.06847816984440017,0.03688945040110004,1.0]}},{"doubleSided":true,"name":"Spruce","normalTexture":{"index":4,"scale":0.800000011920929},"pbrMetallicRoughness":{"baseColorTexture":{"index":5},"metallicFactor":0,"roughnessFactor":0.800000011920929,"baseColorFactor":[0.04817182422688942,0.11443537382697373,0.05780543019106723,1.0]}},{"doubleSided":true,"name":"SpruceLight","normalTexture":{"index":6,"scale":0.800000011920929},"pbrMetallicRoughness":{"baseColorTexture":{"index":7},"metallicFactor":0,"roughnessFactor":0.7799999713897705,"baseColorFactor":[0.07618538148130785,0.1714411007328226,0.08021982031446832,1.0]}}],"meshes":[{"name":"Cube","primitives":[{"attributes":{"POSITION":0,"NORMAL":1,"TEXCOORD_0":2},"indices":3,"material":0},{"attributes":{"POSITION":4,"NORMAL":5,"TEXCOORD_0":6},"indices":7,"material":1},{"attributes":{"POSITION":8,"NORMAL":9,"TEXCOORD_0":10},"indices":11,"material":2},{"attributes":{"POSITION":12,"NORMAL":13,"TEXCOORD_0":14},"indices":15,"material":3}]}],"textures":[{"sampler":0,"source":0},{"sampler":0,"source":1},{"sampler":0,"source":2},{"sampler":0,"source":3},{"sampler":0,"source":2},{"sampler":0,"source":3},{"sampler":0,"source":2},{"sampler":0,"source":3}],"images":[{"mimeType":"image/png","name":"mat_bark_n","uri":"../textures/mat_bark_n.png"},{"mimeType":"image/png","name":"mat_bark","uri":"../textures/mat_bark.png"},{"mimeType":"image/png","name":"mat_foliage_n","uri":"../textures/mat_foliage_n.png"},{"mimeType":"image/png","name":"mat_foliage","uri":"../textures/mat_foliage.png"}],"accessors":[{"bufferView":0,"componentType":5126,"count":24,"max":[0.07587212324142456,0.8399999737739563,0.03873356059193611],"min":[-0.02412787452340126,0,-0.06126644089818001],"type":"VEC3"},{"bufferView":1,"componentType":5126,"count":24,"type":"VEC3"},{"bufferView":2,"componentType":5126,"count":24,"type":"VEC2"},{"bufferView":3,"componentType":5123,"count":36,"type":"SCALAR"},{"bufferView":4,"componentType":5126,"count":84,"max":[0.4950751066207886,0.8785707354545593,0.50624680519104],"min":[-0.4950751066207886,0.043129563331604004,-0.50624680519104],"type":"VEC3"},{"bufferView":5,"componentType":5126,"count":84,"type":"VEC3"},{"bufferView":6,"componentType":5126,"count":84,"type":"VEC2"},{"bufferView":7,"componentType":5123,"count":144,"type":"SCALAR"},{"bufferView":8,"componentType":5126,"count":84,"max":[0.3696994185447693,1.5724306106567383,0.3164058029651642],"min":[-0.31705063581466675,0.8248426914215088,-0.366171658039093],"type":"VEC3"},{"bufferView":9,"componentType":5126,"count":84,"type":"VEC3"},{"bufferView":10,"componentType":5126,"count":84,"type":"VEC2"},{"bufferView":11,"componentType":5123,"count":144,"type":"SCALAR"},{"bufferView":12,"componentType":5126,"count":112,"max":[0.21598581969738007,2.5980000495910645,0.16837432980537415],"min":[-0.14830085635185242,1.5924174785614014,-0.19088658690452576],"type":"VEC3"},{"bufferView":13,"componentType":5126,"count":112,"type":"VEC3"},{"bufferView":14,"componentType":5126,"count":112,"type":"VEC2"},{"bufferView":15,"componentType":5123,"count":180,"type":"SCALAR"}],"bufferViews":[{"buffer":0,"byteLength":288,"byteOffset":0,"target":34962},{"buffer":0,"byteLength":288,"byteOffset":288,"target":34962},{"buffer":0,"byteLength":192,"byteOffset":576,"target":34962},{"buffer":0,"byteLength":72,"byteOffset":768,"target":34963},{"buffer":0,"byteLength":1008,"byteOffset":840,"target":34962},{"buffer":0,"byteLength":1008,"byteOffset":1848,"target":34962},{"buffer":0,"byteLength":672,"byteOffset":2856,"target":34962},{"buffer":0,"byteLength":288,"byteOffset":3528,"target":34963},{"buffer":0,"byteLength":1008,"byteOffset":3816,"target":34962},{"buffer":0,"byteLength":1008,"byteOffset":4824,"target":34962},{"buffer":0,"byteLength":672,"byteOffset":5832,"target":34962},{"buffer":0,"byteLength":288,"byteOffset":6504,"target":34963},{"buffer":0,"byteLength":1344,"byteOffset":6792,"target":34962},{"buffer":0,"byteLength":1344,"byteOffset":8136,"target":34962},{"buffer":0,"byteLength":896,"byteOffset":9480,"target":34962},{"buffer":0,"byteLength":360,"byteOffset":10376,"target":34963}],"samplers":[{"magFilter":9729,"minFilter":9987}],"buffers":[{"byteLength":10736,"uri":"spruce.bin"}]}