{"asset":{"generator":"Khronos glTF Blender I/O v4.5.51","version":"2.0"},"scene":0,"scenes":[{"name":"Scene","nodes":[0]}],"nodes":[{"mesh":0,"name":"StoneHouse"}],"materials":[{"doubleSided":true,"name":"StoneDark","normalTexture":{"index":0,"scale":0.800000011920929},"pbrMetallicRoughness":{"baseColorTexture":{"index":1},"metallicFactor":0,"roughnessFactor":0.8600000143051147}},{"doubleSided":true,"name":"Stone","normalTexture":{"index":2,"scale":0.800000011920929},"pbrMetallicRoughness":{"baseColorTexture":{"index":3},"metallicFactor":0,"roughnessFactor":0.8799999952316284}},{"doubleSided":true,"name":"Timber","normalTexture":{"index":4,"scale":0.800000011920929},"pbrMetallicRoughness":{"baseColorTexture":{"index":5},"metallicFactor":0,"roughnessFactor":0.7200000286102295}},{"doubleSided":true,"name":"Slate","normalTexture":{"index":6,"scale":0.800000011920929},"pbrMetallicRoughness":{"baseColorTexture":{"index":7},"metallicFactor":0,"roughnessFactor":0.5199999809265137}},{"doubleSided":true,"name":"SlateLight","normalTexture":{"index":8,"scale":0.800000011920929},"pbrMetallicRoughness":{"baseColorTexture":{"index":9},"metallicFactor":0,"roughnessFactor":0.47999998927116394}},{"doubleSided":true,"name":"TimberDark","normalTexture":{"index":10,"scale":0.800000011920929},"pbrMetallicRoughness":{"baseColorTexture":{"index":11},"metallicFactor":0,"roughnessFactor":0.699999988079071}},{"doubleSided":true,"name":"Window","pbrMetallicRoughness":{"baseColorFactor":[0.023153366521000862,0.024157632142305374,0.03310476616024971,1],"metallicFactor":0,"roughnessFactor":0.3499999940395355}}],"meshes":[{"name":"Cube","primitives":[{"attributes":{"POSITION":0,"NORMAL":1,"TEXCOORD_0":2},"indices":3,"material":0},{"attributes":{"POSITION":4,"NORMAL":5,"TEXCOORD_0":6},"indices":7,"material":1},{"attributes":{"POSITION":8,"NORMAL":9,"TEXCOORD_0":10},"indices":11,"material":2},{"attributes":{"POSITION":12,"NORMAL":13,"TEXCOORD_0":14},"indices":15,"material":3},{"attributes":{"POSITION":16,"NORMAL":17,"TEXCOORD_0":18},"indices":19,"material":4},{"attributes":{"POSITION":20,"NORMAL":21,"TEXCOORD_0":22},"indices":23,"material":5},{"attributes":{"POSITION":24,"NORMAL":25,"TEXCOORD_0":26},"indices":27,"material":6}]}],"textures":[{"sampler":0,"source":0},{"sampler":0,"source":1},{"sampler":0,"source":0},{"sampler":0,"source":1},{"sampler":0,"source":2},{"sampler":0,"source":3},{"sampler":0,"source":4},{"sampler":0,"source":5},{"sampler":0,"source":4},{"sampler":0,"source":5},{"sampler":0,"source":2},{"sampler":0,"source":3}],"images":[{"mimeType":"image/png","name":"mat_masonry_n","uri":"../textures/mat_masonry_n.png"},{"mimeType":"image/png","name":"mat_masonry","uri":"../textures/mat_masonry.png"},{"mimeType":"image/png","name":"mat_timber_n","uri":"../textures/mat_timber_n.png"},{"mimeType":"image/png","name":"mat_timber","uri":"../textures/mat_timber.png"},{"mimeType":"image/png","name":"mat_shingle_n","uri":"../textures/mat_shingle_n.png"},{"mimeType":"image/png","name":"mat_shingle","uri":"../textures/mat_shingle.png"}],"accessors":[{"bufferView":0,"componentType":5126,"count":600,"max":[1.13155996799469,2.7199997901916504,1.0299999713897705],"min":[-1.048439860343933,0,-1.0299999713897705],"type":"VEC3"},{"bufferView":1,"componentType":5126,"count":600,"type":"VEC3"},{"bufferView":2,"componentType":5126,"count":600,"type":"VEC2"},{"bufferView":3,"componentType":5123,"count":888,"type":"SCALAR"},{"bufferView":4,"componentType":5126,"count":144,"max":[1.1815600395202637,2.7649996280670166,0.9999998807907104],"min":[-1.018439769744873,0.21999993920326233,-0.9999998807907104],"type":"VEC3"},{"bufferView":5,"componentType":5126,"count":144,"type":"VEC3"},{"bufferView":6,"componentType":5126,"count":144,"type":"VEC2"},{"bufferView":7,"componentType":5123,"count":204,"type":"SCALAR"},{"bufferView":8,"componentType":5126,"count":120,"max":[1.0215599536895752,1.6699999570846558,1.0399998426437378],"min":[-1.0584397315979004,0.8208000063896179,-1.0399998426437378],"type":"VEC3"},{"bufferView":9,"componentType":5126,"count":120,"type":"VEC3"},{"bufferView":10,"componentType":5126,"count":120,"type":"VEC2"},{"bufferView":11,"componentType":5123,"count":180,"type":"SCALAR"},{"bufferView":12,"componentType":5126,"count":216,"max":[1.1446802616119385,2.869999647140503,1.0999999046325684],"min":[-1.1815600395202637,1.6455622911453247,-1.0999999046325684],"type":"VEC3"},{"bufferView":13,"componentType":5126,"count":216,"type":"VEC3"},{"bufferView":14,"componentType":5126,"count":216,"type":"VEC2"},{"bufferView":15,"componentType":5123,"count":324,"type":"SCALAR"},{"bufferView":16,"componentType":5126,"count":192,"max":[1.0071803331375122,2.8824548721313477,1.0999999046325684],"min":[-1.0440601110458374,1.789312481880188,-1.0999999046325684],"type":"VEC3"},{"bufferView":17,"componentType":5126,"count":192,"type":"VEC3"},{"bufferView":18,"componentType":5126,"count":192,"type":"VEC2"},{"bufferView":19,"componentType":5123,"count":288,"type":"SCALAR"},{"bufferView":20,"componentType":5126,"count":24,"max":[0.2015600949525833,0.9599999785423279,-0.9099998474121094],"min":[-0.2384398728609085,0.21999993920326233,-1.0099998712539673],"type":"VEC3"},{"bufferView":21,"componentType":5126,"count":24,"type":"VEC3"},{"bufferView":22,"componentType":5126,"count":24,"type":"VEC2"},{"bufferView":23,"componentType":5123,"count":36,"type":"SCALAR"},{"bufferView":24,"componentType":5126,"count":72,"max":[0.77156001329422,1.1399999856948853,0.9999998211860657],"min":[-0.8084397912025452,0.8600000143051147,-0.9999998211860657],"type":"VEC3"},{"bufferView":25,"componentType":5126,"count":72,"type":"VEC3"},{"bufferView":26,"componentType":5126,"count":72,"type":"VEC2"},{"bufferView":27,"componentType":5123,"count":108,"type":"SCALAR"}],"bufferViews":[{"buffer":0,"byteLength":7200,"byteOffset":0,"target":34962},{"buffer":0,"byteLength":7200,"byteOffset":7200,"target":34962},{"buffer":0,"byteLength":4800,"byteOffset":14400,"target":34962},{"buffer":0,"byteLength":1776,"byteOffset":19200,"target":34963},{"buffer":0,"byteLength":1728,"byteOffset":20976,"target":34962},{"buffer":0,"byteLength":1728,"byteOffset":22704,"target":34962},{"buffer":0,"byteLength":1152,"byteOffset":24432,"target":34962},{"buffer":0,"byteLength":408,"byteOffset":25584,"target":34963},{"buffer":0,"byteLength":1440,"byteOffset":25992,"target":34962},{"buffer":0,"byteLength":1440,"byteOffset":27432,"target":34962},{"buffer":0,"byteLength":960,"byteOffset":28872,"target":34962},{"buffer":0,"byteLength":360,"byteOffset":29832,"target":34963},{"buffer":0,"byteLength":2592,"byteOffset":30192,"target":34962},{"buffer":0,"byteLength":2592,"byteOffset":32784,"target":34962},{"buffer":0,"byteLength":1728,"byteOffset":35376,"target":34962},{"buffer":0,"byteLength":648,"byteOffset":37104,"target":34963},{"buffer":0,"byteLength":2304,"byteOffset":37752,"target":34962},{"buffer":0,"byteLength":2304,"byteOffset":40056,"target":34962},{"buffer":0,"byteLength":1536,"byteOffset":42360,"target":34962},{"buffer":0,"byteLength":576,"byteOffset":43896,"target":34963},{"buffer":0,"byteLength":288,"byteOffset":44472,"target":34962},{"buffer":0,"byteLength":288,"byteOffset":44760,"target":34962},{"buffer":0,"byteLength":192,"byteOffset":45048,"target":34962},{"buffer":0,"byteLength":72,"byteOffset":45240,"target":34963},{"buffer":0,"byteLength":864,"byteOffset":45312,"target":34962},{"buffer":0,"byteLength":864,"byteOffset":46176,"target":34962},{"buffer":0,"byteLength":576,"byteOffset":47040,"target":34962},{"buffer":0,"byteLength":216,"byteOffset":47616,"target":34963}],"samplers":[{"magFilter":9729,"minFilter":9987}],"buffers":[{"byteLength":47832,"uri":"stonehouse.bin"}]}