{"asset":{"generator":"Khronos glTF Blender I/O v4.5.51","version":"2.0"},"scene":0,"scenes":[{"name":"Scene","nodes":[0]}],"nodes":[{"mesh":0,"name":"Tailor"}],"materials":[{"doubleSided":true,"name":"Stone","normalTexture":{"index":0,"scale":0.800000011920929},"pbrMetallicRoughness":{"baseColorTexture":{"index":1},"metallicFactor":0,"roughnessFactor":0.8799999952316284}},{"doubleSided":true,"name":"Plaster","normalTexture":{"index":2,"scale":0.800000011920929},"pbrMetallicRoughness":{"baseColorTexture":{"index":3},"metallicFactor":0,"roughnessFactor":0.949999988079071}},{"doubleSided":true,"name":"Timber","normalTexture":{"index":4,"scale":0.800000011920929},"pbrMetallicRoughness":{"baseColorTexture":{"index":5},"metallicFactor":0,"roughnessFactor":0.7200000286102295}},{"doubleSided":true,"name":"Shake","normalTexture":{"index":6,"scale":0.800000011920929},"pbrMetallicRoughness":{"baseColorTexture":{"index":7},"metallicFactor":0,"roughnessFactor":0.8600000143051147}},{"doubleSided":true,"name":"ShakeLight","normalTexture":{"index":8,"scale":0.800000011920929},"pbrMetallicRoughness":{"baseColorTexture":{"index":9},"metallicFactor":0,"roughnessFactor":0.8399999737739563}},{"doubleSided":true,"name":"TimberDark","normalTexture":{"index":10,"scale":0.800000011920929},"pbrMetallicRoughness":{"baseColorTexture":{"index":11},"metallicFactor":0,"roughnessFactor":0.699999988079071}},{"doubleSided":true,"name":"Window","pbrMetallicRoughness":{"baseColorFactor":[0.023153366521000862,0.024157632142305374,0.03310476616024971,1],"metallicFactor":0,"roughnessFactor":0.3499999940395355}},{"doubleSided":true,"name":"StoneDark","normalTexture":{"index":12,"scale":0.800000011920929},"pbrMetallicRoughness":{"baseColorTexture":{"index":13},"metallicFactor":0,"roughnessFactor":0.8600000143051147}},{"doubleSided":true,"name":"Cloth","pbrMetallicRoughness":{"baseColorFactor":[0.6239603757858276,0.5457244515419006,0.4019777774810791,1],"metallicFactor":0,"roughnessFactor":0.8799999952316284}}],"meshes":[{"name":"Cube","primitives":[{"attributes":{"POSITION":0,"NORMAL":1,"TEXCOORD_0":2},"indices":3,"material":0},{"attributes":{"POSITION":4,"NORMAL":5,"TEXCOORD_0":6},"indices":7,"material":1},{"attributes":{"POSITION":8,"NORMAL":9,"TEXCOORD_0":10},"indices":11,"material":2},{"attributes":{"POSITION":12,"NORMAL":13,"TEXCOORD_0":14},"indices":15,"material":3},{"attributes":{"POSITION":16,"NORMAL":17,"TEXCOORD_0":18},"indices":19,"material":4},{"attributes":{"POSITION":20,"NORMAL":21,"TEXCOORD_0":22},"indices":7,"material":5},{"attributes":{"POSITION":23,"NORMAL":24,"TEXCOORD_0":25},"indices":26,"material":6},{"attributes":{"POSITION":27,"NORMAL":28,"TEXCOORD_0":29},"indices":7,"material":7},{"attributes":{"POSITION":30,"NORMAL":31,"TEXCOORD_0":32},"indices":33,"material":8}]}],"textures":[{"sampler":0,"source":0},{"sampler":0,"source":1},{"sampler":0,"source":2},{"sampler":0,"source":3},{"sampler":0,"source":4},{"sampler":0,"source":5},{"sampler":0,"source":6},{"sampler":0,"source":7},{"sampler":0,"source":6},{"sampler":0,"source":7},{"sampler":0,"source":4},{"sampler":0,"source":5},{"sampler":0,"source":0},{"sampler":0,"source":1}],"images":[{"mimeType":"image/png","name":"mat_masonry_n","uri":"../textures/mat_masonry_n.png"},{"mimeType":"image/png","name":"mat_masonry","uri":"../textures/mat_masonry.png"},{"mimeType":"image/png","name":"mat_plaster_n","uri":"../textures/mat_plaster_n.png"},{"mimeType":"image/png","name":"mat_plaster","uri":"../textures/mat_plaster.png"},{"mimeType":"image/png","name":"mat_timber_n","uri":"../textures/mat_timber_n.png"},{"mimeType":"image/png","name":"mat_timber","uri":"../textures/mat_timber.png"},{"mimeType":"image/png","name":"mat_shake_n","uri":"../textures/mat_shake_n.png"},{"mimeType":"image/png","name":"mat_shake","uri":"../textures/mat_shake.png"}],"accessors":[{"bufferView":0,"componentType":5126,"count":120,"max":[0.5969115495681763,2.365000009536743,1.434999942779541],"min":[-1.3630884885787964,0,-0.3050000071525574],"type":"VEC3"},{"bufferView":1,"componentType":5126,"count":120,"type":"VEC3"},{"bufferView":2,"componentType":5126,"count":120,"type":"VEC2"},{"bufferView":3,"componentType":5123,"count":168,"type":"SCALAR"},{"bufferView":4,"componentType":5126,"count":24,"max":[0.45691150426864624,1.4000000953674316,1.2950000762939453],"min":[-1.2230885028839111,0.18000000715255737,-0.16500002145767212],"type":"VEC3"},{"bufferView":5,"componentType":5126,"count":24,"type":"VEC3"},{"bufferView":6,"componentType":5126,"count":24,"type":"VEC2"},{"bufferView":7,"componentType":5123,"count":36,"type":"SCALAR"},{"bufferView":8,"componentType":5126,"count":792,"max":[1.496911644935608,1.4000000953674316,1.375],"min":[-1.293088436126709,0,-1.5049998760223389],"type":"VEC3"},{"bufferView":9,"componentType":5126,"count":792,"type":"VEC3"},{"bufferView":10,"componentType":5126,"count":792,"type":"VEC2"},{"bufferView":11,"componentType":5123,"count":1188,"type":"SCALAR"},{"bufferView":12,"componentType":5126,"count":216,"max":[0.7307347059249878,2.4842216968536377,1.5049998760223389],"min":[-1.496911644935608,1.3752286434173584,-0.3749999403953552],"type":"VEC3"},{"bufferView":13,"componentType":5126,"count":216,"type":"VEC3"},{"bufferView":14,"componentType":5126,"count":216,"type":"VEC2"},{"bufferView":15,"componentType":5123,"count":324,"type":"SCALAR"},{"bufferView":16,"componentType":5126,"count":144,"max":[0.5807347893714905,2.3385074138641357,1.5049998760223389],"min":[-1.3469116687774658,1.5209429264068604,-0.3749999403953552],"type":"VEC3"},{"bufferView":17,"componentType":5126,"count":144,"type":"VEC3"},{"bufferView":18,"componentType":5126,"count":144,"type":"VEC2"},{"bufferView":19,"componentType":5123,"count":216,"type":"SCALAR"},{"bufferView":20,"componentType":5126,"count":24,"max":[-0.6730884909629822,0.8600000143051147,-0.14499998092651367],"min":[-1.0530884265899658,0.1799999624490738,-0.24500000476837158],"type":"VEC3"},{"bufferView":21,"componentType":5126,"count":24,"type":"VEC3"},{"bufferView":22,"componentType":5126,"count":24,"type":"VEC2"},{"bufferView":23,"componentType":5126,"count":48,"max":[0.23691153526306152,1.059999942779541,1.3650000095367432],"min":[-0.5330884456634521,0.7400000095367432,-0.23500001430511475],"type":"VEC3"},{"bufferView":24,"componentType":5126,"count":48,"type":"VEC3"},{"bufferView":25,"componentType":5126,"count":48,"type":"VEC2"},{"bufferView":26,"componentType":5123,"count":72,"type":"SCALAR"},{"bufferView":27,"componentType":5126,"count":24,"max":[-0.823088526725769,2.319999933242798,1.1049998998641968],"min":[-1.103088617324829,1.4000000953674316,0.8249999284744263],"type":"VEC3"},{"bufferView":28,"componentType":5126,"count":24,"type":"VEC3"},{"bufferView":29,"componentType":5126,"count":24,"type":"VEC2"},{"bufferView":30,"componentType":5126,"count":288,"max":[1.3874115943908691,1.3195950984954834,1.1600000858306885],"min":[-1.1230884790420532,0.15000000596046448,-1.3299999237060547],"type":"VEC3"},{"bufferView":31,"componentType":5126,"count":288,"type":"VEC3"},{"bufferView":32,"componentType":5126,"count":288,"type":"VEC2"},{"bufferView":33,"componentType":5123,"count":432,"type":"SCALAR"}],"bufferViews":[{"buffer":0,"byteLength":1440,"byteOffset":0,"target":34962},{"buffer":0,"byteLength":1440,"byteOffset":1440,"target":34962},{"buffer":0,"byteLength":960,"byteOffset":2880,"target":34962},{"buffer":0,"byteLength":336,"byteOffset":3840,"target":34963},{"buffer":0,"byteLength":288,"byteOffset":4176,"target":34962},{"buffer":0,"byteLength":288,"byteOffset":4464,"target":34962},{"buffer":0,"byteLength":192,"byteOffset":4752,"target":34962},{"buffer":0,"byteLength":72,"byteOffset":4944,"target":34963},{"buffer":0,"byteLength":9504,"byteOffset":5016,"target":34962},{"buffer":0,"byteLength":9504,"byteOffset":14520,"target":34962},{"buffer":0,"byteLength":6336,"byteOffset":24024,"target":34962},{"buffer":0,"byteLength":2376,"byteOffset":30360,"target":34963},{"buffer":0,"byteLength":2592,"byteOffset":32736,"target":34962},{"buffer":0,"byteLength":2592,"byteOffset":35328,"target":34962},{"buffer":0,"byteLength":1728,"byteOffset":37920,"target":34962},{"buffer":0,"byteLength":648,"byteOffset":39648,"target":34963},{"buffer":0,"byteLength":1728,"byteOffset":40296,"target":34962},{"buffer":0,"byteLength":1728,"byteOffset":42024,"target":34962},{"buffer":0,"byteLength":1152,"byteOffset":43752,"target":34962},{"buffer":0,"byteLength":432,"byteOffset":44904,"target":34963},{"buffer":0,"byteLength":288,"byteOffset":45336,"target":34962},{"buffer":0,"byteLength":288,"byteOffset":45624,"target":34962},{"buffer":0,"byteLength":192,"byteOffset":45912,"target":34962},{"buffer":0,"byteLength":576,"byteOffset":46104,"target":34962},{"buffer":0,"byteLength":576,"byteOffset":46680,"target":34962},{"buffer":0,"byteLength":384,"byteOffset":47256,"target":34962},{"buffer":0,"byteLength":144,"byteOffset":47640,"target":34963},{"buffer":0,"byteLength":288,"byteOffset":47784,"target":34962},{"buffer":0,"byteLength":288,"byteOffset":48072,"target":34962},{"buffer":0,"byteLength":192,"byteOffset":48360,"target":34962},{"buffer":0,"byteLength":3456,"byteOffset":48552,"target":34962},{"buffer":0,"byteLength":3456,"byteOffset":52008,"target":34962},{"buffer":0,"byteLength":2304,"byteOffset":55464,"target":34962},{"buffer":0,"byteLength":864,"byteOffset":57768,"target":34963}],"samplers":[{"magFilter":9729,"minFilter":9987}],"buffers":[{"byteLength":58632,"uri":"tailor.bin"}]}