{"asset":{"generator":"Khronos glTF Blender I/O v4.5.51","version":"2.0"},"scene":0,"scenes":[{"name":"Scene","nodes":[0]}],"nodes":[{"mesh":0,"name":"Tavern"}],"materials":[{"doubleSided":true,"name":"Stone","normalTexture":{"index":0,"scale":0.800000011920929},"pbrMetallicRoughness":{"baseColorTexture":{"index":1},"metallicFactor":0,"roughnessFactor":0.8799999952316284}},{"doubleSided":true,"name":"Plaster","normalTexture":{"index":2,"scale":0.800000011920929},"pbrMetallicRoughness":{"baseColorTexture":{"index":3},"metallicFactor":0,"roughnessFactor":0.949999988079071}},{"doubleSided":true,"name":"Timber","normalTexture":{"index":4,"scale":0.800000011920929},"pbrMetallicRoughness":{"baseColorTexture":{"index":5},"metallicFactor":0,"roughnessFactor":0.7200000286102295}},{"doubleSided":true,"name":"Slate","normalTexture":{"index":6,"scale":0.800000011920929},"pbrMetallicRoughness":{"baseColorTexture":{"index":7},"metallicFactor":0,"roughnessFactor":0.5199999809265137}},{"doubleSided":true,"name":"SlateLight","normalTexture":{"index":8,"scale":0.800000011920929},"pbrMetallicRoughness":{"baseColorTexture":{"index":9},"metallicFactor":0,"roughnessFactor":0.47999998927116394}},{"doubleSided":true,"name":"TimberDark","normalTexture":{"index":10,"scale":0.800000011920929},"pbrMetallicRoughness":{"baseColorTexture":{"index":11},"metallicFactor":0,"roughnessFactor":0.699999988079071}},{"doubleSided":true,"name":"Window","pbrMetallicRoughness":{"baseColorFactor":[0.023153366521000862,0.024157632142305374,0.03310476616024971,1],"metallicFactor":0,"roughnessFactor":0.3499999940395355}},{"doubleSided":true,"name":"StoneDark","normalTexture":{"index":12,"scale":0.800000011920929},"pbrMetallicRoughness":{"baseColorTexture":{"index":13},"metallicFactor":0,"roughnessFactor":0.8600000143051147}},{"doubleSided":true,"name":"Bark","normalTexture":{"index":14,"scale":0.800000011920929},"pbrMetallicRoughness":{"baseColorTexture":{"index":15},"metallicFactor":0,"roughnessFactor":0.8999999761581421}}],"meshes":[{"name":"Cube","primitives":[{"attributes":{"POSITION":0,"NORMAL":1,"TEXCOORD_0":2},"indices":3,"material":0},{"attributes":{"POSITION":4,"NORMAL":5,"TEXCOORD_0":6},"indices":7,"material":1},{"attributes":{"POSITION":8,"NORMAL":9,"TEXCOORD_0":10},"indices":11,"material":2},{"attributes":{"POSITION":12,"NORMAL":13,"TEXCOORD_0":14},"indices":15,"material":3},{"attributes":{"POSITION":16,"NORMAL":17,"TEXCOORD_0":18},"indices":19,"material":4},{"attributes":{"POSITION":20,"NORMAL":21,"TEXCOORD_0":22},"indices":23,"material":5},{"attributes":{"POSITION":24,"NORMAL":25,"TEXCOORD_0":26},"indices":27,"material":6},{"attributes":{"POSITION":28,"NORMAL":29,"TEXCOORD_0":30},"indices":31,"material":7},{"attributes":{"POSITION":32,"NORMAL":33,"TEXCOORD_0":34},"indices":35,"material":8}]}],"textures":[{"sampler":0,"source":0},{"sampler":0,"source":1},{"sampler":0,"source":2},{"sampler":0,"source":3},{"sampler":0,"source":4},{"sampler":0,"source":5},{"sampler":0,"source":6},{"sampler":0,"source":7},{"sampler":0,"source":6},{"sampler":0,"source":7},{"sampler":0,"source":4},{"sampler":0,"source":5},{"sampler":0,"source":0},{"sampler":0,"source":1},{"sampler":0,"source":8},{"sampler":0,"source":9}],"images":[{"mimeType":"image/png","name":"mat_masonry_n","uri":"../textures/mat_masonry_n.png"},{"mimeType":"image/png","name":"mat_masonry","uri":"../textures/mat_masonry.png"},{"mimeType":"image/png","name":"mat_plaster_n","uri":"../textures/mat_plaster_n.png"},{"mimeType":"image/png","name":"mat_plaster","uri":"../textures/mat_plaster.png"},{"mimeType":"image/png","name":"mat_timber_n","uri":"../textures/mat_timber_n.png"},{"mimeType":"image/png","name":"mat_timber","uri":"../textures/mat_timber.png"},{"mimeType":"image/png","name":"mat_shingle_n","uri":"../textures/mat_shingle_n.png"},{"mimeType":"image/png","name":"mat_shingle","uri":"../textures/mat_shingle.png"},{"mimeType":"image/png","name":"mat_bark_n","uri":"../textures/mat_bark_n.png"},{"mimeType":"image/png","name":"mat_bark","uri":"../textures/mat_bark.png"}],"accessors":[{"bufferView":0,"componentType":5126,"count":120,"max":[1.3199999332427979,3.0249998569488525,1.679999828338623],"min":[-1.374800205230713,1.4901161193847656e-08,-0.6200001239776611],"type":"VEC3"},{"bufferView":1,"componentType":5126,"count":120,"type":"VEC3"},{"bufferView":2,"componentType":5126,"count":120,"type":"VEC2"},{"bufferView":3,"componentType":5123,"count":168,"type":"SCALAR"},{"bufferView":4,"componentType":5126,"count":48,"max":[1.320000171661377,1.9199999570846558,1.679999828338623],"min":[-1.1800000667572021,0.20000006258487701,-0.6200001239776611],"type":"VEC3"},{"bufferView":5,"componentType":5126,"count":48,"type":"VEC3"},{"bufferView":6,"componentType":5126,"count":48,"type":"VEC2"},{"bufferView":7,"componentType":5123,"count":72,"type":"SCALAR"},{"bufferView":8,"componentType":5126,"count":900,"max":[1.9300000667572021,1.9199999570846558,1.7499998807907104],"min":[-1.5400002002716064,1.4901161193847656e-08,-1.6100000143051147],"type":"VEC3"},{"bufferView":9,"componentType":5126,"count":900,"type":"VEC3"},{"bufferView":10,"componentType":5126,"count":900,"type":"VEC2"},{"bufferView":11,"componentType":5123,"count":1404,"type":"SCALAR"},{"bufferView":12,"componentType":5126,"count":288,"max":[2.000000238418579,2.9099998474121094,1.8700000047683716],"min":[-1.430664300918579,1.2072830200195312,-0.8100003004074097],"type":"VEC3"},{"bufferView":13,"componentType":5126,"count":288,"type":"VEC3"},{"bufferView":14,"componentType":5126,"count":288,"type":"VEC2"},{"bufferView":15,"componentType":5123,"count":432,"type":"SCALAR"},{"bufferView":16,"componentType":5126,"count":240,"max":[2.000000238418579,2.9260306358337402,1.8700000047683716],"min":[-1.250664234161377,1.2672829627990723,-0.8100003004074097],"type":"VEC3"},{"bufferView":17,"componentType":5126,"count":240,"type":"VEC3"},{"bufferView":18,"componentType":5126,"count":240,"type":"VEC2"},{"bufferView":19,"componentType":5123,"count":360,"type":"SCALAR"},{"bufferView":20,"componentType":5126,"count":360,"max":[1.8821690082550049,1.1200000047683716,-0.3850001096725464],"min":[-1.5200002193450928,1.4901161193847656e-08,-1.8700000047683716],"type":"VEC3"},{"bufferView":21,"componentType":5126,"count":360,"type":"VEC3"},{"bufferView":22,"componentType":5126,"count":360,"type":"VEC2"},{"bufferView":23,"componentType":5123,"count":576,"type":"SCALAR"},{"bufferView":24,"componentType":5126,"count":144,"max":[1.190000057220459,1.6999999284744263,-0.6100002527236938],"min":[-0.8000001311302185,0.6700000166893005,-0.6900002956390381],"type":"VEC3"},{"bufferView":25,"componentType":5126,"count":144,"type":"VEC3"},{"bufferView":26,"componentType":5126,"count":144,"type":"VEC2"},{"bufferView":27,"componentType":5123,"count":216,"type":"SCALAR"},{"bufferView":28,"componentType":5126,"count":24,"max":[-1.010000228881836,2.9799997806549072,1.2099997997283936],"min":[-1.3300001621246338,1.9200000762939453,0.8899998664855957],"type":"VEC3"},{"bufferView":29,"componentType":5126,"count":24,"type":"VEC3"},{"bufferView":30,"componentType":5126,"count":24,"type":"VEC2"},{"bufferView":31,"componentType":5123,"count":36,"type":"SCALAR"},{"bufferView":32,"componentType":5126,"count":432,"max":[-1.380000114440918,0.4200000464916229,0.5156248807907104],"min":[-2.000000238418579,0,-0.09562510251998901],"type":"VEC3"},{"bufferView":33,"componentType":5126,"count":432,"type":"VEC3"},{"bufferView":34,"componentType":5126,"count":432,"type":"VEC2"},{"bufferView":35,"componentType":5123,"count":756,"type":"SCALAR"}],"bufferViews":[{"buffer":0,"byteLength":1440,"byteOffset":0,"target":34962},{"buffer":0,"byteLength":1440,"byteOffset":1440,"target":34962},{"buffer":0,"byteLength":960,"byteOffset":2880,"target":34962},{"buffer":0,"byteLength":336,"byteOffset":3840,"target":34963},{"buffer":0,"byteLength":576,"byteOffset":4176,"target":34962},{"buffer":0,"byteLength":576,"byteOffset":4752,"target":34962},{"buffer":0,"byteLength":384,"byteOffset":5328,"target":34962},{"buffer":0,"byteLength":144,"byteOffset":5712,"target":34963},{"buffer":0,"byteLength":10800,"byteOffset":5856,"target":34962},{"buffer":0,"byteLength":10800,"byteOffset":16656,"target":34962},{"buffer":0,"byteLength":7200,"byteOffset":27456,"target":34962},{"buffer":0,"byteLength":2808,"byteOffset":34656,"target":34963},{"buffer":0,"byteLength":3456,"byteOffset":37464,"target":34962},{"buffer":0,"byteLength":3456,"byteOffset":40920,"target":34962},{"buffer":0,"byteLength":2304,"byteOffset":44376,"target":34962},{"buffer":0,"byteLength":864,"byteOffset":46680,"target":34963},{"buffer":0,"byteLength":2880,"byteOffset":47544,"target":34962},{"buffer":0,"byteLength":2880,"byteOffset":50424,"target":34962},{"buffer":0,"byteLength":1920,"byteOffset":53304,"target":34962},{"buffer":0,"byteLength":720,"byteOffset":55224,"target":34963},{"buffer":0,"byteLength":4320,"byteOffset":55944,"target":34962},{"buffer":0,"byteLength":4320,"byteOffset":60264,"target":34962},{"buffer":0,"byteLength":2880,"byteOffset":64584,"target":34962},{"buffer":0,"byteLength":1152,"byteOffset":67464,"target":34963},{"buffer":0,"byteLength":1728,"byteOffset":68616,"target":34962},{"buffer":0,"byteLength":1728,"byteOffset":70344,"target":34962},{"buffer":0,"byteLength":1152,"byteOffset":72072,"target":34962},{"buffer":0,"byteLength":432,"byteOffset":73224,"target":34963},{"buffer":0,"byteLength":288,"byteOffset":73656,"target":34962},{"buffer":0,"byteLength":288,"byteOffset":73944,"target":34962},{"buffer":0,"byteLength":192,"byteOffset":74232,"target":34962},{"buffer":0,"byteLength":72,"byteOffset":74424,"target":34963},{"buffer":0,"byteLength":5184,"byteOffset":74496,"target":34962},{"buffer":0,"byteLength":5184,"byteOffset":79680,"target":34962},{"buffer":0,"byteLength":3456,"byteOffset":84864,"target":34962},{"buffer":0,"byteLength":1512,"byteOffset":88320,"target":34963}],"samplers":[{"magFilter":9729,"minFilter":9987}],"buffers":[{"byteLength":89832,"uri":"tavern.bin"}]}