{"asset":{"generator":"Khronos glTF Blender I/O v4.5.51","version":"2.0"},"scene":0,"scenes":[{"name":"Scene","nodes":[0]}],"nodes":[{"mesh":0,"name":"townhall"}],"materials":[{"doubleSided":true,"name":"Stone","normalTexture":{"index":0,"scale":0.800000011920929},"pbrMetallicRoughness":{"baseColorTexture":{"index":1},"metallicFactor":0,"roughnessFactor":0.8799999952316284}},{"doubleSided":true,"name":"StoneDark","normalTexture":{"index":2,"scale":0.800000011920929},"pbrMetallicRoughness":{"baseColorTexture":{"index":3},"metallicFactor":0,"roughnessFactor":0.8600000143051147}},{"doubleSided":true,"name":"Window","pbrMetallicRoughness":{"baseColorFactor":[0.023153366521000862,0.024157632142305374,0.03310476616024971,1],"metallicFactor":0,"roughnessFactor":0.3499999940395355}},{"doubleSided":true,"name":"Timber","normalTexture":{"index":4,"scale":0.800000011920929},"pbrMetallicRoughness":{"baseColorTexture":{"index":5},"metallicFactor":0,"roughnessFactor":0.7200000286102295}},{"doubleSided":true,"name":"TimberDark","normalTexture":{"index":6,"scale":0.800000011920929},"pbrMetallicRoughness":{"baseColorTexture":{"index":7},"metallicFactor":0,"roughnessFactor":0.699999988079071}},{"doubleSided":true,"name":"Plaster","normalTexture":{"index":8,"scale":0.800000011920929},"pbrMetallicRoughness":{"baseColorTexture":{"index":9},"metallicFactor":0,"roughnessFactor":0.949999988079071}},{"doubleSided":true,"name":"Slate","normalTexture":{"index":10,"scale":0.800000011920929},"pbrMetallicRoughness":{"baseColorTexture":{"index":11},"metallicFactor":0,"roughnessFactor":0.5199999809265137}},{"doubleSided":true,"name":"Metal","pbrMetallicRoughness":{"baseColorFactor":[0.06847816705703735,0.07036009430885315,0.0802198201417923,1],"metallicFactor":0,"roughnessFactor":0.41999998688697815}}],"meshes":[{"name":"Cube","primitives":[{"attributes":{"POSITION":0,"NORMAL":1,"TEXCOORD_0":2},"indices":3,"material":0},{"attributes":{"POSITION":4,"NORMAL":5,"TEXCOORD_0":6},"indices":7,"material":1},{"attributes":{"POSITION":8,"NORMAL":9,"TEXCOORD_0":10},"indices":11,"material":2},{"attributes":{"POSITION":12,"NORMAL":13,"TEXCOORD_0":14},"indices":15,"material":3},{"attributes":{"POSITION":16,"NORMAL":17,"TEXCOORD_0":18},"indices":19,"material":4},{"attributes":{"POSITION":20,"NORMAL":21,"TEXCOORD_0":22},"indices":23,"material":5},{"attributes":{"POSITION":24,"NORMAL":25,"TEXCOORD_0":26},"indices":27,"material":6},{"attributes":{"POSITION":28,"NORMAL":29,"TEXCOORD_0":30},"indices":31,"material":7}]}],"textures":[{"sampler":0,"source":0},{"sampler":0,"source":1},{"sampler":0,"source":0},{"sampler":0,"source":1},{"sampler":0,"source":2},{"sampler":0,"source":3},{"sampler":0,"source":2},{"sampler":0,"source":3},{"sampler":0,"source":4},{"sampler":0,"source":5},{"sampler":0,"source":6},{"sampler":0,"source":7}],"images":[{"mimeType":"image/png","name":"mat_masonry_n","uri":"../textures/mat_masonry_n.png"},{"mimeType":"image/png","name":"mat_masonry","uri":"../textures/mat_masonry.png"},{"mimeType":"image/png","name":"mat_timber_n","uri":"../textures/mat_timber_n.png"},{"mimeType":"image/png","name":"mat_timber","uri":"../textures/mat_timber.png"},{"mimeType":"image/png","name":"mat_plaster_n","uri":"../textures/mat_plaster_n.png"},{"mimeType":"image/png","name":"mat_plaster","uri":"../textures/mat_plaster.png"},{"mimeType":"image/png","name":"mat_shingle_n","uri":"../textures/mat_shingle_n.png"},{"mimeType":"image/png","name":"mat_shingle","uri":"../textures/mat_shingle.png"}],"accessors":[{"bufferView":0,"componentType":5126,"count":264,"max":[2.2699999809265137,5.9150004386901855,2.5200002193450928],"min":[-2.2699999809265137,0,-2.5200002193450928],"type":"VEC3"},{"bufferView":1,"componentType":5126,"count":264,"type":"VEC3"},{"bufferView":2,"componentType":5126,"count":264,"type":"VEC2"},{"bufferView":3,"componentType":5123,"count":384,"type":"SCALAR"},{"bufferView":4,"componentType":5126,"count":1152,"max":[2.1800003051757812,5.39500093460083,2.4300005435943604],"min":[-2.1800003051757812,0.4350000321865082,-1.9300000667572021],"type":"VEC3"},{"bufferView":5,"componentType":5126,"count":1152,"type":"VEC3"},{"bufferView":6,"componentType":5126,"count":1152,"type":"VEC2"},{"bufferView":7,"componentType":5123,"count":1680,"type":"SCALAR"},{"bufferView":8,"componentType":5126,"count":960,"max":[2.1000001430511475,4.983000755310059,2.3500003814697266],"min":[-2.1000001430511475,0.7730001211166382,-1.8499999046325684],"type":"VEC3"},{"bufferView":9,"componentType":5126,"count":960,"type":"VEC3"},{"bufferView":10,"componentType":5126,"count":960,"type":"VEC2"},{"bufferView":11,"componentType":5123,"count":1440,"type":"SCALAR"},{"bufferView":12,"componentType":5126,"count":1008,"max":[2.109999895095825,5.039000034332275,2.3600003719329834],"min":[-2.109999895095825,0.7170000672340393,-2.4200000762939453],"type":"VEC3"},{"bufferView":13,"componentType":5126,"count":1008,"type":"VEC3"},{"bufferView":14,"componentType":5126,"count":1008,"type":"VEC2"},{"bufferView":15,"componentType":5123,"count":1512,"type":"SCALAR"},{"bufferView":16,"componentType":5126,"count":168,"max":[0.5699999928474426,5.895000457763672,1.4995002746582031],"min":[-0.5699999928474426,0.375,-2.380000114440918],"type":"VEC3"},{"bufferView":17,"componentType":5126,"count":168,"type":"VEC3"},{"bufferView":18,"componentType":5126,"count":168,"type":"VEC2"},{"bufferView":19,"componentType":5123,"count":252,"type":"SCALAR"},{"bufferView":20,"componentType":5126,"count":48,"max":[0.2199999988079071,5.90500020980835,1.4695003032684326],"min":[-0.2199999988079071,5.465000152587891,-0.9694998860359192],"type":"VEC3"},{"bufferView":21,"componentType":5126,"count":48,"type":"VEC3"},{"bufferView":22,"componentType":5126,"count":48,"type":"VEC2"},{"bufferView":23,"componentType":5123,"count":72,"type":"SCALAR"},{"bufferView":24,"componentType":5126,"count":16,"max":[1.2681254148483276,6.535000801086426,1.5181255340576172],"min":[-1.2681254148483276,5.915000915527344,-1.018125295639038],"type":"VEC3"},{"bufferView":25,"componentType":5126,"count":16,"type":"VEC3"},{"bufferView":26,"componentType":5126,"count":16,"type":"VEC2"},{"bufferView":27,"componentType":5123,"count":18,"type":"SCALAR"},{"bufferView":28,"componentType":5126,"count":24,"max":[0.03500000387430191,6.7950005531311035,0.28500017523765564],"min":[-0.03500000387430191,6.495000839233398,0.21500015258789062],"type":"VEC3"},{"bufferView":29,"componentType":5126,"count":24,"type":"VEC3"},{"bufferView":30,"componentType":5126,"count":24,"type":"VEC2"},{"bufferView":31,"componentType":5123,"count":36,"type":"SCALAR"}],"bufferViews":[{"buffer":0,"byteLength":3168,"byteOffset":0,"target":34962},{"buffer":0,"byteLength":3168,"byteOffset":3168,"target":34962},{"buffer":0,"byteLength":2112,"byteOffset":6336,"target":34962},{"buffer":0,"byteLength":768,"byteOffset":8448,"target":34963},{"buffer":0,"byteLength":13824,"byteOffset":9216,"target":34962},{"buffer":0,"byteLength":13824,"byteOffset":23040,"target":34962},{"buffer":0,"byteLength":9216,"byteOffset":36864,"target":34962},{"buffer":0,"byteLength":3360,"byteOffset":46080,"target":34963},{"buffer":0,"byteLength":11520,"byteOffset":49440,"target":34962},{"buffer":0,"byteLength":11520,"byteOffset":60960,"target":34962},{"buffer":0,"byteLength":7680,"byteOffset":72480,"target":34962},{"buffer":0,"byteLength":2880,"byteOffset":80160,"target":34963},{"buffer":0,"byteLength":12096,"byteOffset":83040,"target":34962},{"buffer":0,"byteLength":12096,"byteOffset":95136,"target":34962},{"buffer":0,"byteLength":8064,"byteOffset":107232,"target":34962},{"buffer":0,"byteLength":3024,"byteOffset":115296,"target":34963},{"buffer":0,"byteLength":2016,"byteOffset":118320,"target":34962},{"buffer":0,"byteLength":2016,"byteOffset":120336,"target":34962},{"buffer":0,"byteLength":1344,"byteOffset":122352,"target":34962},{"buffer":0,"byteLength":504,"byteOffset":123696,"target":34963},{"buffer":0,"byteLength":576,"byteOffset":124200,"target":34962},{"buffer":0,"byteLength":576,"byteOffset":124776,"target":34962},{"buffer":0,"byteLength":384,"byteOffset":125352,"target":34962},{"buffer":0,"byteLength":144,"byteOffset":125736,"target":34963},{"buffer":0,"byteLength":192,"byteOffset":125880,"target":34962},{"buffer":0,"byteLength":192,"byteOffset":126072,"target":34962},{"buffer":0,"byteLength":128,"byteOffset":126264,"target":34962},{"buffer":0,"byteLength":36,"byteOffset":126392,"target":34963},{"buffer":0,"byteLength":288,"byteOffset":126428,"target":34962},{"buffer":0,"byteLength":288,"byteOffset":126716,"target":34962},{"buffer":0,"byteLength":192,"byteOffset":127004,"target":34962},{"buffer":0,"byteLength":72,"byteOffset":127196,"target":34963}],"samplers":[{"magFilter":9729,"minFilter":9987}],"buffers":[{"byteLength":127268,"uri":"townhall.bin"}]}