{"asset":{"generator":"Khronos glTF Blender I/O v4.5.51","version":"2.0"},"scene":0,"scenes":[{"name":"Scene","nodes":[0]}],"nodes":[{"mesh":0,"name":"Trading"}],"materials":[{"doubleSided":true,"name":"Stone","normalTexture":{"index":0,"scale":0.800000011920929},"pbrMetallicRoughness":{"baseColorTexture":{"index":1},"metallicFactor":0,"roughnessFactor":0.8799999952316284}},{"doubleSided":true,"name":"Plaster","normalTexture":{"index":2,"scale":0.800000011920929},"pbrMetallicRoughness":{"baseColorTexture":{"index":3},"metallicFactor":0,"roughnessFactor":0.949999988079071}},{"doubleSided":true,"name":"Timber","normalTexture":{"index":4,"scale":0.800000011920929},"pbrMetallicRoughness":{"baseColorTexture":{"index":5},"metallicFactor":0,"roughnessFactor":0.7200000286102295}},{"doubleSided":true,"name":"Slate","normalTexture":{"index":6,"scale":0.800000011920929},"pbrMetallicRoughness":{"baseColorTexture":{"index":7},"metallicFactor":0,"roughnessFactor":0.5199999809265137}},{"doubleSided":true,"name":"SlateLight","normalTexture":{"index":8,"scale":0.800000011920929},"pbrMetallicRoughness":{"baseColorTexture":{"index":9},"metallicFactor":0,"roughnessFactor":0.47999998927116394}},{"doubleSided":true,"name":"Metal","pbrMetallicRoughness":{"baseColorFactor":[0.06847816705703735,0.07036009430885315,0.0802198201417923,1],"metallicFactor":0,"roughnessFactor":0.41999998688697815}},{"doubleSided":true,"name":"Window","pbrMetallicRoughness":{"baseColorFactor":[0.023153366521000862,0.024157632142305374,0.03310476616024971,1],"metallicFactor":0,"roughnessFactor":0.3499999940395355}},{"doubleSided":true,"name":"TimberDark","normalTexture":{"index":10,"scale":0.800000011920929},"pbrMetallicRoughness":{"baseColorTexture":{"index":11},"metallicFactor":0,"roughnessFactor":0.699999988079071}},{"doubleSided":true,"name":"Cloth","pbrMetallicRoughness":{"baseColorFactor":[0.6239603757858276,0.5457244515419006,0.4019777774810791,1],"metallicFactor":0,"roughnessFactor":0.8799999952316284}}],"meshes":[{"name":"Cube","primitives":[{"attributes":{"POSITION":0,"NORMAL":1,"TEXCOORD_0":2},"indices":3,"material":0},{"attributes":{"POSITION":4,"NORMAL":5,"TEXCOORD_0":6},"indices":7,"material":1},{"attributes":{"POSITION":8,"NORMAL":9,"TEXCOORD_0":10},"indices":11,"material":2},{"attributes":{"POSITION":12,"NORMAL":13,"TEXCOORD_0":14},"indices":15,"material":3},{"attributes":{"POSITION":16,"NORMAL":17,"TEXCOORD_0":18},"indices":19,"material":4},{"attributes":{"POSITION":20,"NORMAL":21,"TEXCOORD_0":22},"indices":23,"material":5},{"attributes":{"POSITION":24,"NORMAL":25,"TEXCOORD_0":26},"indices":7,"material":6},{"attributes":{"POSITION":27,"NORMAL":28,"TEXCOORD_0":29},"indices":30,"material":7},{"attributes":{"POSITION":31,"NORMAL":32,"TEXCOORD_0":33},"indices":34,"material":8}]}],"textures":[{"sampler":0,"source":0},{"sampler":0,"source":1},{"sampler":0,"source":2},{"sampler":0,"source":3},{"sampler":0,"source":4},{"sampler":0,"source":5},{"sampler":0,"source":6},{"sampler":0,"source":7},{"sampler":0,"source":6},{"sampler":0,"source":7},{"sampler":0,"source":4},{"sampler":0,"source":5}],"images":[{"mimeType":"image/png","name":"mat_masonry_n","uri":"../textures/mat_masonry_n.png"},{"mimeType":"image/png","name":"mat_masonry","uri":"../textures/mat_masonry.png"},{"mimeType":"image/png","name":"mat_plaster_n","uri":"../textures/mat_plaster_n.png"},{"mimeType":"image/png","name":"mat_plaster","uri":"../textures/mat_plaster.png"},{"mimeType":"image/png","name":"mat_timber_n","uri":"../textures/mat_timber_n.png"},{"mimeType":"image/png","name":"mat_timber","uri":"../textures/mat_timber.png"},{"mimeType":"image/png","name":"mat_shingle_n","uri":"../textures/mat_shingle_n.png"},{"mimeType":"image/png","name":"mat_shingle","uri":"../textures/mat_shingle.png"}],"accessors":[{"bufferView":0,"componentType":5126,"count":144,"max":[2.3927836418151855,0.3400000035762787,-0.5850000381469727],"min":[-2.3972158432006836,0.14000001549720764,-4.3949995040893555],"type":"VEC3"},{"bufferView":1,"componentType":5126,"count":144,"type":"VEC3"},{"bufferView":2,"componentType":5126,"count":144,"type":"VEC2"},{"bufferView":3,"componentType":5123,"count":204,"type":"SCALAR"},{"bufferView":4,"componentType":5126,"count":48,"max":[2.262784004211426,1.6399998664855957,-1.9849998950958252],"min":[-2.247215747833252,0.3400000035762787,-4.244999885559082],"type":"VEC3"},{"bufferView":5,"componentType":5126,"count":48,"type":"VEC3"},{"bufferView":6,"componentType":5126,"count":48,"type":"VEC2"},{"bufferView":7,"componentType":5123,"count":72,"type":"SCALAR"},{"bufferView":8,"componentType":5126,"count":1344,"max":[2.3327836990356445,2.5,4.384998798370361],"min":[-2.317215919494629,0.14000001549720764,-4.329999923706055],"type":"VEC3"},{"bufferView":9,"componentType":5126,"count":1344,"type":"VEC3"},{"bufferView":10,"componentType":5126,"count":1344,"type":"VEC2"},{"bufferView":11,"componentType":5123,"count":2052,"type":"SCALAR"},{"bufferView":12,"componentType":5126,"count":528,"max":[2.536041259765625,2.7899997234344482,3.2726683616638184],"min":[-2.536041259765625,1.3756333589553833,-4.47499942779541],"type":"VEC3"},{"bufferView":13,"componentType":5126,"count":528,"type":"VEC3"},{"bufferView":14,"componentType":5126,"count":528,"type":"VEC2"},{"bufferView":15,"componentType":5123,"count":792,"type":"SCALAR"},{"bufferView":16,"componentType":5126,"count":456,"max":[2.3927083015441895,2.8049559593200684,3.058382511138916],"min":[-2.3650412559509277,1.518966555595398,-4.47499942779541],"type":"VEC3"},{"bufferView":17,"componentType":5126,"count":456,"type":"VEC3"},{"bufferView":18,"componentType":5126,"count":456,"type":"VEC2"},{"bufferView":19,"componentType":5123,"count":684,"type":"SCALAR"},{"bufferView":20,"componentType":5126,"count":96,"max":[-0.29721590876579285,1.149999976158142,-4.22499942779541],"min":[-1.2372159957885742,0.5299999713897705,-4.284999370574951],"type":"VEC3"},{"bufferView":21,"componentType":5126,"count":96,"type":"VEC3"},{"bufferView":22,"componentType":5126,"count":96,"type":"VEC2"},{"bufferView":23,"componentType":5123,"count":144,"type":"SCALAR"},{"bufferView":24,"componentType":5126,"count":48,"max":[0.4927840232849121,1.3499999046325684,-1.834999918937683],"min":[-2.0272159576416016,1.0499999523162842,-1.9149999618530273],"type":"VEC3"},{"bufferView":25,"componentType":5126,"count":48,"type":"VEC3"},{"bufferView":26,"componentType":5126,"count":48,"type":"VEC2"},{"bufferView":27,"componentType":5126,"count":1380,"max":[2.2177839279174805,1.6599998474121094,4.47499942779541],"min":[-2.2322158813476562,0,-4.304999351501465],"type":"VEC3"},{"bufferView":28,"componentType":5126,"count":1380,"type":"VEC3"},{"bufferView":29,"componentType":5126,"count":1380,"type":"VEC2"},{"bufferView":30,"componentType":5123,"count":2244,"type":"SCALAR"},{"bufferView":31,"componentType":5126,"count":824,"max":[2.197783946990967,2.379999876022339,4.3249993324279785],"min":[-1.4722158908843994,0.5072023868560791,1.072969913482666],"type":"VEC3"},{"bufferView":32,"componentType":5126,"count":824,"type":"VEC3"},{"bufferView":33,"componentType":5126,"count":824,"type":"VEC2"},{"bufferView":34,"componentType":5123,"count":1236,"type":"SCALAR"}],"bufferViews":[{"buffer":0,"byteLength":1728,"byteOffset":0,"target":34962},{"buffer":0,"byteLength":1728,"byteOffset":1728,"target":34962},{"buffer":0,"byteLength":1152,"byteOffset":3456,"target":34962},{"buffer":0,"byteLength":408,"byteOffset":4608,"target":34963},{"buffer":0,"byteLength":576,"byteOffset":5016,"target":34962},{"buffer":0,"byteLength":576,"byteOffset":5592,"target":34962},{"buffer":0,"byteLength":384,"byteOffset":6168,"target":34962},{"buffer":0,"byteLength":144,"byteOffset":6552,"target":34963},{"buffer":0,"byteLength":16128,"byteOffset":6696,"target":34962},{"buffer":0,"byteLength":16128,"byteOffset":22824,"target":34962},{"buffer":0,"byteLength":10752,"byteOffset":38952,"target":34962},{"buffer":0,"byteLength":4104,"byteOffset":49704,"target":34963},{"buffer":0,"byteLength":6336,"byteOffset":53808,"target":34962},{"buffer":0,"byteLength":6336,"byteOffset":60144,"target":34962},{"buffer":0,"byteLength":4224,"byteOffset":66480,"target":34962},{"buffer":0,"byteLength":1584,"byteOffset":70704,"target":34963},{"buffer":0,"byteLength":5472,"byteOffset":72288,"target":34962},{"buffer":0,"byteLength":5472,"byteOffset":77760,"target":34962},{"buffer":0,"byteLength":3648,"byteOffset":83232,"target":34962},{"buffer":0,"byteLength":1368,"byteOffset":86880,"target":34963},{"buffer":0,"byteLength":1152,"byteOffset":88248,"target":34962},{"buffer":0,"byteLength":1152,"byteOffset":89400,"target":34962},{"buffer":0,"byteLength":768,"byteOffset":90552,"target":34962},{"buffer":0,"byteLength":288,"byteOffset":91320,"target":34963},{"buffer":0,"byteLength":576,"byteOffset":91608,"target":34962},{"buffer":0,"byteLength":576,"byteOffset":92184,"target":34962},{"buffer":0,"byteLength":384,"byteOffset":92760,"target":34962},{"buffer":0,"byteLength":16560,"byteOffset":93144,"target":34962},{"buffer":0,"byteLength":16560,"byteOffset":109704,"target":34962},{"buffer":0,"byteLength":11040,"byteOffset":126264,"target":34962},{"buffer":0,"byteLength":4488,"byteOffset":137304,"target":34963},{"buffer":0,"byteLength":9888,"byteOffset":141792,"target":34962},{"buffer":0,"byteLength":9888,"byteOffset":151680,"target":34962},{"buffer":0,"byteLength":6592,"byteOffset":161568,"target":34962},{"buffer":0,"byteLength":2472,"byteOffset":168160,"target":34963}],"samplers":[{"magFilter":9729,"minFilter":9987}],"buffers":[{"byteLength":170632,"uri":"trading.bin"}]}