{"asset":{"generator":"Khronos glTF Blender I/O v4.5.51","version":"2.0"},"scene":0,"scenes":[{"name":"Scene","nodes":[0]}],"nodes":[{"mesh":0,"name":"University"}],"materials":[{"doubleSided":true,"name":"StoneDark","normalTexture":{"index":0,"scale":0.800000011920929},"pbrMetallicRoughness":{"baseColorTexture":{"index":1},"metallicFactor":0,"roughnessFactor":0.8600000143051147}},{"doubleSided":true,"name":"Stone","normalTexture":{"index":2,"scale":0.800000011920929},"pbrMetallicRoughness":{"baseColorTexture":{"index":3},"metallicFactor":0,"roughnessFactor":0.8799999952316284}},{"doubleSided":true,"name":"Plaster","normalTexture":{"index":4,"scale":0.800000011920929},"pbrMetallicRoughness":{"baseColorTexture":{"index":5},"metallicFactor":0,"roughnessFactor":0.949999988079071}},{"doubleSided":true,"name":"Timber","normalTexture":{"index":6,"scale":0.800000011920929},"pbrMetallicRoughness":{"baseColorTexture":{"index":7},"metallicFactor":0,"roughnessFactor":0.7200000286102295}},{"doubleSided":true,"name":"Slate","normalTexture":{"index":8,"scale":0.800000011920929},"pbrMetallicRoughness":{"baseColorTexture":{"index":9},"metallicFactor":0,"roughnessFactor":0.5199999809265137}},{"doubleSided":true,"name":"SlateLight","normalTexture":{"index":10,"scale":0.800000011920929},"pbrMetallicRoughness":{"baseColorTexture":{"index":11},"metallicFactor":0,"roughnessFactor":0.47999998927116394}},{"doubleSided":true,"name":"Window","pbrMetallicRoughness":{"baseColorFactor":[0.023153366521000862,0.024157632142305374,0.03310476616024971,1],"metallicFactor":0,"roughnessFactor":0.3499999940395355}},{"doubleSided":true,"name":"TimberDark","normalTexture":{"index":12,"scale":0.800000011920929},"pbrMetallicRoughness":{"baseColorTexture":{"index":13},"metallicFactor":0,"roughnessFactor":0.699999988079071}}],"meshes":[{"name":"Cube","primitives":[{"attributes":{"POSITION":0,"NORMAL":1,"TEXCOORD_0":2},"indices":3,"material":0},{"attributes":{"POSITION":4,"NORMAL":5,"TEXCOORD_0":6},"indices":7,"material":1},{"attributes":{"POSITION":8,"NORMAL":9,"TEXCOORD_0":10},"indices":11,"material":2},{"attributes":{"POSITION":12,"NORMAL":13,"TEXCOORD_0":14},"indices":15,"material":3},{"attributes":{"POSITION":16,"NORMAL":17,"TEXCOORD_0":18},"indices":19,"material":4},{"attributes":{"POSITION":20,"NORMAL":21,"TEXCOORD_0":22},"indices":23,"material":5},{"attributes":{"POSITION":24,"NORMAL":25,"TEXCOORD_0":26},"indices":27,"material":6},{"attributes":{"POSITION":28,"NORMAL":29,"TEXCOORD_0":30},"indices":31,"material":7}]}],"textures":[{"sampler":0,"source":0},{"sampler":0,"source":1},{"sampler":0,"source":0},{"sampler":0,"source":1},{"sampler":0,"source":2},{"sampler":0,"source":3},{"sampler":0,"source":4},{"sampler":0,"source":5},{"sampler":0,"source":6},{"sampler":0,"source":7},{"sampler":0,"source":6},{"sampler":0,"source":7},{"sampler":0,"source":4},{"sampler":0,"source":5}],"images":[{"mimeType":"image/png","name":"mat_masonry_n","uri":"../textures/mat_masonry_n.png"},{"mimeType":"image/png","name":"mat_masonry","uri":"../textures/mat_masonry.png"},{"mimeType":"image/png","name":"mat_plaster_n","uri":"../textures/mat_plaster_n.png"},{"mimeType":"image/png","name":"mat_plaster","uri":"../textures/mat_plaster.png"},{"mimeType":"image/png","name":"mat_timber_n","uri":"../textures/mat_timber_n.png"},{"mimeType":"image/png","name":"mat_timber","uri":"../textures/mat_timber.png"},{"mimeType":"image/png","name":"mat_shingle_n","uri":"../textures/mat_shingle_n.png"},{"mimeType":"image/png","name":"mat_shingle","uri":"../textures/mat_shingle.png"}],"accessors":[{"bufferView":0,"componentType":5126,"count":2400,"max":[1.9199999570846558,1.5399999618530273,2.115000009536743],"min":[-1.9199999570846558,0,-1.8680000305175781],"type":"VEC3"},{"bufferView":1,"componentType":5126,"count":2400,"type":"VEC3"},{"bufferView":2,"componentType":5126,"count":2400,"type":"VEC2"},{"bufferView":3,"componentType":5123,"count":3300,"type":"SCALAR"},{"bufferView":4,"componentType":5126,"count":1344,"max":[1.8700001239776611,4.350000858306885,2.065000057220459],"min":[-1.8700001239776611,0.25999999046325684,-1.878999948501587],"type":"VEC3"},{"bufferView":5,"componentType":5126,"count":1344,"type":"VEC3"},{"bufferView":6,"componentType":5126,"count":1344,"type":"VEC2"},{"bufferView":7,"componentType":5123,"count":1896,"type":"SCALAR"},{"bufferView":8,"componentType":5126,"count":192,"max":[1.7300001382827759,4.590000152587891,1.9250000715255737],"min":[-1.7300001382827759,0.25999999046325684,-1.2350000143051147],"type":"VEC3"},{"bufferView":9,"componentType":5126,"count":192,"type":"VEC3"},{"bufferView":10,"componentType":5126,"count":192,"type":"VEC2"},{"bufferView":11,"componentType":5123,"count":264,"type":"SCALAR"},{"bufferView":12,"componentType":5126,"count":4128,"max":[1.8100000619888306,4.25600004196167,1.9950000047683716],"min":[-1.8100000619888306,0.4471999704837799,-1.3249999284744263],"type":"VEC3"},{"bufferView":13,"componentType":5126,"count":4128,"type":"VEC3"},{"bufferView":14,"componentType":5126,"count":4128,"type":"VEC2"},{"bufferView":15,"componentType":5123,"count":5676,"type":"SCALAR"},{"bufferView":16,"componentType":5126,"count":1216,"max":[2.0164096355438232,5.86030912399292,2.1549999713897705],"min":[-2.0164096355438232,1.6700000762939453,-2.1549999713897705],"type":"VEC3"},{"bufferView":17,"componentType":5126,"count":1216,"type":"VEC3"},{"bufferView":18,"componentType":5126,"count":1216,"type":"VEC2"},{"bufferView":19,"componentType":5123,"count":1668,"type":"SCALAR"},{"bufferView":20,"componentType":5126,"count":960,"max":[1.8204094171524048,4.424829959869385,2.1549999713897705],"min":[-1.8204094171524048,3.5169572830200195,-1.4649999141693115],"type":"VEC3"},{"bufferView":21,"componentType":5126,"count":960,"type":"VEC3"},{"bufferView":22,"componentType":5126,"count":960,"type":"VEC2"},{"bufferView":23,"componentType":5123,"count":1320,"type":"SCALAR"},{"bufferView":24,"componentType":5126,"count":3072,"max":[1.8000000715255737,4.200000286102295,1.5950000286102295],"min":[-1.8000000715255737,0.5199999809265137,-1.304999828338623],"type":"VEC3"},{"bufferView":25,"componentType":5126,"count":3072,"type":"VEC3"},{"bufferView":26,"componentType":5126,"count":3072,"type":"VEC2"},{"bufferView":27,"componentType":5123,"count":4224,"type":"SCALAR"},{"bufferView":28,"componentType":5126,"count":96,"max":[0.3100000023841858,1.2000000476837158,-1.2149999141693115],"min":[-0.3100000023841858,0.2600000202655792,-1.3149999380111694],"type":"VEC3"},{"bufferView":29,"componentType":5126,"count":96,"type":"VEC3"},{"bufferView":30,"componentType":5126,"count":96,"type":"VEC2"},{"bufferView":31,"componentType":5123,"count":132,"type":"SCALAR"}],"bufferViews":[{"buffer":0,"byteLength":28800,"byteOffset":0,"target":34962},{"buffer":0,"byteLength":28800,"byteOffset":28800,"target":34962},{"buffer":0,"byteLength":19200,"byteOffset":57600,"target":34962},{"buffer":0,"byteLength":6600,"byteOffset":76800,"target":34963},{"buffer":0,"byteLength":16128,"byteOffset":83400,"target":34962},{"buffer":0,"byteLength":16128,"byteOffset":99528,"target":34962},{"buffer":0,"byteLength":10752,"byteOffset":115656,"target":34962},{"buffer":0,"byteLength":3792,"byteOffset":126408,"target":34963},{"buffer":0,"byteLength":2304,"byteOffset":130200,"target":34962},{"buffer":0,"byteLength":2304,"byteOffset":132504,"target":34962},{"buffer":0,"byteLength":1536,"byteOffset":134808,"target":34962},{"buffer":0,"byteLength":528,"byteOffset":136344,"target":34963},{"buffer":0,"byteLength":49536,"byteOffset":136872,"target":34962},{"buffer":0,"byteLength":49536,"byteOffset":186408,"target":34962},{"buffer":0,"byteLength":33024,"byteOffset":235944,"target":34962},{"buffer":0,"byteLength":11352,"byteOffset":268968,"target":34963},{"buffer":0,"byteLength":14592,"byteOffset":280320,"target":34962},{"buffer":0,"byteLength":14592,"byteOffset":294912,"target":34962},{"buffer":0,"byteLength":9728,"byteOffset":309504,"target":34962},{"buffer":0,"byteLength":3336,"byteOffset":319232,"target":34963},{"buffer":0,"byteLength":11520,"byteOffset":322568,"target":34962},{"buffer":0,"byteLength":11520,"byteOffset":334088,"target":34962},{"buffer":0,"byteLength":7680,"byteOffset":345608,"target":34962},{"buffer":0,"byteLength":2640,"byteOffset":353288,"target":34963},{"buffer":0,"byteLength":36864,"byteOffset":355928,"target":34962},{"buffer":0,"byteLength":36864,"byteOffset":392792,"target":34962},{"buffer":0,"byteLength":24576,"byteOffset":429656,"target":34962},{"buffer":0,"byteLength":8448,"byteOffset":454232,"target":34963},{"buffer":0,"byteLength":1152,"byteOffset":462680,"target":34962},{"buffer":0,"byteLength":1152,"byteOffset":463832,"target":34962},{"buffer":0,"byteLength":768,"byteOffset":464984,"target":34962},{"buffer":0,"byteLength":264,"byteOffset":465752,"target":34963}],"samplers":[{"magFilter":9729,"minFilter":9987}],"buffers":[{"byteLength":466016,"uri":"university.bin"}]}