{"asset":{"generator":"Khronos glTF Blender I/O v4.5.51","version":"2.0"},"scene":0,"scenes":[{"name":"Scene","nodes":[0]}],"nodes":[{"mesh":0,"name":"Well"}],"materials":[{"doubleSided":true,"name":"Stone","normalTexture":{"index":0,"scale":0.800000011920929},"pbrMetallicRoughness":{"baseColorTexture":{"index":1},"metallicFactor":0,"roughnessFactor":0.8799999952316284}},{"doubleSided":true,"name":"Window","pbrMetallicRoughness":{"baseColorFactor":[0.023153366521000862,0.024157632142305374,0.03310476616024971,1],"metallicFactor":0,"roughnessFactor":0.3499999940395355}},{"doubleSided":true,"name":"StoneDark","normalTexture":{"index":2,"scale":0.800000011920929},"pbrMetallicRoughness":{"baseColorTexture":{"index":3},"metallicFactor":0,"roughnessFactor":0.8600000143051147}},{"doubleSided":true,"name":"Timber","normalTexture":{"index":4,"scale":0.800000011920929},"pbrMetallicRoughness":{"baseColorTexture":{"index":5},"metallicFactor":0,"roughnessFactor":0.7200000286102295}},{"doubleSided":true,"name":"Slate","normalTexture":{"index":6,"scale":0.800000011920929},"pbrMetallicRoughness":{"baseColorTexture":{"index":7},"metallicFactor":0,"roughnessFactor":0.5199999809265137}},{"doubleSided":true,"name":"SlateLight","normalTexture":{"index":8,"scale":0.800000011920929},"pbrMetallicRoughness":{"baseColorTexture":{"index":9},"metallicFactor":0,"roughnessFactor":0.47999998927116394}},{"doubleSided":true,"name":"TimberDark","normalTexture":{"index":10,"scale":0.800000011920929},"pbrMetallicRoughness":{"baseColorTexture":{"index":11},"metallicFactor":0,"roughnessFactor":0.699999988079071}},{"doubleSided":true,"name":"Cloth","pbrMetallicRoughness":{"baseColorFactor":[0.6239603757858276,0.5457244515419006,0.4019777774810791,1],"metallicFactor":0,"roughnessFactor":0.8799999952316284}}],"meshes":[{"name":"Cylinder","primitives":[{"attributes":{"POSITION":0,"NORMAL":1,"TEXCOORD_0":2},"indices":3,"material":0},{"attributes":{"POSITION":4,"NORMAL":5,"TEXCOORD_0":6},"indices":3,"material":1},{"attributes":{"POSITION":7,"NORMAL":8,"TEXCOORD_0":9},"indices":3,"material":2},{"attributes":{"POSITION":10,"NORMAL":11,"TEXCOORD_0":12},"indices":13,"material":3},{"attributes":{"POSITION":14,"NORMAL":15,"TEXCOORD_0":16},"indices":17,"material":4},{"attributes":{"POSITION":18,"NORMAL":19,"TEXCOORD_0":20},"indices":21,"material":5},{"attributes":{"POSITION":22,"NORMAL":23,"TEXCOORD_0":24},"indices":25,"material":6},{"attributes":{"POSITION":26,"NORMAL":27,"TEXCOORD_0":28},"indices":29,"material":7}]}],"textures":[{"sampler":0,"source":0},{"sampler":0,"source":1},{"sampler":0,"source":0},{"sampler":0,"source":1},{"sampler":0,"source":2},{"sampler":0,"source":3},{"sampler":0,"source":4},{"sampler":0,"source":5},{"sampler":0,"source":4},{"sampler":0,"source":5},{"sampler":0,"source":2},{"sampler":0,"source":3}],"images":[{"mimeType":"image/png","name":"mat_masonry_n","uri":"../textures/mat_masonry_n.png"},{"mimeType":"image/png","name":"mat_masonry","uri":"../textures/mat_masonry.png"},{"mimeType":"image/png","name":"mat_timber_n","uri":"../textures/mat_timber_n.png"},{"mimeType":"image/png","name":"mat_timber","uri":"../textures/mat_timber.png"},{"mimeType":"image/png","name":"mat_shingle_n","uri":"../textures/mat_shingle_n.png"},{"mimeType":"image/png","name":"mat_shingle","uri":"../textures/mat_shingle.png"}],"accessors":[{"bufferView":0,"componentType":5126,"count":72,"max":[0.3199999928474426,0.4000000059604645,0.3199999928474426],"min":[-0.3199999928474426,0,-0.3199999928474426],"type":"VEC3"},{"bufferView":1,"componentType":5126,"count":72,"type":"VEC3"},{"bufferView":2,"componentType":5126,"count":72,"type":"VEC2"},{"bufferView":3,"componentType":5123,"count":132,"type":"SCALAR"},{"bufferView":4,"componentType":5126,"count":72,"max":[0.23999999463558197,0.41999998688697815,0.23999999463558197],"min":[-0.23999999463558197,0.35999998450279236,-0.23999999463558197],"type":"VEC3"},{"bufferView":5,"componentType":5126,"count":72,"type":"VEC3"},{"bufferView":6,"componentType":5126,"count":72,"type":"VEC2"},{"bufferView":7,"componentType":5126,"count":72,"max":[0.46000000834465027,0.050000011920928955,0.46000000834465027],"min":[-0.46000000834465027,0,-0.46000000834465027],"type":"VEC3"},{"bufferView":8,"componentType":5126,"count":72,"type":"VEC3"},{"bufferView":9,"componentType":5126,"count":72,"type":"VEC2"},{"bufferView":10,"componentType":5126,"count":120,"max":[0.33000001311302185,1.1450001001358032,0.10000000149011612],"min":[-0.33000001311302185,0.3799999952316284,-0.10000000149011612],"type":"VEC3"},{"bufferView":11,"componentType":5126,"count":120,"type":"VEC3"},{"bufferView":12,"componentType":5126,"count":120,"type":"VEC2"},{"bufferView":13,"componentType":5123,"count":192,"type":"SCALAR"},{"bufferView":14,"componentType":5126,"count":120,"max":[0.4843786954879761,1.4619566202163696,0.3799999952316284],"min":[-0.4843786954879761,1.1041333675384521,-0.3799999952316284],"type":"VEC3"},{"bufferView":15,"componentType":5126,"count":120,"type":"VEC3"},{"bufferView":16,"componentType":5126,"count":120,"type":"VEC2"},{"bufferView":17,"componentType":5123,"count":180,"type":"SCALAR"},{"bufferView":18,"componentType":5126,"count":48,"max":[0.3410453498363495,1.3686232566833496,0.3799999952316284],"min":[-0.3410453498363495,1.1974666118621826,-0.3799999952316284],"type":"VEC3"},{"bufferView":19,"componentType":5126,"count":48,"type":"VEC3"},{"bufferView":20,"componentType":5126,"count":48,"type":"VEC2"},{"bufferView":21,"componentType":5123,"count":72,"type":"SCALAR"},{"bufferView":22,"componentType":5126,"count":48,"max":[0.2199999988079071,1.0500000715255737,0.07000000029802322],"min":[-0.2199999988079071,0.9100000262260437,-0.07000000029802322],"type":"VEC3"},{"bufferView":23,"componentType":5126,"count":48,"type":"VEC3"},{"bufferView":24,"componentType":5126,"count":48,"type":"VEC2"},{"bufferView":25,"componentType":5123,"count":84,"type":"SCALAR"},{"bufferView":26,"componentType":5126,"count":24,"max":[0.014999999664723873,0.949999988079071,0.014999999664723873],"min":[-0.014999999664723873,0.6500000357627869,-0.014999999664723873],"type":"VEC3"},{"bufferView":27,"componentType":5126,"count":24,"type":"VEC3"},{"bufferView":28,"componentType":5126,"count":24,"type":"VEC2"},{"bufferView":29,"componentType":5123,"count":36,"type":"SCALAR"}],"bufferViews":[{"buffer":0,"byteLength":864,"byteOffset":0,"target":34962},{"buffer":0,"byteLength":864,"byteOffset":864,"target":34962},{"buffer":0,"byteLength":576,"byteOffset":1728,"target":34962},{"buffer":0,"byteLength":264,"byteOffset":2304,"target":34963},{"buffer":0,"byteLength":864,"byteOffset":2568,"target":34962},{"buffer":0,"byteLength":864,"byteOffset":3432,"target":34962},{"buffer":0,"byteLength":576,"byteOffset":4296,"target":34962},{"buffer":0,"byteLength":864,"byteOffset":4872,"target":34962},{"buffer":0,"byteLength":864,"byteOffset":5736,"target":34962},{"buffer":0,"byteLength":576,"byteOffset":6600,"target":34962},{"buffer":0,"byteLength":1440,"byteOffset":7176,"target":34962},{"buffer":0,"byteLength":1440,"byteOffset":8616,"target":34962},{"buffer":0,"byteLength":960,"byteOffset":10056,"target":34962},{"buffer":0,"byteLength":384,"byteOffset":11016,"target":34963},{"buffer":0,"byteLength":1440,"byteOffset":11400,"target":34962},{"buffer":0,"byteLength":1440,"byteOffset":12840,"target":34962},{"buffer":0,"byteLength":960,"byteOffset":14280,"target":34962},{"buffer":0,"byteLength":360,"byteOffset":15240,"target":34963},{"buffer":0,"byteLength":576,"byteOffset":15600,"target":34962},{"buffer":0,"byteLength":576,"byteOffset":16176,"target":34962},{"buffer":0,"byteLength":384,"byteOffset":16752,"target":34962},{"buffer":0,"byteLength":144,"byteOffset":17136,"target":34963},{"buffer":0,"byteLength":576,"byteOffset":17280,"target":34962},{"buffer":0,"byteLength":576,"byteOffset":17856,"target":34962},{"buffer":0,"byteLength":384,"byteOffset":18432,"target":34962},{"buffer":0,"byteLength":168,"byteOffset":18816,"target":34963},{"buffer":0,"byteLength":288,"byteOffset":18984,"target":34962},{"buffer":0,"byteLength":288,"byteOffset":19272,"target":34962},{"buffer":0,"byteLength":192,"byteOffset":19560,"target":34962},{"buffer":0,"byteLength":72,"byteOffset":19752,"target":34963}],"samplers":[{"magFilter":9729,"minFilter":9987}],"buffers":[{"byteLength":19824,"uri":"well.bin"}]}