{"asset":{"generator":"Khronos glTF Blender I/O v4.5.51","version":"2.0"},"scene":0,"scenes":[{"name":"Scene","nodes":[0]}],"nodes":[{"mesh":0,"name":"Willow"}],"materials":[{"doubleSided":true,"name":"Bark","normalTexture":{"index":0,"scale":0.800000011920929},"pbrMetallicRoughness":{"baseColorTexture":{"index":1},"metallicFactor":0,"roughnessFactor":0.8999999761581421,"baseColorFactor":[0.10224173308810132,0.05780543019106723,0.033104766570885055,1.0]}},{"doubleSided":true,"name":"WillowLeaf","normalTexture":{"index":2,"scale":0.800000011920929},"pbrMetallicRoughness":{"baseColorTexture":{"index":3},"metallicFactor":0,"roughnessFactor":0.800000011920929,"baseColorFactor":[0.1559264637078274,0.2581828529215958,0.08437621154414882,1.0]}},{"doubleSided":true,"name":"WillowLeafLight","normalTexture":{"index":4,"scale":0.800000011920929},"pbrMetallicRoughness":{"baseColorTexture":{"index":5},"metallicFactor":0,"roughnessFactor":0.7799999713897705,"baseColorFactor":[0.24228112246555486,0.3613067797835095,0.1301364766903643,1.0]}}],"meshes":[{"name":"Cone","primitives":[{"attributes":{"POSITION":0,"NORMAL":1,"TEXCOORD_0":2},"indices":3,"material":0},{"attributes":{"POSITION":4,"NORMAL":5,"TEXCOORD_0":6},"indices":7,"material":1},{"attributes":{"POSITION":8,"NORMAL":9,"TEXCOORD_0":10},"indices":11,"material":2}]}],"textures":[{"sampler":0,"source":0},{"sampler":0,"source":1},{"sampler":0,"source":2},{"sampler":0,"source":3},{"sampler":0,"source":2},{"sampler":0,"source":3}],"images":[{"mimeType":"image/png","name":"mat_bark_n","uri":"../textures/mat_bark_n.png"},{"mimeType":"image/png","name":"mat_bark","uri":"../textures/mat_bark.png"},{"mimeType":"image/png","name":"mat_foliage_n","uri":"../textures/mat_foliage_n.png"},{"mimeType":"image/png","name":"mat_foliage","uri":"../textures/mat_foliage.png"}],"accessors":[{"bufferView":0,"componentType":5126,"count":36,"max":[0.09666278958320618,1.0550239086151123,0.15122589468955994],"min":[-0.21557655930519104,0,-0.1087740957736969],"type":"VEC3"},{"bufferView":1,"componentType":5126,"count":36,"type":"VEC3"},{"bufferView":2,"componentType":5126,"count":36,"type":"VEC2"},{"bufferView":3,"componentType":5123,"count":60,"type":"SCALAR"},{"bufferView":4,"componentType":5126,"count":246,"max":[0.6157917976379395,1.7578444480895996,0.5850414037704468],"min":[-0.6013449430465698,0.6457045078277588,-0.5850414037704468],"type":"VEC3"},{"bufferView":5,"componentType":5126,"count":246,"type":"VEC3"},{"bufferView":6,"componentType":5126,"count":246,"type":"VEC2"},{"bufferView":7,"componentType":5123,"count":354,"type":"SCALAR"},{"bufferView":8,"componentType":5126,"count":90,"max":[0.36263853311538696,1.4098446369171143,0.5460981130599976],"min":[-0.6157917976379395,0.6515933871269226,-0.5543835163116455],"type":"VEC3"},{"bufferView":9,"componentType":5126,"count":90,"type":"VEC3"},{"bufferView":10,"componentType":5126,"count":90,"type":"VEC2"},{"bufferView":11,"componentType":5123,"count":144,"type":"SCALAR"}],"bufferViews":[{"buffer":0,"byteLength":432,"byteOffset":0,"target":34962},{"buffer":0,"byteLength":432,"byteOffset":432,"target":34962},{"buffer":0,"byteLength":288,"byteOffset":864,"target":34962},{"buffer":0,"byteLength":120,"byteOffset":1152,"target":34963},{"buffer":0,"byteLength":2952,"byteOffset":1272,"target":34962},{"buffer":0,"byteLength":2952,"byteOffset":4224,"target":34962},{"buffer":0,"byteLength":1968,"byteOffset":7176,"target":34962},{"buffer":0,"byteLength":708,"byteOffset":9144,"target":34963},{"buffer":0,"byteLength":1080,"byteOffset":9852,"target":34962},{"buffer":0,"byteLength":1080,"byteOffset":10932,"target":34962},{"buffer":0,"byteLength":720,"byteOffset":12012,"target":34962},{"buffer":0,"byteLength":288,"byteOffset":12732,"target":34963}],"samplers":[{"magFilter":9729,"minFilter":9987}],"buffers":[{"byteLength":13020,"uri":"willow.bin"}]}