{"asset":{"generator":"Khronos glTF Blender I/O v4.5.51","version":"2.0"},"scene":0,"scenes":[{"name":"Scene","nodes":[0]}],"nodes":[{"mesh":0,"name":"Woodcutter"}],"materials":[{"doubleSided":true,"name":"StoneDark","normalTexture":{"index":0,"scale":0.800000011920929},"pbrMetallicRoughness":{"baseColorTexture":{"index":1},"metallicFactor":0,"roughnessFactor":0.8600000143051147}},{"doubleSided":true,"name":"Plaster","normalTexture":{"index":2,"scale":0.800000011920929},"pbrMetallicRoughness":{"baseColorTexture":{"index":3},"metallicFactor":0,"roughnessFactor":0.949999988079071}},{"doubleSided":true,"name":"Timber","normalTexture":{"index":4,"scale":0.800000011920929},"pbrMetallicRoughness":{"baseColorTexture":{"index":5},"metallicFactor":0,"roughnessFactor":0.7200000286102295}},{"doubleSided":true,"name":"Shake","normalTexture":{"index":6,"scale":0.800000011920929},"pbrMetallicRoughness":{"baseColorTexture":{"index":7},"metallicFactor":0,"roughnessFactor":0.8600000143051147}},{"doubleSided":true,"name":"ShakeLight","normalTexture":{"index":8,"scale":0.800000011920929},"pbrMetallicRoughness":{"baseColorTexture":{"index":9},"metallicFactor":0,"roughnessFactor":0.8399999737739563}},{"doubleSided":true,"name":"TimberDark","normalTexture":{"index":10,"scale":0.800000011920929},"pbrMetallicRoughness":{"baseColorTexture":{"index":11},"metallicFactor":0,"roughnessFactor":0.699999988079071}},{"doubleSided":true,"name":"Window","pbrMetallicRoughness":{"baseColorFactor":[0.023153366521000862,0.024157632142305374,0.03310476616024971,1],"metallicFactor":0,"roughnessFactor":0.3499999940395355}},{"doubleSided":true,"name":"Slate","normalTexture":{"index":12,"scale":0.800000011920929},"pbrMetallicRoughness":{"baseColorTexture":{"index":13},"metallicFactor":0,"roughnessFactor":0.5199999809265137}},{"doubleSided":true,"name":"SlateLight","normalTexture":{"index":14,"scale":0.800000011920929},"pbrMetallicRoughness":{"baseColorTexture":{"index":15},"metallicFactor":0,"roughnessFactor":0.47999998927116394}},{"doubleSided":true,"name":"Soil","normalTexture":{"index":16,"scale":0.800000011920929},"pbrMetallicRoughness":{"baseColorTexture":{"index":17},"metallicFactor":0}},{"doubleSided":true,"name":"Bark","normalTexture":{"index":18,"scale":0.800000011920929},"pbrMetallicRoughness":{"baseColorTexture":{"index":19},"metallicFactor":0,"roughnessFactor":0.8999999761581421}},{"doubleSided":true,"name":"Metal","pbrMetallicRoughness":{"baseColorFactor":[0.06847816705703735,0.07036009430885315,0.0802198201417923,1],"metallicFactor":0,"roughnessFactor":0.41999998688697815}}],"meshes":[{"name":"Cube","primitives":[{"attributes":{"POSITION":0,"NORMAL":1,"TEXCOORD_0":2},"indices":3,"material":0},{"attributes":{"POSITION":4,"NORMAL":5,"TEXCOORD_0":6},"indices":7,"material":1},{"attributes":{"POSITION":8,"NORMAL":9,"TEXCOORD_0":10},"indices":11,"material":2},{"attributes":{"POSITION":12,"NORMAL":13,"TEXCOORD_0":14},"indices":15,"material":3},{"attributes":{"POSITION":16,"NORMAL":17,"TEXCOORD_0":18},"indices":19,"material":4},{"attributes":{"POSITION":20,"NORMAL":21,"TEXCOORD_0":22},"indices":7,"material":5},{"attributes":{"POSITION":23,"NORMAL":24,"TEXCOORD_0":25},"indices":7,"material":6},{"attributes":{"POSITION":26,"NORMAL":27,"TEXCOORD_0":28},"indices":29,"material":7},{"attributes":{"POSITION":30,"NORMAL":31,"TEXCOORD_0":32},"indices":33,"material":8},{"attributes":{"POSITION":34,"NORMAL":35,"TEXCOORD_0":36},"indices":7,"material":9},{"attributes":{"POSITION":37,"NORMAL":38,"TEXCOORD_0":39},"indices":40,"material":10},{"attributes":{"POSITION":41,"NORMAL":42,"TEXCOORD_0":43},"indices":7,"material":11}]}],"textures":[{"sampler":0,"source":0},{"sampler":0,"source":1},{"sampler":0,"source":2},{"sampler":0,"source":3},{"sampler":0,"source":4},{"sampler":0,"source":5},{"sampler":0,"source":6},{"sampler":0,"source":7},{"sampler":0,"source":6},{"sampler":0,"source":7},{"sampler":0,"source":4},{"sampler":0,"source":5},{"sampler":0,"source":8},{"sampler":0,"source":9},{"sampler":0,"source":8},{"sampler":0,"source":9},{"sampler":0,"source":0},{"sampler":0,"source":1},{"sampler":0,"source":10},{"sampler":0,"source":11}],"images":[{"mimeType":"image/png","name":"mat_masonry_n","uri":"../textures/mat_masonry_n.png"},{"mimeType":"image/png","name":"mat_masonry","uri":"../textures/mat_masonry.png"},{"mimeType":"image/png","name":"mat_plaster_n","uri":"../textures/mat_plaster_n.png"},{"mimeType":"image/png","name":"mat_plaster","uri":"../textures/mat_plaster.png"},{"mimeType":"image/png","name":"mat_timber_n","uri":"../textures/mat_timber_n.png"},{"mimeType":"image/png","name":"mat_timber","uri":"../textures/mat_timber.png"},{"mimeType":"image/png","name":"mat_shake_n","uri":"../textures/mat_shake_n.png"},{"mimeType":"image/png","name":"mat_shake","uri":"../textures/mat_shake.png"},{"mimeType":"image/png","name":"mat_shingle_n","uri":"../textures/mat_shingle_n.png"},{"mimeType":"image/png","name":"mat_shingle","uri":"../textures/mat_shingle.png"},{"mimeType":"image/png","name":"mat_bark_n","uri":"../textures/mat_bark_n.png"},{"mimeType":"image/png","name":"mat_bark","uri":"../textures/mat_bark.png"}],"accessors":[{"bufferView":0,"componentType":5126,"count":96,"max":[-0.007181525230407715,0.18000003695487976,0.9856250286102295],"min":[-1.3871815204620361,2.2351741790771484e-08,-1.0543749332427979],"type":"VEC3"},{"bufferView":1,"componentType":5126,"count":96,"type":"VEC3"},{"bufferView":2,"componentType":5126,"count":96,"type":"VEC2"},{"bufferView":3,"componentType":5123,"count":132,"type":"SCALAR"},{"bufferView":4,"componentType":5126,"count":24,"max":[-0.1471814513206482,1.3200000524520874,0.8456250429153442],"min":[-1.2471816539764404,0.18000003695487976,-0.9143749475479126],"type":"VEC3"},{"bufferView":5,"componentType":5126,"count":24,"type":"VEC3"},{"bufferView":6,"componentType":5126,"count":24,"type":"VEC2"},{"bufferView":7,"componentType":5123,"count":36,"type":"SCALAR"},{"bufferView":8,"componentType":5126,"count":1056,"max":[1.5228185653686523,1.659999966621399,0.9256250858306885],"min":[-1.3171815872192383,2.2351741790771484e-08,-1.444374918937683],"type":"VEC3"},{"bufferView":9,"componentType":5126,"count":1056,"type":"VEC3"},{"bufferView":10,"componentType":5126,"count":1056,"type":"VEC2"},{"bufferView":11,"componentType":5123,"count":1584,"type":"SCALAR"},{"bufferView":12,"componentType":5126,"count":168,"max":[0.12845540046691895,2.3899998664855957,1.055625081062317],"min":[-1.5228185653686523,1.291100025177002,-1.1243749856948853],"type":"VEC3"},{"bufferView":13,"componentType":5126,"count":168,"type":"VEC3"},{"bufferView":14,"componentType":5126,"count":168,"type":"VEC2"},{"bufferView":15,"componentType":5123,"count":252,"type":"SCALAR"},{"bufferView":16,"componentType":5126,"count":144,"max":[0.001788794994354248,2.401761531829834,1.055625081062317],"min":[-1.3961517810821533,1.4611001014709473,-1.1243749856948853],"type":"VEC3"},{"bufferView":17,"componentType":5126,"count":144,"type":"VEC3"},{"bufferView":18,"componentType":5126,"count":144,"type":"VEC2"},{"bufferView":19,"componentType":5123,"count":216,"type":"SCALAR"},{"bufferView":20,"componentType":5126,"count":24,"max":[-0.5071815252304077,0.8400000333786011,-0.8943749666213989],"min":[-0.8871815204620361,0.18000000715255737,-0.9943749904632568],"type":"VEC3"},{"bufferView":21,"componentType":5126,"count":24,"type":"VEC3"},{"bufferView":22,"componentType":5126,"count":24,"type":"VEC2"},{"bufferView":23,"componentType":5126,"count":24,"max":[-0.5571814775466919,1,0.9156250357627869],"min":[-0.837181568145752,0.7600000500679016,0.8356250524520874],"type":"VEC3"},{"bufferView":24,"componentType":5126,"count":24,"type":"VEC3"},{"bufferView":25,"componentType":5126,"count":24,"type":"VEC2"},{"bufferView":26,"componentType":5126,"count":120,"max":[1.4528188705444336,1.770794153213501,0.9007890224456787],"min":[0.03281855583190918,1.3292057514190674,-0.9695389270782471],"type":"VEC3"},{"bufferView":27,"componentType":5126,"count":120,"type":"VEC3"},{"bufferView":28,"componentType":5126,"count":120,"type":"VEC2"},{"bufferView":29,"componentType":5123,"count":180,"type":"SCALAR"},{"bufferView":30,"componentType":5126,"count":96,"max":[1.4528188705444336,1.7285720109939575,0.7007890343666077],"min":[0.03281855583190918,1.3714280128479004,-0.769538938999176],"type":"VEC3"},{"bufferView":31,"componentType":5126,"count":96,"type":"VEC3"},{"bufferView":32,"componentType":5126,"count":96,"type":"VEC2"},{"bufferView":33,"componentType":5123,"count":144,"type":"SCALAR"},{"bufferView":34,"componentType":5126,"count":24,"max":[1.4028186798095703,0.18000003695487976,0.8756250739097595],"min":[0.08281850814819336,2.2351741790771484e-08,-0.9443749785423279],"type":"VEC3"},{"bufferView":35,"componentType":5126,"count":24,"type":"VEC3"},{"bufferView":36,"componentType":5126,"count":24,"type":"VEC2"},{"bufferView":37,"componentType":5126,"count":972,"max":[1.5228185653686523,0.7300000190734863,1.444374918937683],"min":[-0.11718147993087769,0,-1.444374918937683],"type":"VEC3"},{"bufferView":38,"componentType":5126,"count":972,"type":"VEC3"},{"bufferView":39,"componentType":5126,"count":972,"type":"VEC2"},{"bufferView":40,"componentType":5123,"count":1560,"type":"SCALAR"},{"bufferView":41,"componentType":5126,"count":24,"max":[0.7128186821937561,0.9700000882148743,-0.3793749511241913],"min":[0.5728185772895813,0.8500000238418579,-0.42937496304512024],"type":"VEC3"},{"bufferView":42,"componentType":5126,"count":24,"type":"VEC3"},{"bufferView":43,"componentType":5126,"count":24,"type":"VEC2"}],"bufferViews":[{"buffer":0,"byteLength":1152,"byteOffset":0,"target":34962},{"buffer":0,"byteLength":1152,"byteOffset":1152,"target":34962},{"buffer":0,"byteLength":768,"byteOffset":2304,"target":34962},{"buffer":0,"byteLength":264,"byteOffset":3072,"target":34963},{"buffer":0,"byteLength":288,"byteOffset":3336,"target":34962},{"buffer":0,"byteLength":288,"byteOffset":3624,"target":34962},{"buffer":0,"byteLength":192,"byteOffset":3912,"target":34962},{"buffer":0,"byteLength":72,"byteOffset":4104,"target":34963},{"buffer":0,"byteLength":12672,"byteOffset":4176,"target":34962},{"buffer":0,"byteLength":12672,"byteOffset":16848,"target":34962},{"buffer":0,"byteLength":8448,"byteOffset":29520,"target":34962},{"buffer":0,"byteLength":3168,"byteOffset":37968,"target":34963},{"buffer":0,"byteLength":2016,"byteOffset":41136,"target":34962},{"buffer":0,"byteLength":2016,"byteOffset":43152,"target":34962},{"buffer":0,"byteLength":1344,"byteOffset":45168,"target":34962},{"buffer":0,"byteLength":504,"byteOffset":46512,"target":34963},{"buffer":0,"byteLength":1728,"byteOffset":47016,"target":34962},{"buffer":0,"byteLength":1728,"byteOffset":48744,"target":34962},{"buffer":0,"byteLength":1152,"byteOffset":50472,"target":34962},{"buffer":0,"byteLength":432,"byteOffset":51624,"target":34963},{"buffer":0,"byteLength":288,"byteOffset":52056,"target":34962},{"buffer":0,"byteLength":288,"byteOffset":52344,"target":34962},{"buffer":0,"byteLength":192,"byteOffset":52632,"target":34962},{"buffer":0,"byteLength":288,"byteOffset":52824,"target":34962},{"buffer":0,"byteLength":288,"byteOffset":53112,"target":34962},{"buffer":0,"byteLength":192,"byteOffset":53400,"target":34962},{"buffer":0,"byteLength":1440,"byteOffset":53592,"target":34962},{"buffer":0,"byteLength":1440,"byteOffset":55032,"target":34962},{"buffer":0,"byteLength":960,"byteOffset":56472,"target":34962},{"buffer":0,"byteLength":360,"byteOffset":57432,"target":34963},{"buffer":0,"byteLength":1152,"byteOffset":57792,"target":34962},{"buffer":0,"byteLength":1152,"byteOffset":58944,"target":34962},{"buffer":0,"byteLength":768,"byteOffset":60096,"target":34962},{"buffer":0,"byteLength":288,"byteOffset":60864,"target":34963},{"buffer":0,"byteLength":288,"byteOffset":61152,"target":34962},{"buffer":0,"byteLength":288,"byteOffset":61440,"target":34962},{"buffer":0,"byteLength":192,"byteOffset":61728,"target":34962},{"buffer":0,"byteLength":11664,"byteOffset":61920,"target":34962},{"buffer":0,"byteLength":11664,"byteOffset":73584,"target":34962},{"buffer":0,"byteLength":7776,"byteOffset":85248,"target":34962},{"buffer":0,"byteLength":3120,"byteOffset":93024,"target":34963},{"buffer":0,"byteLength":288,"byteOffset":96144,"target":34962},{"buffer":0,"byteLength":288,"byteOffset":96432,"target":34962},{"buffer":0,"byteLength":192,"byteOffset":96720,"target":34962}],"samplers":[{"magFilter":9729,"minFilter":9987}],"buffers":[{"byteLength":96912,"uri":"woodcutter.bin"}]}